<svg width="27" height="48" viewBox="0 0 27 48" fill="none" xmlns="http://www.w3.org/2000/svg">
<path fillRule="evenodd" clipRule="evenodd" d="M13.0486 0C8.88189 0 0.850153 2.5 0.0501529 12.5C-0.71496 22.0639 7.45213 32.695 12.3941 37.3948C12.7638 37.7463 13.3336 37.7464 13.7047 37.3963C18.6864 32.6973 27.3138 22.065 26.5486 12.5C25.7486 2.5 17.2152 0 13.0486 0ZM13.0488 21C16.9148 21 20.0488 17.866 20.0488 14C20.0488 10.134 16.9148 7 13.0488 7C9.18284 7 6.04883 10.134 6.04883 14C6.04883 17.866 9.18284 21 13.0488 21Z" fill="#003D00"/>
<path d="M20 44.5C20 46.433 16.866 48 13 48C9.13401 48 6 46.433 6 44.5C6 42.567 9.13401 41 13 41C16.866 41 20 42.567 20 44.5Z" fill="#003D00"/>
</svg>
