<svg width="37" height="37" viewBox="0 0 37 37" fill="none" xmlns="http://www.w3.org/2000/svg">
<path d="M25.2563 12.7549H23.5617C23.1931 12.7549 22.8426 12.9319 22.6259 13.2354L16.9458 21.1124L14.3731 17.5425C14.1563 17.2426 13.8094 17.0619 13.4373 17.0619H11.7426C11.5078 17.0619 11.3705 17.3293 11.5078 17.5208L16.0099 23.7646C16.1163 23.913 16.2565 24.034 16.4189 24.1174C16.5814 24.2008 16.7614 24.2444 16.944 24.2444C17.1266 24.2444 17.3066 24.2008 17.469 24.1174C17.6314 24.034 17.7716 23.913 17.878 23.7646L25.4876 13.2138C25.6285 13.0223 25.4912 12.7549 25.2563 12.7549Z" fill="black"/>
<path d="M18.5 2.3125C9.56074 2.3125 2.3125 9.56074 2.3125 18.5C2.3125 27.4393 9.56074 34.6875 18.5 34.6875C27.4393 34.6875 34.6875 27.4393 34.6875 18.5C34.6875 9.56074 27.4393 2.3125 18.5 2.3125ZM18.5 31.9414C11.0783 31.9414 5.05859 25.9217 5.05859 18.5C5.05859 11.0783 11.0783 5.05859 18.5 5.05859C25.9217 5.05859 31.9414 11.0783 31.9414 18.5C31.9414 25.9217 25.9217 31.9414 18.5 31.9414Z" fill="black"/>
</svg>
