<svg id="a78ff266-fa7c-430b-9a88-070b3db3fdc8" data-name="Philippines" xmlns="http://www.w3.org/2000/svg" viewBox="0 0 146.48 106.18"><path id="b6e83e2a-6efd-478c-b142-70ebaa538baf" data-name="Mindanao" d="M47.27,73l-.07.12.19.18.08.12V73.2l-.1-.11h0ZM68,75.63H67.9V75.5l-.08-.21h-.43l-.11.11v.14l.07.13h.26l.08.09v.09h-.11l.1.06.3-.11.29-.11h-.11ZM0,75.34H0v0Zm1,.45H1l.21-.15H1.12Zm.11.69ZM60.4,80.26h0l-.08-.09.1,0L60.36,80h-.15l-.2.26-.08.18-.07.17-.06.11H60l.18-.13v-.07h.1Zm-24.92.65V81l.09.19.19.39.08-.11V81.3l-.14-.13-.06-.11v-.12h0Zm-1.39,1.81.07-.08H34l-.1,0h-.14l-.1.06h-.18v-.37h-.14v.31l.12.17H34Zm-.85.19h0v-.17l-.08-.12h-.08l-.17-.06h-.14l-.1.12h.21v.2l.19.07Zm-.58-.25Zm8.25,1.41H41l.06.08v.08h0v-.16H40.9V84h0v.06L41,84l-.25-.17.07.35.13.2.18.07.06,0v-.15l-.09-.13Zm-12.06.2-.15.09.24-.09.13-.09H29Zm9.74,2.56h-.08V87l.2-.1v-.1h-.09Zm7.75,2.55-.11-.11h-.15v.13h.11l-.06-.05h.08l.1.06.11.25v.2l-.08.08.09.09h0l0-.49ZM43.9,90l.09-.24-.06-.2-.16.19Zm-3.49.65-.26.24h.47V90.7Zm-1.06.29h-.19V91h-.07L39,90.93,39,91l.1.22h.34l.18-.08.11-.09-.11-.1-.12-.06Zm-1.47.5-.25,0,0,.11,0,.09v.08h.05v.06h.1L38,92v-.33L38,91.53Zm2,1.73-.1.08.06.18v.14H40l.05-.11.09-.14L40,93.18Zm-.24.43-.09.09V94h.09v.19h.06v.17h.12v-.24l.06-.13v-.28H40l-.14-.16Zm5.87.27-.2-.14h-.18l.07.09.12.11h.14l.11-.06h-.06ZM44,93.81h-.18l-.07.14h.08v-.07H44l.11.06v-.15l.06-.07h.06v0Zm-4.09,0h0v0Zm2.45.52,0-.08-.23,0v.11l.1.13v.2l.15.13h.08v-.23h0l-.08-.08Zm-2.8.45-.12.07V95h0v.14h0v.05l.1.11.13.1.18-.6v-.18Zm-.3.59h-.12l-.09.08-.18.18-.23.09-.08.11.09.18.12.08L39,96l.18-.07.1-.1.1-.18v-.08l-.06-.19Zm-1.74,1.32-.25.25-.12.08-.06.08h0l.1.13.26.07.14-.08.08-.14.07,0V97l-.1-.08Zm-3.39.49v.07H34l-.09.07v.18l.06.06v.12h-.06v.09l-.07.1.06.06v.19l.1.08h.2l.07-.15v-.39l.1-.06v-.3ZM67.7,67.92v-.19h-.24l-.21.1h-.14l-.22.34v.24h.37l.31-.31-.06-.17h.19ZM46.09,73.54v-.12l0-.17v-.08l0-.1H46l-.23.06-.18.11-.18.15v.2h.19l.19.08h.38Zm2.45,1.73h.1l.12-.06.1-.27-.17-.23h-.14v0l-.12,0-.09.08v.11l.06.07h.12l.06.06h0V75h.06v0l-.1.07-.07.06-.06.07h-.06v-.07h-.06l-.07.12v.12Zm-3.29.45V75.6h0l.06-.09v-.07h0v-.06h0v.39h0v.07l-.06-.09-.06-.14h-.08l-.14.15v.07h-.06v0l-.08.2.18.24h.12l.08-.07.16-.13.11-.19Zm5.43,1.75.14-.12-.24-.27-.18,0h-.08v.08l-.08.16.07.19.12.14h.12l.06-.07v-.08h-.08l.07,0v-.06h-.12l-.09.06v-.06h0v-.06h0v.06h.31l-.09.13Zm-1.09.25.14-.06.1,0-.08-.14H49.6l-.32.21-.17.13L49,78v.15h.12V78l.06-.1h.09l.06,0h.15l.06-.06Zm-8-.15h-.22l-.14.08v.07h-.09l-.07.08v.09h.18v.24l.08.05.14.08v-.09h0l.1-.09v-.22h0V77.8H41.5l0-.07h.16v0h-.05v.07h0V78h0l0,.07h.08l.07-.12.08-.21v-.12h-.1Zm7.63.87.21,0,.13-.16v-.07h-.18V78h-.05v.23h-.11v.06h.08Zm-6.17-.39v.43l.12.12h.11l.17-.15v-.1l-.16-.22ZM33.6,81.91h.22v-.07h0v-.21h-.21l-.16.14v0h-.07Zm-.75.92H33v-.06h-.15v-.06l-.07.08ZM127.43,4.66l-.16-.12-.18-.09-.17-.08h-.1V4.6l.1.09v.09L127,5h.31l-.07-.16.08-.1Zm.23,9.63.16.22H128l.07.15h.11l.21-.06-.14-.1-.22-.19v-.19h-.18v-.25h-.06V13.8h-.08v.37l0,.17ZM131.55,16l-.06-.05-.19-.07h-.15v-.17l.08-.13-.18-.12v.26l-.11.1h-.07l-.09-.07V16l.05.25v.1h.28v.09l.13.13v-.19l.12-.16Zm-1.38,1.09V17h-.27l-.07.08-.08-.06-.07-.08-.16.11v.22l-.06.08h.27V17.3l.08.1v.05h.06v.45l.26.16h.05l-.08-.22h0v-.4l-.07-.08.06-.06Zm.79,47.1-.2-.08h-.24l-.1.1-.09.13v.12l.13.19.08.19.12.16.25.15h.22l.14-.19v-.23l-.08-.23ZM64.89,77.65l-.2-.06-.18.25-.06.19v.09l.06.09.08.06h.13L65,78V77.9Zm0,.87h.37l.14-.12v-.26l-.1-.08h-.14l-.35.22v.13ZM58.13,79.8,58,79.73h-.16l-.31.29-.08.16v.15l.12.08h.57l.13-.12v-.17l-.06-.21Zm4.86.08h-.25l-.09.06h0v-.13h.08v-.07l-.2-.08h-.14l-.1.27V80h.18v.16l-.11.15-.11.1h-.1l-.1.06-.11.13v.08l.16.08.48-.11.06-.17.19-.22.33-.15V80ZM61,81l-.17-.09h-.1l-.27.42.11.25.2.06.18-.17.13-.19v-.12l0-.07ZM51.85,85.8l-.42.17H51.2v.13l.15.13.26.11h.1l.12-.09H52l.1-.12.06-.18-.1-.1Zm-4.34,2.13h-.14l-.42.13-.1.09-.06.27-.15.21v.2l.14.22.21.12h.15l.23-.3.16-.09.12-.25v-.41ZM127.4,89.4l-.08-.09-.17-.13H127l-.06.16v.11h-.09l-.12.13v.14h.22l-.08.06h-.15v.28l-.08.11v.06h0l.08.07.05.1v.26l.07.13H127l.29-.53v-.17l.14-.65ZM44,90.72h.13l.12,0h.05v-.08l-.21-.31L44,90.19h-.13v.08l.14.1h0l.15.18v0H44.1L44,90.53H44v.08h-.06l-.06-.08h-.11v.09l.06.1Zm-5.35,3.81.08-.08h.23l.28-.22v-.31l-.06-.18-.09-.09h-.19l-.08-.12h-.2v-.09h0l.15.13h.13l-.28-.26h-.11l-.11.15-.07.18V94l-.21.39h.09l.09-.06h0l-.08.08v.14h.28l.14.08ZM33,93.59l.06-.12v-.06l-.06.12Zm-9,7.61v.24l-.17.17v.07l-.07.1v.11H24v.32l-.07.16-.08.11v.28l-.06.14V103l.09.07H24l.3-1.7v-.21ZM61.27,69.31l-.13.29-.15.16-.14.08L61,70l.21.25.1.24v.38l.1.14.12-.1.1-.36V69.42l-.21-.26Zm5.9-252.4-.06-.07-.06.11v.17Zm-.33.82-.09.16h.12ZM49.34,84.67l-.21.3v.54l.32.16.25-.2.08-.37-.22-.33Zm-.75,1.41.23-.12H49l-.06-.15-.33-.17-.19,0h-.27l-.44.19-.18.29v.19l.15.06.2,0h.32ZM30.5,96.57h.08l.12-.06.08-.19V96.1l-.06-.19v-.43h-.13l-.26.17-.23.23-.35.59-.05.32.11.13.39-.1.2-.08.07-.11h0Zm.69,3.3.09-.05.13-.13v-.25l-.14-.29L30.91,99l-.1-.15-.19-.08-.19.09v.27l.14.44.38.29Zm-.1.71-.32.07.12.22.25.12h.41l-.07-.16Zm103.52-81.7.35.23v.13h-.24v.12h.37l.11.09-.1.27h.12l.26,0,.15-.1.1-.25V19l-.08-.2.29-.66.07-.36-.19-.15-.25-.15v-1h-.06l-.16.08v-.24l-.09-.12-.3.15-.13.36v.41l.17.27V18l-.06.05h-.06l-.08.12-.14.37v.33ZM66.77,79.81l-.46.2h-.53l-.42-.17-.9-.54h-.29l.13.3.35.38.9.59h.18l.75-.27.43-.23L67,80,67,79.79ZM49.1,88.08l-.29-.25H48.6l-.21.07-.23.13-.18.16-.07.16.07.17.15.22.18.18.13.08.5.16h.3l.19-.36-.08-.31Zm-5.22-12L44.27,75v-.48l-.06-.16-.09-.15L44,74.12h-.16l-.15.12-.11.17-.11.37-.24.38-.06.13v.16l-.11.21-.14.19-.11.08h-.23l-.16.07-.06.12.1.19.19.09.67.09h.24l.17-.08.12-.13Zm-35-13.31-.25-.06H8.41l-.18.09H8l-.31-.07-.26.12L7.28,63l-.07.15v.2l.12.29.16.12.54.06.45.12h.27L9,63.83l-.18-.41v-.18l.29.12.11-.11L9,62.87ZM54.67,83.61l-.16-.18-.21-.16L54,83.16h-.29l-.18.09-.17.15-.12.21v.24l.2.3h.26l.53-.16h.58l.06-.17-.08-.1Zm-29.4,16.78-.06-.32v-.43l-.06-.13L25,99.34l-.18-.14-.2-.06h-.19l.22.48.15.54.1,1.13-.1,1v1l.17-.18.51-1.14.07-.25v-.58l0-.28ZM126.14,90.32l-.23-.08h-.47l-.32.15-.27.37-.14.13V91l.15.12.14.16.21.08.29-.06h.31l.21.06h.12l.08-.16v-.72Zm6.22-26.13v-.37l.11-2.18-.1-.38-.24-.25-.31-.21-.27-.26-.06-.15-.1-.12h-.13l-.16.07-.07.25-.1.86-.12.18-.11.06-.1.14-.07.19v.38l.06.06h.1l.34.15h.14l.09.07.07.63.06.18.22.44.12.72.14.33.23.31.16.08.12-.4.1-.19.07-.19v-.15ZM84.53,57l-.17-.26-.3-.29-.35-.25-.31-.12-.18.1,0,.2v.22l-.11.17h-.27l-.21-.2-.2-.26-.25-.13-.42.23-.17.57v.64l.1.43.14.27.14.17.18.06h.25l.06-.06.09-.22.08-.07h.48l.2-.1.51-.38h.33l.12-.11v-.3l-.1-.28.12.06ZM65.85-177.83,65.7-178h-.17l-.16.13-.15.2M130.27,14.22l.26.2.35.06.26-.11.13-.23v-.3l-.21-.25-.28-.27-.15-.28.2-.28-.14-.69-.05-.12.11-.1.13-.23.11-.27.06-.22v-.21l-.1-.21-.28-.34-.09-.24V9.84l.13-.47-.29.05-.21-.12V9.12l.06-.13-.12-.12.17-.26-.13-.23-.24-.2L129.81,8V7.8l.12-.07h.2l.06-.15.06-.44L130.57,6V5.35l-.22-.57-.25-.4L130,4.29h-.2l-.14.11-.09.18-.12.42v.66l-.08.17-.07.16H129l-.1-.2h-.31l-.11.13V6l.06.08v.53l-.08.1h-.21l-.39.11v.26l.14.31-.07.26.08.08v.06h.09l-.2.21v.22l.11.24.06.26-.11-.11-.11-.06h-.12l-.13.06.09.28v.37l-.15.31-.26.12v.7l.24.09v.43l.13.18h.25l.17-.14.12-.17.11-.08h.18l.15.07h.11l.08-.21h.12l.08.16.22.28v.3l-.1,0-.12-.07-.08-.14-.19.37v.42l.16.29h.41v.11l-.08.09v.08l.06.08.14.09h-.23l.18.2.47.14.16.14.06.31v.29Zm5.39.85h.13l.1.06v.35l.43.59.25.26.25.2-.12-.35h.22l.66.25h.63l.14-.08.28-.23L139,16v-.24l-.1-.27-.14-.2-.21-.22-.18-.14-.22-.08h-.32l.12-.17.26-.24.08-.18V14l-.19-.93-.78-1.71-.16-.06-.32.23-.12.18v.46l-.07.16-1,1.66-.06.24.16.19.24.14.19.08-.17.17-.2.08h-.45l.12.15ZM73,69.82l-.15-.08-.44-.13-.18-.08-.09-.08-.08-.1-.1-.1-.18-.08-.76-.1-.2-.07-.13-.16-.08-.16-.06-.07h-.2l-.42-.1-.18-.08-.13-.1-.24-.24-.13-.1h-.88l-.17.11-.26.3-.67.29-.17.25L67,69l-1.72.14-.29.14-.19.27-.07.44.13.45.31.13h.39l.33.14L66,71v.9l1.19,1,.07.13v.5h.08l.55-.09h.74l.32-.06L70,73l.38-.08h.39l.38-.11.16-.28.1-.77.08-.27.12-.26.15-.24.18-.22.31-.18H73l.36-.11.23-.25-.1-.18ZM38.27,93l-.13-.12H38l-.14.06h-.12l-.06-.12v-1l-.09-.13h-.17l-.18.08-.32.22-.39.14-.21.11-.16.2-.46.26-.07.13-.08.32v.08l-.17.07h-.12l-.12,0H35l-.28.29-.13,0H34.4l-.4.16-.53.08-.14.13-.24.42-.59.35h-.1l-.11.1-.52.25-.6.2-.13.07-.16.14.11.27v.79l.18.18h.14l.15-.09.23-.09h.53l.14-.07.24-.31.14-.1h.2l.15.12h.18l.28-.21.11-.52.06-.13h.42l.15-.21,0-.11.13-.14h.35l.18.06.24.1.26.06.25-.1.13-.24v-.55l.18-.25.06.17.1.19.13.16.13.07h.4v-.2l0-.12H37l.12.13v.24l-.11.5v.28l.11.17.18.11.25.08.17-.24.09-.35.09-.67.26-1Zm77.4-66.59-.17-.29-.15-.12-.2-.07-.16-.18-.28-.43-.65-.19-.6.13-.45.4-.17.63.17.57.43.4,1,.5h.42l.1.23h.28l.14-.06.23-.23v-.56l.13-.48ZM57.83,80.59l-.37-.11H56.34l-.77-.34-.32.16-.28.23-.31.08-.26-.24L54,79.52l-.34-.19h-.19l-.38-.23L52.91,79h-1.4l-.14.11-.39.53-.15.08h-.38l-.47.32-.64.27-.28.27-.21.34-.08.3.08.31.26.39.08.06.22,0,.1.06v.28l.09.08.19.06H50l.35-.17.61-.4.15-.07.71.13.08.07.22.31.1.09h.13l.13,0,.33-.21,1.38-.63h.66l.42.44v.52l.14.23.16.14.18.08h.19l.18-.11.47-.51.16-.13.12,0,.65-.09h.07v-.29l.06-.22h.31l.16-.09.16-.36-.12-.3Zm88.55-21.73-.56-.31-.14-.1.2-.32v-.81l.13-.38-.39-.29-.06-.06.06-.26.14-.12.19-.07.19-.13.2-.35v-.33l-.07-.34-.14-.81-.33-.84-.07-.39v-.83l.07-.38.12-.38-.35-.14-.87-.09-.41-.24-.41-.59-.07-.18-.07-.09-.5-.3-.33-.31-.25-.43-.14-.47v-.44l.2-.38.67-.48.31-.31-.32-.44V45.8l.19-.61L144,45l-.19-.33v-.25l.06-.26.1-1.45-.06-.18-.61.5-.51.17-.27.16-.27.08-.26-.14-.13-.32.12-.29.54-.62.19-.43-.15-.16h-.25l-.13-.12-.23-.45-.06-.09-.12-.07.13-.14.2-.12h.08l.39-.54.13-.34-.07-.29-.23.08-.06-.08.06-.4.07-.16h.64l-.08-.07-.08-.1h-.07l.12-.23-.07-.16-.34-.26-.13-.23-.06-.13h-.19l-.05,0h0L141,37.41l-.39-.19-.19.15h-.22l-.22-.09h-.19l-.11.13.11.13.34.22-.2.1h-.15l-.34-.1h-.7l-.18-.22-.31-.78-.34-.36.14-.4.34-.4.6-.26.41-.32.2-.08h.55l.21.08V35h.07v-.11l-.33-.2L140,34.5V34h.1l.64-.43.38-.13.28-.34.21-.43.12-.4h0l.08-.13V32l-.22-.13V31.7l.07-.25-.21-.65v-.22l-.16-.35L140.09,29,140,28.8l-.18-.42-.1-.14-.16-.06h-.22l-.19-.07-.08-.2.11-.78v-.57l.13-.76.12-.42.32-.54.09-.32-.08-.25h-.34l-.36.19-.61.61-.57.18-.36.17h-.4l-.12-.07-.79-.82-.25-.53-.08-.57v-.68l-.46.23h-.48l-.21-.07-.17-.11-.1-.16v-.23l.15-.15.48-.12.19-.09.13-.13.07-.12v-.45h-.12v.14l-.19.33-.06-.17-.15-.21v-.15l-.08-.15h-.56l-.57-.51-.32-.18-1-.14-.17-.06-.14-.1-.32-.37h-.7l-.12-.15-.12-.08h-.22l0-.07V19.3l-.37.06-.47-.19-.4-.31-.17-.31-.1-.44-.2-.5-.13-.49.08-.41h-.35l-.49-.25-.57-.15-.32-.22-.29-.27-.2-.24-.06.17-.83,1.36-.12.28V18l.63,2.32v.51l.37,1,.07.35v.6l.07.1.08.13.11.5.32.54.11.44.15.33,0,.16v.61l.09.21.12.16.11.19v2.1l-.1.6-.13.39-.17.18-.92.52-.36.08h-.36l-.73-.17-1.11-.05-.39-.1-.33-.26-.5-.67-.22-.41-.14-.16h-.16l-.16.14-.09.1V29l-.16.34v.37l.07.11.08.09.06.1.07.33-.13,1.45-.19.26-.29.16-.37.13-.37.22h-.16l-.22-.18-.35-.56-.26-.16-.39-.51-.13-.11L118,30.31l-.15-.13-.11-.22-.28-.19-.34-.15-.32-.08h-.57l-.2-.12-.19-.06-.2.09-.17.16-.14.16-.06.22v.37l.12.77v1.46l-.12.76v.37l.13.33-.19.28-.24.2-.2.23-.08.37.09.35.34.59v.33l-.07.17-.21.29-.07.13v.17l-.07.52v.06l0,.08V38h-.06l-.23.06h-.06l-.28.23-.07.11-.5-.15-.34.1-.21.3-.13.45h-.11v-.38l.08-.37L113,38l.15-.32h-1l-.3-.08-.19-.13-.52-.57-.26-.16-.14-.06h-.12l-.4-.09h-.09l-.08-.27v-.27l-.1-.18h-.43l-.67.27-.59.46-.49.55-.35.58-.27.7-.07.36v.63l-.06.18-.15.36,0,.08-.12.09,0,.07v.34l-.14.27-.07.16v.22l.07.17.12.18.07.18-.07.17-.21.26-.26.52-.17.21-.57.28-.73.11h-2l-.61.14-.53.23-.41.3-.4.46-.24.17-.36.07-.22.07L97.63,46.5l-.62.34L97,46.9l-.21.14-.21.09-.1-.1v-.2l.08-.33v-.17l.12-.45.3-.15h.74l.37-.18,1.8-1.61.16-.19v-.36l-.26-1-.06-2.07-.14-.77-.22-.73L99,38.23l-.71-.87-.09-.24-.07-.1L98,36.48h0l-.13-.31h-.08l-.14.13h-.12L97.35,36l-.14-.15L97,35.78l-1.38-.3.07-.3h-.28l-.23.13.21.21-.26.32L95,36v.54l-.17.17-.16-.38-.07-.09-.11-.06L94.27,36l-.1-.06h-.3l-.13-.42v-.89l-.22.1h-.2l-.18-.06-.27-.21-.43-.25h-.17l-.11-.07h-.23l-.24.06-.12.06v.17l.14.2.54.63.08.2-.15.09-.21.18-.08.05h-.22l-.09-.06h-.1l-.26.07-.13.17-.24.8,0,.12-.26.4-.22.22-.3.16-1,.09h-.17l-.11-.08-.17-.23-.07-.06h-.23l-.59.2-1.33.2-.25.08-.21.17-.23.25-.19.27-.08.21-.08.31-.38.5-.12.3v.2l.09.36v.37l-.08.12-.08.09v.08h-.07l-.31.19-.09.09v.1l.07.37v.11l.63.41.22.3-.2.4-1,.8-.35.2-.18.06h-.78l-.22.16-1.64.28h-.4L80,44.48l-.32-.2-.13-.38-.08-.17-.2.24-.3.58-.19.13-.66.27-1.32.28-.3.14-.12-.11h-.11l-.12.08-.07.14-.27-.15-.42.08-1.33.44-.63.38-.51.14-.5.35-.19.17-.21.25-.42.76-1.46,1.81-.41.76-.14.44.14.2.22.17.09.39v.74l-.18.62v.3l.55.24-.15.27-.29.28-.21.16-.3.17-.22.16-.13.24v.56l-.22.3-.09.18v.72l-.21.76v.44l.18.19.14.06v.29l-.07.11-.14.09-.57.27-1.22,1-.64,1.32v1.42l.65,1.33.41.35,1.3.7.84.3H70l.09-.06.17-.24.35-.24.22-.42.59-1.53.7-1,.1-.32v-.79l.24-1.44.24-.77.34-.45.2-.05h.37l.2-.14.32-.51.15-.18.11-.32-.18-.32L74,56.17l-.1-.37.19-.34.79-.46.17-.18.06-.17.15-.22.19-.15h.2v.11l-.13.59.18-.14.22-.26.2-.29.11-.24v-.42H76l-.34.09-.31-.07v-.21l.17-.3.71-1,.44-.49,1.45-1.12.37-.22h.21l.34-.17h.91l.18.12.27.35.14.11.71-.1h.4l.18.26v.3l-.08.36-.12.34-.14.23.11.29.13,1.05.08.27.18.21.13.25v.38l-.33-.17h-.2l-.08.22V55h0l-.06.05v.19h.26l.11.07.06.14-.1.21.25.11h.5l.19-.08.24-.18V55l.09-.18.18-.24.22-.2.21-.07.17.16.26.66.14.23.39.1h0l.17.06.09.1.1.05.19-.09.1-.17v-.77l.12-.24.27-.38.09-.31v-.47l.23-.15L86,53V52.8L86,52.62v-.17l.11-.2.47-.48.39-.63.18-.16.19.14.07.32v.47l.09.43.22.19.37.12.2.3v.34l-.17.29-.3.12h-.3l-.24.12-.09.38.09.32.22.31.51.46.22.09h.27l.23-.12.09-.24.13-.21.31-.15h.35l.27.11.07.12v.52l.06.09.25.17.14.28.5.53.23.17.54.26.54.39.2.06.18-.07.17-.26.11-.36v-.39l-.12-.36-.27-.27-.31-.18-.26-.23-.1-.42-.17-.27-.34-.34L91,53.87l.15-.29h.16l.36.21h.06v-.58l.07-.13L92,53l.61-.11.18-.1.19-.14.18-.16.14-.17.21-.77L93.11,51l-.47-.46L92.58,50l.21-.17.39-.19.43-.15.3-.07L95,49.34l.38.07.83.31h.39l.4.1.34.24.92,1.22.28.22.41.09h.76l.39.06.29.13.13-.12.82.43.92.67h.13l.75.52.51.71.8,1.7.19.28.16.09.22.41.2.09.53-.09H106l.25.18-.36.66-.08.33v1.13l-.11.16-.31.29-.19.46-.28.31-.64.52-.65.42-.38.19-.29.08-.37.37-.7,1.69-.23.86v1.95l-.1.31v.19l.06.14.1.15.12.12H102v.07h0l.1-.07.19-.27h0l.34.15,0,.35-.1.8.31,1.06v2l-.07.07h-.25l-.07.09v.2l.11.35v.36l.21.87.29.61.45.63,1.13,1.19.2.28.22.64.21.32.46.42.29.18,3,1.3,2.37,1.37.3.06.12.06.07.13v.16l.07.11.16.11.53.24.11-.12,1.1.66.42.15h.6l.73.33.45.11,1.73.82.42.09.65-.22.81.18H120l.34-.39,1-2.81.15-.25.06-.16v-.58l.18-.06.18.09.2.2h1l.16.15v.21l.23.62.07.28v.68l-.24.5-.65.79-.28.45-.12.28v.26l-.08.26-.15.26-.06.27.17.33.13.06.2.06.18.1.08.17v.17l.08.17.1.14.09.06h.37l.24.1.16.18.12.25L124,86v1.34l.1.22.25.07h1.1l.26-.12.32-.3.25-.33L127.36,85,129,82.7l1.23-1.5.31-.72.11-.49.06-.14.05-.18-.11-.35.06-.17.18-.31.07-.37v-.35l-.06-.3-.82-2.22-.15-.21-.06-.12v-.76l-.06-.14-.19-.23-.48-1-.07-.25v-.66l-.11-.29-.28-.3-.35-.13-.32.2-.45-.45-.74-.94-.55-.36v.47l-.22.1-.28-.11-.14-.16-.05-.33-.23-.67,0-.29v-.8l.14-.8.25-.74L126,66l.77-.93.19-.16.07-.37.05-.75.38-.63.54-.25.57-.14.48-.27.61-.58.09-.18v-.15l.15-.2.06-.16v-.35l-.1-1.11.06-.37.19-.34.34-.3,1-.57,1-.74.31-.08.34.09.13.24V58l-.06.38v.68l.69,1.65.12.7.08.25.21.28,1,1,.19.37v.34l-.15.79.11.31.66.93.33.19.43.13.2.09.06.2v.82l.18.6v.38l-.21,1.06v.4l.21,2.13.09.35.22.27.42.79v.61l.07.16.58.4v.19l.08.86.06.24.25.06.1-.27.07-1.55.28-1.34V70l.26-1.49.22-.7v-.37l-.17-.17-.32-.22-.3-.27-.26-.61-.24-.33-.18-.36.07-.36.19.25v.1h.46v-.71l.36-.15.5.25.44.49.39,1.1.3.47.52.2.13-.14V66.3l-.07-.26-.15-.16-.46-.39-.1-.2v-.43l.11-.52.25-.5.43-.37.49.22.67.12.58-.06.25-.33v-.61l.13-.47.25-.38.54-.51.11-.17.35-.92.09-.15.13-.08h.28l.06-.13.09-.31.41-.53.09-.33Z"/></svg>