<svg width="240" height="240" viewBox="0 0 240 240" fill="none" xmlns="http://www.w3.org/2000/svg">
<path d="M99.3109 87.6363C99.381 81.9172 101.72 76.4603 105.814 72.4658C109.907 68.4714 115.42 66.2667 121.139 66.3368C126.858 66.4069 132.315 68.746 136.309 72.8395C140.304 76.933 142.508 82.4457 142.438 88.1647C142.368 93.8838 140.029 99.3408 135.936 103.335C131.842 107.33 126.329 109.534 120.61 109.464C114.891 109.394 109.434 107.055 105.44 102.962C101.446 98.868 99.2408 93.3554 99.3109 87.6363ZM120.974 79.2713C119.841 79.2578 118.717 79.4676 117.665 79.8886C116.614 80.3097 115.655 80.9338 114.845 81.7253C114.034 82.5167 113.387 83.4601 112.941 84.5015C112.495 85.5429 112.259 86.662 112.245 87.7948C112.232 88.9276 112.442 90.0519 112.863 91.1037C113.284 92.1554 113.908 93.1139 114.699 93.9244C115.491 94.735 116.434 95.3817 117.476 95.8277C118.517 96.2736 119.636 96.5101 120.769 96.5236C123.03 96.512 125.197 95.6126 126.802 94.0192C128.407 92.4257 129.321 90.2657 129.349 88.0044C129.377 85.743 128.515 83.5612 126.95 81.9289C125.385 80.2967 123.241 79.3445 120.98 79.2775L120.974 79.2713Z" fill="#FDCB00"/>
<path d="M110.679 17.2645C114.105 15.5164 117.904 14.6275 121.75 14.6747C125.596 14.7218 129.373 15.7034 132.755 17.535L138.038 20.3932C147.367 25.4459 155.138 32.9518 160.512 42.0999C165.885 51.2481 168.657 61.6907 168.527 72.2994L168.378 84.4717C175.545 85.5945 182.068 89.2633 186.75 94.8054C191.432 100.348 193.959 107.392 193.869 114.646L193.683 129.794C193.661 131.508 192.96 133.144 191.733 134.341C190.506 135.538 188.854 136.199 187.14 136.179L167.747 135.942L167.721 138.1C167.696 140.083 167.282 142.041 166.501 143.863C165.72 145.684 164.588 147.335 163.169 148.719C161.75 150.104 160.073 151.195 158.232 151.931C156.392 152.667 154.424 153.033 152.442 153.009L146.502 152.936L149.869 166.402C150.109 167.362 150.126 168.364 149.919 169.332C149.711 170.299 149.284 171.207 148.67 171.983C148.057 172.76 147.274 173.385 146.38 173.812C145.487 174.238 144.508 174.454 143.519 174.442L96.0796 173.867C95.0957 173.854 94.1277 173.618 93.2492 173.175C92.3706 172.732 91.6047 172.094 91.0097 171.311C90.4147 170.527 90.0063 169.618 89.8156 168.653C89.6249 167.687 89.6569 166.691 89.9091 165.74L93.459 152.286L87.7266 152.216C85.7445 152.192 83.7865 151.777 81.9646 150.996C80.1426 150.216 78.4923 149.083 77.1079 147.665C75.7235 146.246 74.6321 144.568 73.8961 142.728C73.1601 140.887 72.7938 138.92 72.8182 136.938L72.8451 134.742L53.44 134.517C52.5902 134.507 51.7508 134.329 50.9696 133.994C50.1885 133.66 49.4809 133.174 48.8874 132.566C48.2939 131.958 47.826 131.239 47.5106 130.449C47.1951 129.66 47.0383 128.817 47.0489 127.967L47.2347 112.807C47.3242 105.551 50.0258 98.5704 54.8443 93.1448C59.6628 87.7192 66.2753 84.212 73.4697 83.2661L73.6245 71.1244C73.7543 60.5202 76.7781 50.1529 82.3695 41.1417C87.9608 32.1305 95.9073 24.8177 105.351 19.9927L110.679 17.2645ZM126.601 28.914C125.064 28.0809 123.346 27.6344 121.598 27.613C119.849 27.5915 118.121 27.9959 116.564 28.791L111.242 31.5132C103.894 35.2642 97.7112 40.9513 93.36 47.9602C89.0088 54.9692 86.6551 63.0337 86.553 71.2828L85.7527 137.102C85.7466 137.673 85.9669 138.223 86.3655 138.631C86.7641 139.04 87.3083 139.273 87.879 139.281L152.607 140.074C153.177 140.081 153.727 139.86 154.136 139.462C154.544 139.063 154.778 138.519 154.786 137.948L155.598 72.141C155.697 63.8906 153.54 55.77 149.36 48.6564C145.179 41.5428 139.135 35.7066 131.879 31.7783L126.601 28.914Z" fill="#FDCB00"/>
<path d="M126.049 193.67C126.042 191.974 125.368 190.348 124.173 189.144C122.979 187.94 121.359 187.253 119.663 187.232C117.967 187.21 116.33 187.855 115.106 189.029C113.881 190.202 113.166 191.81 113.115 193.505L112.739 223.698C112.748 225.394 113.424 227.019 114.619 228.222C115.815 229.425 117.435 230.11 119.131 230.13C120.827 230.15 122.463 229.503 123.687 228.329C124.911 227.154 125.624 225.546 125.674 223.85L126.049 193.67Z" fill="#FDCB00"/>
<path d="M95.9404 186.837C97.6545 186.859 99.2898 187.561 100.487 188.788C101.684 190.015 102.345 191.667 102.325 193.381L102.167 206.309C102.172 207.168 102.006 208.02 101.678 208.813C101.35 209.607 100.868 210.328 100.258 210.934C99.6491 211.539 98.9254 212.017 98.1294 212.34C97.3334 212.663 96.4811 212.824 95.6222 212.814C94.7633 212.804 93.9151 212.623 93.1269 212.281C92.3387 211.94 91.6265 211.445 91.0317 210.825C90.4369 210.205 89.9714 209.473 89.6625 208.672C89.3536 207.87 89.2074 207.015 89.2324 206.157L89.3908 193.228C89.401 192.379 89.5785 191.539 89.9131 190.758C90.2478 189.977 90.7332 189.269 91.3414 188.676C91.9497 188.082 92.6689 187.614 93.458 187.299C94.2471 186.984 95.0907 186.827 95.9404 186.837Z" fill="#FDCB00"/>
<path d="M149.756 193.988C149.797 193.12 149.663 192.253 149.362 191.438C149.061 190.623 148.599 189.878 148.003 189.245C147.407 188.613 146.69 188.107 145.895 187.758C145.1 187.408 144.242 187.223 143.373 187.212C142.505 187.202 141.643 187.366 140.839 187.696C140.035 188.025 139.306 188.514 138.695 189.131C138.085 189.749 137.604 190.483 137.283 191.29C136.962 192.097 136.807 192.961 136.827 193.83L136.663 206.74C136.701 208.415 137.389 210.011 138.58 211.189C139.772 212.368 141.375 213.038 143.051 213.059C144.727 213.079 146.345 212.449 147.565 211.299C148.785 210.15 149.512 208.572 149.591 206.898L149.762 193.982L149.756 193.988Z" fill="#FDCB00"/>
</svg>
