<svg width="562" height="585" viewBox="0 0 562 585" fill="none" xmlns="http://www.w3.org/2000/svg">
<path d="M487.179 0.413818C528.043 0.413818 561.478 34.3513 561.478 75.8305L561.478 509.476C561.478 550.956 528.043 584.893 487.179 584.893L78.5377 584.893C37.6736 584.893 4.23925 550.956 4.23925 509.476L0.605469 390.885C0.605469 379.703 3.58735 371.13 17.0058 383.057C38.2517 394.612 58.1056 396.351 76.6802 396.351C134.262 396.351 180.698 341.674 167.696 281.341C160.266 245.518 130.547 217.237 93.3974 209.695C69.2504 204.039 40.4881 202.654 17.0058 216.445C6.8513 222.408 0.605469 218.088 0.605469 204.89L2.38178 75.8305C2.38178 34.3513 35.8161 0.413818 76.6802 0.413818L188.128 0.413818L375.732 0.413818L487.179 0.413818Z" fill="#003D00"/>
</svg>
