<svg id="Philippines" xmlns="http://www.w3.org/2000/svg" viewBox="0 0 78.36 63.01"><defs><style>.cls-1{fill:#003d00;}</style></defs><title>Visayas</title><path style="fill: inherit" id="Visayas"  strokeWidth='0' class="cls-1" d="M362.44,288.2l0-.05V288l-.19-.1-.16.14.2.33.26.41,0,.12h.14l0-.08.07-.06,0,0v-.08l-.07,0v0h-.08l-.07,0v0l-.09-.08,0-.09.06-.17ZM404.21,276l-.09,0H404l-.27-.18-.09,0,0,.14.09.11v.1l0,.24.08.1.26.3.07,0,.1-.06,0-.13,0-.14-.06-.25-.09-.14h0v0Zm-.37,1.51,0,.07.06.11.13,0,0-.1.1.19.09.06.14-.21-.11-.19-.11-.16-.17-.12h-.16l0,.08,0,0,0,.08Zm2.2.72.15.3.26-.2-.11-.12,0-.1,0,0-.08-.09-.16-.18-.17,0-.06.17.14.19Zm-1.37-.05,0,.1-.05,0-.15,0-.43.2h-.18l-.08,0-.78-.6-.13-.06-.2.05-.17.16-.12.21,0,.2,0,.24,1.12,2.55.83,2.84.28.48.41.23,0,.08h0l0,0,.37.34.8,1,.8.55.49.26.53-.07.67.16.68.27.84.89.09.17.05.26,0,.46.15-.11h.13l.11.07.09.15-.26.17.15.15.3,0,.28-.3h.25l.24.17.07.35-.09-.09-.09-.05-.09,0-.08-.05-.24.48.07,0,.17.08h-.24v.12l.67.22,1,1.45.61.35.3-.09.7-.4.29-.09.38.08.3.23.17.34,0,.41-.28-.15-.09-.08L415,293l-.37.4-.09.23.05.25.09.26v.27l-.13.24-.25.31-.28.27-.21.12h-1l.23.27-.07.09-.23,0-.28.08-.18.14-.12.17-.15.16-.27.12.14.26.15.21.19.15.24.09.3,0,.15-.08.26-.55.1.26.15.23.2.19.23.16.11,0,.24,0,.12,0,.33.29.13.07-.07.11,0,.1,0,.11v.14l-.14,1.39.15.49.7.13.77-.05.77.06.67.29.45.65.17.73.1.92.08.23.11.21.13.13.24.1.09,0,0-.13.2-.29.08-.16.09-.13.51-.2.19,0,.08.13.09.08.61.09.18.1.4.37.15-.22h.18l.13.17v.28l.26-.12.18-.16.32-.37.22,0,.31.22.46.42.06-.21.08-.62,0-.13.2-.05.12-.09.11,0,.2.09.1.15,0,.19.07.16.2.07.17-.06.58-.35.12-.12.26.13.24.2.08.08.25.13.1,0,0,.08v.4l0,0,0,0,.15.58.16.11.4.21.14.13.32-.51-.33-.56-.53-.56-.28-.54-.09-.5-.23-.26-.32-.18-.78-.57-.23,0v.26l.25.32-.54.19-.46-.06-.28-.33v-.62l.19-.34,1-.78.13-.22.05-.27v-.45l-.1,0-.21-.19-.18-.21,0-.1-.21-.06-.3-.25-.17-.06-.13-.08-.07-.2-.09-.42-.15,0h-.1l-.09,0-.14,0,.18-.26v-.27l-.11-.27-.37-.55-.07-.16-.07-.26V295l-.05-.12-.12-.08h-.11l-.1,0-.08-.16,0-.24.13-.22,0-.16-.22-.09.17-.28.22,0,.16-.09,0-.44-.16-.64-.16-.33-.2,0-.34.14,0-.3.16-.31.45.17.11-.08.06-.16-.05-.17-.43-.4-.1-.12,0-.18,0-.53-.22-.5,0-.1,0-.38,0-.34.1-.29.31-.39.21-.38.14-.18.58-.47v-.19l-.16-.24-.22-.22-.15-.12,0-.06,0-.12,0-.06-.56,0-.18-.09,0-.32.13-.16.21-.09.47-.11-.1-.13-.1-.09-.12-.07-.15-.06L423,285l.4-.07.13-.1.28.14v-.19l-.18-.48-.38-.46-.09-.19-.25,0-.6-.46-.31-.16-.65,0-.17-.08.1-.33-.34.26-.17.07-.19-.08.08-.11v-.21l0-.17-.19.07-.52.3.06-.3.07-.1.11-.07L420,282l.09-.43.3-.39.32-.18-.27-.23-.12-.15-.19-.45-.14-.19-.37-.21-.19-.2,0-.3-.41-.35-.84-.53-.41-.41-.14-.07-.15,0-.17.07-.16,0-.48-.15-.16.08-.06.36-.08.11-.17.13-.2.11-.13.06h-.21l-.13,0-.09-.06-.1,0,0-.09-.31-.19-.36-.15-.17,0-.11-.27L414,278l-.29.18-.23.1-.15-.09-.18-.2-.23-.2-.31-.1v.13l.06.2.16.15.1.16-.15.24-.17.12-.15.05-3.21.25-1.41-.12-.37-.08-.39,0-.08,0-.1.06-.08,0,0-.07,0,0-.19-.12-.07,0-1.07,0-.14,0,.09,0,0,0v-.08l0-.12-.15-.06-.09,0-.08-.05L405,278l-.08-.1-.13.1Zm-5.32,5.25.21-.46-.27-.1-.08.18.1,0,0,.15v.17Zm-13.06,11.82,0,0,.21-.2.14-.08.05.07,0,0,0-.17-.06-.09,0,.09h-.16l-.27,0-.11.15.14.11v.17Zm9.47,3.88-.13.38,0,.35.07.38.23-.13,0-.36.09-.14v-.21l0-.35Zm-12.56,1.48,0,.2.06,0,.12-.18,0,0v0l0,.07h.07l0-.23.13-.1v-.07l.09,0,.06-.12.06,0L384,300l-.12-.11,0-.06-.1.07-.12,0-.1-.17h-.12l-.05,0,0,.1v.1l0,.15,0,.1-.13.23Zm42.12,4.87.19.11.28-.13,0-.29-.45-.16-.26.05,0,.14v.07Zm5.61,3.92.16.1h0l0-.27-.31-.2-.06.13.09.11Zm-55.6,5.34.09,0,.13-.11.1,0h.23l.07,0v-.1l0-.08-.09-.06-.33-.16-.2.17,0,.11v.13Zm23.22,3.51.09-.06v-.06l0-.16,0-.12.1-.11,0-.13.05-.15-.09-.09-.18.08-.07,0h-.06l-.05.06.08.08-.11.09-.05.06-.05.08,0,0h-.05l-.19,0-.1.12v.12l.12-.14.15-.07.16.05,0,.08Zm3.08.61h-.11l-.08.06h-.21L401,319l.1.18.13,0h0v.14l.11,0,.21-.08.3-.19.1-.13h0l.09,0,.08-.08,0-.09-.16,0-.19,0h0Zm14.25,5.25.06,0,0-.26,0-.21v-.1l0-.16-.1-.2,0-.16h-.17l.07.21.05.13.09.27v.21l-.07.09Zm-.46-47.4.13.12,0,.12-.1.09-.1,0,0,.08.12.17.17.08.41.05.12,0,0-.13,0-.09-.11,0-.08-.23,0-.28-.17-.56-.14,0-.19,0-.12,0-.08.13,0,.11,0,.06,0,.07v.11l.12.08Zm-.63,1.22.09.1.1,0,.21.21.11,0,.2,0,.16-.09.1-.11,0-.09-.1-.2-.13-.05h-.27l-.33-.2-.08-.1v-.2l0-.16-.19-.19-.17-.06,0,.4Zm-12.59,2.35-.16-.21-.17-.13-.09.13v.18l.16.69.23.5.2.14.1-.17v-.26l0-.26Zm2.74,7.82-.16-.06-.18.08-.05.23,0,.14.15.08h.12l.06,0,.1-.06.08-.15v-.14Zm-48.52.73-.18-.2-.13-.08h-.06l-.18.07v.19l.08.23-.14.44v.11l.08.13.14.1.34-.07.18-.1,0-.26-.09-.25V289Zm46.91-.23-.21,0-.09.05h-.1l-.17.22,0,.07,0,0-.21.13-.05.07v.08l-.06.06.06.06.1.19.11,0,.05,0,.15,0,.16-.13.07-.18.3-.41,0-.13,0-.09Zm1.46.83,0,.17,0,.14.12.07.37.13.16,0,.14-.12,0-.38-.08-.21-.06-.06-.11,0-.2,0-.2.16ZM403,291.08l-.17.1-.17.17,0,.2.15.24.18.14.24.08.19-.09.17-.24,0-.34-.17-.23-.21,0Zm9.84,2.54,0-.14-.09-.09-.15,0-.15,0-.11-.14-.11,0-.12,0-.22-.09-.05,0,0-.07,0-.1-.05-.08-.05,0,0,.23,0,.16.22.3,0,.08v.11l.07.18,0,.24.08,0h.1l.12,0,.09.09,0,.07.26-.09,0-.07v-.14l-.1-.27.3-.21Zm-28.27,2.63,0,0v.06l-.06.11,0,0-.09-.06h-.19l-.11.15,0,.13-.27.08,0,.08,0,.13.12.05H384l.06.08.16.09.31-.1.14-.17v-.21Zm22.18,12.29-.61.72v.33l.38,0,.37-.26.1-.15.09-.14,0-.08v-.11l0-.13.11-.15,0-.18-.15-.05ZM400.45,280l-.3-.22-.15,0v.2l.07.38.2.4.33.29.23-.15-.09-.45Zm-45.07,10.37-.62-.19-.36,0h-.17l-.29.12-.17.2-.05.16.09,0,.14-.08.08,0,.07.08.08,0h.09l.18.08.29.07h.38l.38-.17.14-.15Zm45.15-3.79-.21.18-.12.21.07.16.24.1.24,0,.35-.22.18-.14.34,0,0-.17-.37-.13-.41,0Zm11,7.26-.24-.11,0-.1,0-.12,0-.1-.06-.08-.08-.07-.57-.35-.18-.19,0,0h-.11l-.17.35v.14l.11.17.07.16,0,.22.08.19.15.08.22.08.22.2.17.27,0,.28-.12-.07-.12,0,.24.6.24-.21.11.09,0,.18,0,.06.4.47.13-.07.12-.15.06-.2v-.41l0-.18.06-.18-.29,0-.18-.09-.11-.14-.11-.19,0-.24Zm16.11,15.75-.28-.3-.22-.85-.37-.17-.37.21-.14.45.09.45.31.2.63.29.17.12.19.2.14.09.17,0h.32l.26,0,.23-.12.08-.19-.16-.25-.23-.1-.55,0Zm-33.53-7.88-.48-1.37-.1-.19-.15-.05-.22.15-.29.34-.12.2-.07.19.07.4.42,1.09.21.27.07,0,1.1-.11.05-.12-.11-.18-.18-.24Zm-41.3-14.56.06.27.13.28.21.18.3,0,.21-.2,0-.27-.06-.29-.11-.26L353,286l-.15-.07v0l0,.13-.09.18.05.11.1.11.05.18-.1.35ZM408,319.92v-.12l-.23,0-.11.05-.11.09-.22.16-.16,0h-.1l-.08.08-.08.1-.11,0-.14,0-.1.09,0,.23,0,.19V321l.07.18.19.13.16-.14.19-.29.25-.08.23.07.14-.13,0-.25v-.26ZM393.46,330l.26.07.34,0,.33-.13.67-.49.31-.34.1-.2-.13-.17-.32-.21-.35,0-.66.28-.27.16-.2.15-.11.11-.15.09-.21.05,0,.07.2.13Zm10.2-36.54.1.15.37.44.07.16.1.38.46,1.17.2.3.58.6,0,.08,0,.11.05.11.09.06h.12l.06-.09,0-.15h.36l.43.11,1,0,.29-.09.12-.2.15-.59-.06-.37-.37-.16-.13-.19-.42-.88-.19-.6-.25-.26-.31-.19-.3-.12-.16,0-.46,0-.64,0-.22,0-.84.26Zm13.41,27.41.14.28.33.25.58.35.64,1.05.41.48.06.14,0,.13,0,.11.11.09.19,0,.1-.09.09-.12.15-.06,0-.08-.19-.57-.09-.36-.22-.3-.24-.25-.16-.22-.24-1.17-.17-.3-.22-.15-.7-.27-.29-.26-.16-.09h-.2l-.22.24,0,.38Zm-11.93-10.77-.46.51v.61l.91.29.79-.18.2-.42-.29-.47-.64-.35ZM402.55,312l.28.24,1.32-.66.2-.22,0-.44-.05-.22-.09-.2-.18-.2-.23-.13-.25,0-.22.13-.13.2-.11.25L403,311l0,.24-.12.3-.21.24Zm-10.11,24,.18-.23.05-.24-.27-.1-.14-.1-.25-.52-.16-.23-.23-.08h-.26l-.22.08-.09.19,0,.27-.08.12-.13.07-.51.43-.4.22-.4.06-.3-.18-.43.4-.06.2.14.23,1.38,1,.3.12.3,0h.33l.28.09h.14l.05-.14,0-.12.05-.09.09-.06.13,0,.49,0,.14,0,.09-.08.21-.29.12-.07-.13-.14-.2-.12h-.08l-.2-.26-.06-.13V336Zm14.12-9.15.25.07.43.06h.42l.19-.09,0-.21.43-.89-.92-.66-.35-.36.27-.16.32-.12v-.28l-.21-.32-.26-.23.14-.31,0-.15v-.27l0-.33.21.26.06-.15v-.31l.08-.43-.18-.17-.5-.26-.3-.2-.18-.06-.51,0-.23-.13-.78-.69-.2.06-.19-.22-.13-.32-.06-.23-.25.14-.26.42-.18.15-.11-.7-.31-.18-1.15.16h-.69l-.65.13-.3.12-.14.11-.27.36-.11.09-.22.14-.13.12,0,.15,0,.15v.12l-.5.11-.19.18-.09.28,0,.35-.3.55-.7.3-.78.19-.56.2-.09.12-.07.16-.09.13-.16.06-.24-.09-.12,0-.05.22-.12.25-.59.51-.22.25-.32.69-.1.37,0,.4.12.3.29.07.34,0,.31.05.18.22,0,.3-.1.35-.06.37.15.29.35.22.77.25,2.17.38,2.65-.18.66,0,.58,0,.76-.2.73-.31.49-.37.12-.18.08-.17,0-.19v-.23l.08-.21.19-.11.21-.07.16-.08.53-.55.11-.1.25,0,.05.14v.18Zm-30.33-15.44,0-.93-.46-.7-.19-.1-.51-.37-.2.24-.23.2-.19.24-.18.66-.25.12-.31.06-.27.14-.18.23-.28.53-.19.25-.14.28,0,.36.13.29.31.07L373,313l-.28.13-.06.13,0,.2-.11.09-.17,0h-.2l-.21.08.05.18.15.16.07,0,.05,0,.22,0,.08.05,0,.07,0,.2v.08l.12.36.07.16.1.07.19-.05.29-.24.1-.05.12-.14.28-.22H374l-.18.47.67-.19.51-.46.38-.6.59-1.36Zm40.48,7.6.58.21-.12-.27-.12-.47-.05-.5.12-.36.31-.05,1.19.47.53-.12.22-.29,0-.38,0-.39-.05-.46-.07-.32-.13-.25-.21-.26h-.12l-.13.2-.23-.2-.23-.35-.11-.25,0-.24,0-.64,0-.23-.16-.38,0-.22.18-.86,0-.35-.34-.14-.08-.15-.67-.79-.11-.5-.06-.14-.14-.08-.42-.13-1-.48-.23-.2-.13-.74.11-.81.69-2.12,0-.73-.25-1.6,0-.55,0-.16-.16-.34,0-.2,0-.1.16-.27.05-.16,0-.17,0-.54h-.13l0,.2-.08.13h-.08l-.07-.43-.09-.07h-.15l-.2-.08-.09-.06-.06,0-.06,0-.08-.08,0-.08,0-.17,0,0-.06-.09,0-.21,0-.21.16-.28.11-.4,0-.41-.13-.18-.12-.07-.37-.31-.17-.1-.14,0-.43,0v0l0-.08-.06-.08-.11,0-.07,0v.16l-.06,0-.21,0-.34-.16-.15,0-.22.15-.66.91-.84.74-.53.29-.6.15-.82,0-.6-.26-.42-.47L407,298.1l-.2-.22-.51-.38-.24,0-.1.33-.06.73-.63-1.06-.31-.36-1-.83-.44-.6-.19-.1-.05,0-.36.17-.08,0-.06.28.24,1,.25.39.05.25.1.21.17.17.06.14-.23.12.13.12.2.09.27.08-.06.16-.25.17-.06.15.1.32.24.3.31.18.29,0v1.58l.13,1.08.09.21,0,.13,0,.12-.16.23-.1.27-.12.21-.09.25,0,.28.15.23.16.12.12.16,0,.32-.05.28-.22.31-.08.22v.34l.1.07.18,0h.21l.21,0,.09.07.08.48.1,0,.28-.08,0,.05.62.48h.12l.23-.08.19-.18.25-.35.16-.39-.08-.32-.2-.31.05-.26.22-.19.33-.12.34,0,.34,0,.25.14.11.29.12.11.71.54.45.58.18.33.07.31.09.11.61.53.09.17.37,1.67v.79l0,.33-.44,1.06-.07.34,0,.77,0,.11-.23.27-.09.15,0,.13-.12.79,0,.47.06.43.19.19.36.16.24.39.12.46,0,.39-.14.64-.24.69-.1.67.25.58.25.15.34.07.76,0,.4.06.19.15.13.22.27.27.17.06.24,0,.21.09.09.23,0,.09.91.71.28.1.17-.15v-.34l-.2-.77-.11-.72-.41-1.09-.12-2.32-.23-.5.19-.29.33,0,.33.13.2.19v.61l.06.09,0,.07.26.34.12.55.33.65Zm-22.51-.5.25-.17.39-.07.43,0,.2-.1.36-.59.28-.21.93-.5.2-.06,0-.61,0-.15.11-.11.11,0,.08.12,0,.2.38-.26.07-.14-.15-.24v-.16l.44-1.08.07-.3,0-1.35,0-.1-.1,0v-.09l.06-.08.12-.08.12-.06h.05l-.07-.64-.46-1.39,0-.68.09-.37.3-.69.06-.42.05-.19.24-.39.06-.17,0-.19-.21-.41,0-.3.11-.55,0-.38-.17-1,.05-.35-.15.07-.15,0-.34,0-.06-.05,0-.12-.06-.12-.17-.07.19-.3.52-.61.1-.32.07-.63.07-.34.22-.49.08-.49,0-.12-.5-.14-.46.32-.82,1.1-.19.32-.11.33.06.25.09.2.21.92-.23-.14-.07-.08-.06-.13h-.12v.41l-.15.26-.19.22-.11.3.21.61.08.4-.32.53-1.13,3.22-.3.47-.66.72-.26.35-.22.39-.18.7-.43.52-.17.34,0,.21.13.56,0,.18-.08.12-.08.09,0,.08-.08.27-1.43,1.91-.29.3-.14.26L390.6,318l-.81,1.1-.21.77-.23.4-.61.66-.62.49-.22.3-.08.44v.38l0,.14-.08.12,0,0-.07-.09-.09-.06-.14.07-.05.12-.06.53.07.1.32.16.07.09,0,.43-.07.33-.68,1.6-.86,4.76v.38l.12,1,.11.36.25,0,.28-.15.19-.17.9-1.06.23-.38.15-.2.14-.12.3-.18.15-.17.15-.3.26-.84.1-.66,1.57-3.67.07-.06.16-.06.16-.08.07-.14,0-.35.21-.9v-1.35l0-.14.06-.15.08-.13.07-.1.12-.09.2-.07.14-.08.22-.18.14-.2.09-.26,0-.36.13-.27.92-.74Zm-31-6.11-.67,1.26-.05.72.34.57.55.05.57-.26.4-.36,1.06-1.77.46-.36.22,0h.17l.17,0,.2-.12.7-.58.2-.13h.19l.18.06h.19l.15-.08.24-.2.19-.07.18,0,.58,0,.09,0,.23-.17.14,0,1.46-.24,1.59-.06.77-.15.09-.38.17-.12,0-.11-.05-.08,0,0,.14-.26.08-.09.27-.22.21-.12.21-.1.19,0,.33-.2.13,0,.14,0,.28.16.16,0,.28-.11.28-.26.43-.58.19-.53-.07-.43-.15-.43-.09-.54.16-.33.38-.38.46-.34.39-.19v.24l.38-.31.08,0,.18,0,.12.08.12.06.17,0,.1-.14.05-.37.08-.09.16,0,.07.11,0,.17,0,.18.37-.23.08-.14-.09-.22.4-.15.33-.22.23-.31.22-.92.33-.1.42.12.39.19.05-.28L383,302l.08-.24-.06-.24-.12-.11-.12-.08-.05-.16,0-.62,0-.27.1-.33v0l0-.46,0,0,0-.13,0-.11.06-.08.31-.05,0-.07v-.1l.19-.32v-.24l-.07-.49.08-.27.14-.25.09-.24-.08-.23-.38.07-.13,0,.16-.26-.19,0-.16,0-.11-.08,0-.17.09-.12.17,0,.19,0,.13-.05.13-.27v-1h-.12l-.24.44-.42.42-.48.32-.77.24-.61.49-.45.11L380,297l-.47.34-.46.23-.42-.16v-.32l.32-.37.85-.61-.76-.31-.23,0-.2-.09-.11-.22-.09-.27-.14-.26-.42-.24-.62-.12-.65,0-.52,0,.05.07,0,.06.06.06,0,.16-.34.38-.14.09-.12.06,0,.1.17.22h-.2l-.11-.06-.21-.25-.22-.15-.1,0-.08.28,0,.11.06.16v.14l-.22.1-.22.17-.1,0-.31-.14-.11-.25,0-.29-.11-.25-.27-.2-1-.4-.8-.81-.19-.13-.23-.08-.22-.2-.68-1-.18-.1-.71-.06-.23-.1-.37-.34-.59-.41-.62-.25-1.88-.41-.41-.19-.37-.25-.33-.3-.39-.51-.18-.12-.6-.18-.07-.07-.06-.11-.09-.11-.14-.06H363l-.09.09-.11,0-.12.07-.22.32-.11.07-.25,0-.14.07-.08.15-.06.24.05.2v.36l0,.35-.06.15-.12.09-.2.21-.17.24,0,.18.19.12.3,0,.64,0,.36,0,.29.08.58.24.63.12.53,0,.41.16.29.53.09.62-.37,2.82-.08.12-.08.09,0,.09-.13,2-.08.37-.19.32-.15.34,0,.39.11.4,0,.36v2.93l-.14.8-1.14,1.93-.31.89-.1.53-.24.51,0,.31.12.38.47.49.1.25.12,1.08v.38Zm8.41,16.45.51,1.06.14.16.19.06.24.19.37.8.31.27.35.42.15.31.18.05h.23l.21.05.11.11.12.16.13.14.16.06.24.06.75.4.34.08,1.12.05.29.08.29.2.42.42.19.29.1.3.1,1.15.7,1.7.41.69.56.56.72.23.16,0,.26-.17.38-.07.34-.16.2,0h.61l.23-.06,1.18-.72.14-.22.08-.28.94-1.34.32-.72.18-.78-.12-.7-.28-.33-.34-.3-.3-.32-.27-.79-.32-.27-.36-.22-.24-.25-.1-.39,0-.29-.15-.18-.47-.06-.3-.2.14-.36.29-.18.16.36.12-.46-.71-.49,0-.45.13-.08.15,0h.12l.06-.25,0-.18.1-.41-.23-2.94.1-.39.23-.31.49-.53.23-.77.05-.09.12-.1.12-.12.15-.42.78-1.16.11-.31.06-.34v-.41l.07-.4.53-1.07.08-.34,0-1.13,0-.37.59-1.26.18-.27,1.42-1.54.21-.39.53-2.27.28-.69.48-.67.16-.33.08-.8,0-.09-.06-.07h-.12l-.05,0-.24-.33-.09-.16-.11-.68-.22-.26-.33-.13-.6-.15-.17-.07-.19,0-.25,0-.18.12-.13.15-.12.07-.15-.1,0-.18.1-.16,0-.13-.23-.12-.18,0-.44.19-.2,0-.21-.09-.3-.27-.19-.13-.09,0-.32,0-.12-.05-.08-.12-.06-.12,0-.06-.79,0-.74.33-1.4.88-.34.12-.33.07-.78,0-.14.11-.47.52-.14.2-.07.15,0,.14,0,.35.06.09.25.19.06.09.07,1.09-.07.37L379.6,311v.17l-.4.88-.61.61-.09.16-.14.11L378,313l-.32.15-.15.31.12.73.64,1.34.17.76-.24,2.1.12.73.23.73.05.43-.1.3-.47.57-.3.16-.33-.19-.43.28-.91,1-.35.19-.86.18-.25.15-.29-.13-1.12-.22h-.38l-.72.17-.36,0-.22.15-.3.76-.65,1.17-.18.18v.11l.25.48v.56l-.1.63,0,.68.1-.06.27-.12.11-.06v.26l-.1.45,0,.24.09-.07.17-.1.09-.07.3.3,0,.14-.12.15Z" transform="translate(-352.75 -275.85)"/></svg>