<svg width="713" height="501" viewBox="0 0 713 501" fill="none" xmlns="http://www.w3.org/2000/svg">
<path d="M479.177 493.529C517.786 493.487 549.344 464.379 549.305 428.845L549.198 331.934C549.186 320.627 563.219 314.151 573.755 320.6C591.316 330.272 612.38 335.095 635.19 330.224C670.282 323.725 698.334 299.467 705.321 268.77C717.547 215.456 673.623 170.279 619.22 170.338C601.67 170.358 587.636 175.219 573.603 181.695C563.08 188.167 549.034 181.722 549.02 168.8L548.913 71.8892C548.874 36.3552 517.253 7.31654 478.644 7.35887L355.797 7.49355C343.512 7.50702 336.507 20.4362 343.537 30.1196C354.085 46.2599 359.371 65.6363 354.129 86.6394C347.144 118.951 320.848 144.823 287.511 151.32C231.365 162.688 180.427 122.364 180.372 72.2933C180.354 56.1414 185.605 43.2142 192.611 30.2851C199.622 22.2014 192.588 9.28767 180.303 9.30114L75.0056 9.41658C36.3965 9.4589 4.83911 38.5668 4.87807 74.1009L5.26763 429.441C5.30659 464.975 36.9277 494.014 75.5368 493.971L479.177 493.529Z" fill="#FDCB00"/>
<rect x="5.88477" y="5.5813" width="546.007" height="487.421" rx="77" transform="rotate(0.32778 5.88477 5.5813)" fill="#FDCB00"/>
</svg>
