<svg width="127" height="99" viewBox="0 0 127 99" fill="none" xmlns="http://www.w3.org/2000/svg">
<path fill-rule="evenodd" clip-rule="evenodd" d="M63 98.5C97.279 98.5 126 82.344 126 60C126 37.656 97.279 21.5 63 21.5C28.721 21.5 5.65749e-09 37.656 1.34819e-08 60C2.13063e-08 82.344 28.721 98.5 63 98.5ZM63 35.5C90.58 35.5 112 47.554 112 60C112 72.446 90.58 84.5 63 84.5C35.42 84.5 14 72.446 14 60C14 47.554 35.42 35.5 63 35.5Z" fill="#003D00"/>
<path d="M56 7.5C56 5.64348 56.7375 3.86301 58.0503 2.55025C59.363 1.2375 61.1435 0.5 63 0.5C64.8565 0.5 66.637 1.2375 67.9498 2.55025C69.2625 3.86301 70 5.64348 70 7.5L70 28.5C70 30.3565 69.2625 32.137 67.9498 33.4497C66.637 34.7625 64.8565 35.5 63 35.5C61.1435 35.5 59.363 34.7625 58.0503 33.4497C56.7375 32.137 56 30.3565 56 28.5L56 7.5Z" fill="#003D00"/>
<path d="M84.1462 9.62768C84.5632 7.86141 85.6498 6.3261 87.1769 5.34556C88.704 4.36502 90.5522 4.01589 92.3318 4.3718C94.1114 4.72771 95.6831 5.76085 96.7157 7.25332C97.7482 8.74578 98.1607 10.5809 97.8662 12.3717L94.3662 29.8717C94.2138 30.7988 93.8763 31.6857 93.3738 32.4795C92.8713 33.2734 92.2142 33.958 91.4415 34.4925C90.6689 35.0271 89.7965 35.4006 88.8765 35.5908C87.9564 35.7811 87.0074 35.7842 86.0862 35.5999C85.1649 35.4157 84.2901 35.0478 83.514 34.5184C82.7379 33.9889 82.0763 33.3086 81.5687 32.518C81.0611 31.7274 80.7178 30.8427 80.5593 29.9166C80.4008 28.9906 80.4304 28.0421 80.6462 27.1277L84.1462 9.62768Z" fill="#003D00"/>
<path d="M41.8538 9.62768C41.4369 7.86141 40.3503 6.3261 38.8231 5.34556C37.296 4.36502 35.4478 4.01589 33.6682 4.3718C31.8887 4.72771 30.3169 5.76085 29.2844 7.25332C28.2519 8.74578 27.8393 10.5809 28.1338 12.3717L31.6338 29.8717C32.0507 31.6379 33.1373 33.1732 34.6645 34.1538C36.1916 35.1343 38.0398 35.4835 39.8194 35.1276C41.5989 34.7716 43.1707 33.7385 44.2032 32.246C45.2358 30.7536 45.6483 28.9184 45.3538 27.1277L41.8538 9.62768Z" fill="#003D00"/>
<path d="M13.0026 17.902C12.0474 16.31 10.4989 15.1627 8.69784 14.7124C6.89674 14.2622 4.99054 14.5458 3.39858 15.501C1.80662 16.4562 0.6593 18.0046 0.209025 19.8057C-0.24125 21.6068 0.0424017 23.513 0.997579 25.105L11.4976 42.605C12.4537 44.197 14.003 45.3439 15.8048 45.7935C17.6065 46.2431 19.5131 45.9586 21.1051 45.0025C22.697 44.0464 23.844 42.497 24.2936 40.6953C24.7432 38.8935 24.4587 36.987 23.5026 35.395L13.0026 17.895L13.0026 17.902Z" fill="#003D00"/>
<path d="M112.999 17.9016C113.954 16.3087 115.503 15.1605 117.305 14.7096C119.106 14.2586 121.013 14.5419 122.606 15.4971C124.199 16.4523 125.347 18.0011 125.798 19.8028C126.249 21.6046 125.966 23.5117 125.011 25.1046L114.511 42.6046C113.555 44.1975 112.005 45.3453 110.203 45.7956C108.4 46.2459 106.493 45.9617 104.9 45.0056C103.307 44.0495 102.159 42.4998 101.709 40.6973C101.259 38.8949 101.543 36.9875 102.499 35.3946L112.999 17.8946L112.999 17.9016Z" fill="#003D00"/>
<path fill-rule="evenodd" clip-rule="evenodd" d="M63 81C69.4978 81 75.7295 78.4188 80.3241 73.8241C84.9188 69.2295 87.5 62.9978 87.5 56.5C87.5 50.0022 84.9188 43.7705 80.3241 39.1759C75.7295 34.5812 69.4978 32 63 32C56.5022 32 50.2705 34.5812 45.6759 39.1759C41.0812 43.7705 38.5 50.0022 38.5 56.5C38.5 62.9978 41.0812 69.2295 45.6759 73.8241C50.2705 78.4188 56.5022 81 63 81ZM63 46C65.7848 46 68.4555 47.1062 70.4246 49.0754C72.3938 51.0445 73.5 53.7152 73.5 56.5C73.5 59.2848 72.3938 61.9555 70.4246 63.9246C68.4555 65.8938 65.7848 67 63 67C60.2152 67 57.5445 65.8938 55.5754 63.9246C53.6062 61.9555 52.5 59.2848 52.5 56.5C52.5 53.7152 53.6062 51.0445 55.5754 49.0754C57.5445 47.1062 60.2152 46 63 46Z" fill="#003D00"/>
</svg>
