<svg id="ViSERDAC-Logo-Landscape" data-name="ViSERDAC-Logo-Landscape" xmlns="http://www.w3.org/2000/svg" viewBox="0 0 408.04 101.38"><defs>
<style>.cls-1,.cls-3{fill:#710c12;}.cls-1{stroke:#710c12;}.cls-1,.cls-2{stroke-miterlimit:10;}.cls-2{fill:#fdce0b;stroke:#fdce0b;}.cls-4{fill:#ffef5b;}.cls-5{fill:#fff;}.cls-6{fill:#48c4d3;}.cls-7{fill:#e86161;}.cls-8{fill:#89bfe8;}.cls-9{fill:red;}.cls-10{fill:#0070c0;}.cls-11{fill:#ffc000;}.cls-12{fill:#8cc63e;}.cls-13{fill:#00694a;}.cls-14{fill:#3cb848;}</style></defs><title>Go to Home</title><path class="cls-1" d="M159.36,20.68,141.85,57.32h-4.07L120.21,20.68h3.89l15.74,33,15.62-33Z" transform="translate(-12.96 -10.5)"/><path class="cls-2" d="M163.07,23.51a2.48,2.48,0,0,1,2.74-2.3c1.64,0,2.8,1,2.8,2.3a2.8,2.8,0,0,1-5.53,0Zm1,8h3.47V57.32H164.1Z" transform="translate(-12.96 -10.5)"/><path class="cls-1" d="M173.52,51.51l2.25-2.2c3,3.35,9.12,5.71,15.14,5.71C199,55,204,52.24,204,47.79c0-4.14-3.34-6-13.62-7.64-11.49-1.78-15.87-4.66-15.87-10.42s6.5-9.68,16-9.68c6,0,11.43,1.78,15.2,5.08l-2.07,2.2a20,20,0,0,0-13.19-4.45c-7.42,0-12.4,2.77-12.4,6.91,0,4,3.34,5.91,12.83,7.48,12.46,1.94,16.72,4.61,16.72,10.42,0,6.28-6.5,10.26-16.78,10.26C184.1,57.95,177.35,55.44,173.52,51.51Z" transform="translate(-12.96 -10.5)"/><path class="cls-1" d="M245.2,54.34v3H214.87V20.68h29.6v2.93h-26V37.33h24.86v2.93H218.45V54.34Z" transform="translate(-12.96 -10.5)"/><path class="cls-1" d="M268.3,43.61H256.75V57.32h-3.59V20.68h18.72c8.51,0,14.1,4.61,14.1,11.46,0,6.54-5.11,11.1-13.07,11.46l14.59,13.71h-4.68ZM256.75,23.66v17H272c6.44,0,10.46-3.3,10.46-8.48s-4-8.48-10.46-8.48Z" transform="translate(-12.96 -10.5)"/><path class="cls-1" d="M330.62,39c0,10.89-8.82,18.32-21.58,18.32H294.38V20.68H309C321.8,20.68,330.62,28.11,330.62,39ZM327,39c0-9.05-7.36-15.34-17.93-15.34H298V54.34H309C319.61,54.34,327,48.05,327,39Z" transform="translate(-12.96 -10.5)"/><path class="cls-1" d="M365.7,48.42H340.41l-4.62,8.9H331.9L351,20.68h4.13l19.09,36.64h-4Zm-23.77-2.93h22.25L353.05,23.93Z" transform="translate(-12.96 -10.5)"/><path class="cls-1" d="M375.55,39c0-11.15,9-19,21.88-19a22.5,22.5,0,0,1,15.26,5.55l-2.49,2A18.79,18.79,0,0,0,397.49,23c-10.82,0-18.36,6.54-18.36,16s7.54,16,18.36,16a20.09,20.09,0,0,0,13-4.55l2.43,2.09A23.48,23.48,0,0,1,397.43,58C384.54,58,375.55,50.15,375.55,39Z" transform="translate(-12.96 -10.5)"/><path class="cls-3" d="M132.65,70.33l-4.56,10.86H127l-4.58-10.86h1l4.1,9.79,4.07-9.79Z" transform="translate(-12.96 -10.5)"/>
<path class="cls-3" d="M134.26,70.33h.94V81.18h-.94Z" transform="translate(-12.96 -10.5)"/><path class="cls-3" d="M137.11,79.46l.59-.65a5.23,5.23,0,0,0,3.95,1.69c2.11,0,3.42-.82,3.42-2.14s-.87-1.77-3.55-2.26c-3-.53-4.14-1.38-4.14-3.09s1.7-2.87,4.18-2.87a5.55,5.55,0,0,1,4,1.5l-.54.65A4.84,4.84,0,0,0,141.55,71c-1.93,0-3.23.82-3.23,2s.87,1.75,3.34,2.22c3.25.57,4.36,1.36,4.36,3.09s-1.7,3-4.37,3A6.12,6.12,0,0,1,137.11,79.46Z" transform="translate(-12.96 -10.5)"/><path class="cls-3" d="M155.28,78.54h-6.59l-1.2,2.64h-1l5-10.86h1.08l5,10.86h-1Zm-6.2-.87h5.8L152,71.29Z" transform="translate(-12.96 -10.5)"/><path class="cls-3" d="M162.08,76.85v4.33h-.94V76.82l-4.36-6.5h1.13l3.72,5.61,3.72-5.61h1.13Z" transform="translate(-12.96 -10.5)"/><path class="cls-3" d="M174.61,78.54H168l-1.2,2.64h-1l5-10.86h1.08l5,10.86h-1Zm-6.2-.87h5.8l-2.9-6.39Z" transform="translate(-12.96 -10.5)"/><path class="cls-3" d="M177.34,79.46l.59-.65a5.23,5.23,0,0,0,3.95,1.69c2.11,0,3.42-.82,3.42-2.14s-.87-1.77-3.55-2.26c-3-.53-4.14-1.38-4.14-3.09s1.7-2.87,4.18-2.87a5.55,5.55,0,0,1,4,1.5l-.54.65A4.84,4.84,0,0,0,181.78,71c-1.93,0-3.23.82-3.23,2s.87,1.75,3.34,2.22c3.25.57,4.36,1.36,4.36,3.09s-1.7,3-4.37,3A6.12,6.12,0,0,1,177.34,79.46Z" transform="translate(-12.96 -10.5)"/><path class="cls-3" d="M191.1,79.46l.59-.65a5.23,5.23,0,0,0,3.95,1.69c2.11,0,3.42-.82,3.42-2.14s-.87-1.77-3.55-2.26c-3-.53-4.14-1.38-4.14-3.09s1.7-2.87,4.18-2.87a5.55,5.55,0,0,1,4,1.5l-.54.65A4.84,4.84,0,0,0,195.54,71c-1.93,0-3.23.82-3.23,2s.87,1.75,3.34,2.22c3.25.57,4.36,1.36,4.36,3.09s-1.7,3-4.37,3A6.12,6.12,0,0,1,191.1,79.46Z" transform="translate(-12.96 -10.5)"/><path class="cls-3" d="M201.17,75.75a5.61,5.61,0,1,1,5.61,5.63A5.37,5.37,0,0,1,201.17,75.75Zm10.27,0a4.67,4.67,0,1,0-4.66,4.75A4.5,4.5,0,0,0,211.44,75.75Z" transform="translate(-12.96 -10.5)"/><path class="cls-3" d="M213.68,75.75a5.68,5.68,0,0,1,9.68-4l-.65.59a4.76,4.76,0,1,0-3.31,8.14,4.87,4.87,0,0,0,3.39-1.35l.63.62a5.69,5.69,0,0,1-4,1.61A5.43,5.43,0,0,1,213.68,75.75Z" transform="translate(-12.96 -10.5)"/>
<path class="cls-3" d="M225.3,70.33h.94V81.18h-.94Z" transform="translate(-12.96 -10.5)"/><path class="cls-3" d="M228.23,75.75a5.61,5.61,0,1,1,5.61,5.63A5.37,5.37,0,0,1,228.23,75.75Zm10.27,0a4.67,4.67,0,1,0-4.66,4.75A4.5,4.5,0,0,0,238.5,75.75Z" transform="translate(-12.96 -10.5)"/><path class="cls-3" d="M241,76.3h5.58v.82H241Z" transform="translate(-12.96 -10.5)"/><path class="cls-3" d="M256.83,80.3v.88h-7.91V70.33h7.72v.87h-6.78v4.06h6.48v.87h-6.48V80.3Z" transform="translate(-12.96 -10.5)"/><path class="cls-3" d="M258.15,75.75a5.69,5.69,0,0,1,9.68-4l-.65.59a4.76,4.76,0,1,0-3.31,8.14,4.87,4.87,0,0,0,3.39-1.35l.63.62a5.69,5.69,0,0,1-4,1.61A5.43,5.43,0,0,1,258.15,75.75Z" transform="translate(-12.96 -10.5)"/><path class="cls-3" d="M268.81,75.75a5.61,5.61,0,1,1,5.61,5.63A5.37,5.37,0,0,1,268.81,75.75Zm10.27,0a4.67,4.67,0,1,0-4.66,4.75A4.5,4.5,0,0,0,279.08,75.75Z" transform="translate(-12.96 -10.5)"/><path class="cls-3" d="M290.94,70.33V81.18H290l-7-9.38v9.38H282V70.33h1l7,9.34V70.33Z" transform="translate(-12.96 -10.5)"/><path class="cls-3" d="M292.94,75.75a5.61,5.61,0,1,1,5.61,5.63A5.37,5.37,0,0,1,292.94,75.75Zm10.27,0a4.67,4.67,0,1,0-4.66,4.75A4.5,4.5,0,0,0,303.21,75.75Z" transform="translate(-12.96 -10.5)"/><path class="cls-3" d="M317.45,70.33V81.18h-.94V71.83l-4.6,6.11h-.22l-4.6-6.11v9.35h-.94V70.33h1l4.69,6.25,4.69-6.25Z" transform="translate(-12.96 -10.5)"/><path class="cls-3" d="M320.16,70.33h.94V81.18h-.94Z" transform="translate(-12.96 -10.5)"/><path class="cls-3" d="M323.1,75.75a5.69,5.69,0,0,1,9.68-4l-.65.59a4.76,4.76,0,1,0-3.31,8.14,4.87,4.87,0,0,0,3.39-1.35l.63.62a5.69,5.69,0,0,1-4,1.61A5.43,5.43,0,0,1,323.1,75.75Z" transform="translate(-12.96 -10.5)"/><path class="cls-3" d="M342.44,77.12h-3v4.06h-.94V70.33h4.88a3.35,3.35,0,0,1,3.68,3.4,3.31,3.31,0,0,1-3.41,3.4l3.8,4.06h-1.22Zm-3-5.91v5h4a2.52,2.52,0,1,0,0-5Z" transform="translate(-12.96 -10.5)"/><path class="cls-3" d="M357.15,80.3v.88h-7.91V70.33H357v.87h-6.78v4.06h6.48v.87h-6.48V80.3Z" transform="translate(-12.96 -10.5)"/><path class="cls-3" d="M358.28,79.46l.59-.65a5.23,5.23,0,0,0,3.95,1.69c2.11,0,3.42-.82,3.42-2.14s-.87-1.77-3.55-2.26c-3-.53-4.14-1.38-4.14-3.09s1.7-2.87,4.18-2.87a5.55,5.55,0,0,1,4,1.5l-.54.65A4.84,4.84,0,0,0,362.72,71c-1.93,0-3.23.82-3.23,2s.87,1.75,3.34,2.22c3.25.57,4.36,1.36,4.36,3.09s-1.7,3-4.37,3A6.12,6.12,0,0,1,358.28,79.46Z" transform="translate(-12.96 -10.5)"/><path class="cls-3" d="M377,80.3v.88h-7.91V70.33h7.72v.87H370v4.06h6.48v.87H370V80.3Z" transform="translate(-12.96 -10.5)"/><path class="cls-3" d="M386.69,78.54H380.1l-1.2,2.64h-1l5-10.86h1.08l5,10.86h-1Zm-6.2-.87h5.8l-2.9-6.39Z" transform="translate(-12.96 -10.5)"/><path class="cls-3" d="M394.4,77.12h-3v4.06h-.94V70.33h4.88a3.35,3.35,0,0,1,3.68,3.4,3.31,3.31,0,0,1-3.41,3.4l3.8,4.06h-1.22Zm-3-5.91v5h4a2.52,2.52,0,1,0,0-5Z" transform="translate(-12.96 -10.5)"/><path class="cls-3" d="M400.49,75.75a5.69,5.69,0,0,1,9.68-4l-.65.59a4.76,4.76,0,1,0-3.31,8.14,4.87,4.87,0,0,0,3.39-1.35l.63.62a5.69,5.69,0,0,1-4,1.61A5.43,5.43,0,0,1,400.49,75.75Z" transform="translate(-12.96 -10.5)"/><path class="cls-3" d="M421,70.33V81.18h-.93V76.06h-7v5.12h-.94V70.33H413v4.85h7V70.33Z" transform="translate(-12.96 -10.5)"/><path class="cls-3" d="M131.66,99.91l-1.6-1.53a4.93,4.93,0,0,1-3.61,1.58c-2.08,0-3.53-1.07-3.53-2.7,0-1.32,1-2.48,2.6-3.29a3.68,3.68,0,0,1-1.32-2.64c0-1.49,1.28-2.54,3-2.54a2.37,2.37,0,0,1,2.6,2.31c0,1.46-1.19,2.29-2.85,3.06l3,2.93a6.08,6.08,0,0,0,1-2.71l.84.14a6.74,6.74,0,0,1-1.2,3.18l1.66,1.61Zm-2.19-2.12-3.38-3.24c-1.36.62-2.25,1.6-2.25,2.65s1,1.92,2.6,1.92A4.14,4.14,0,0,0,129.47,97.78Zm-4.34-6.42c0,.68.27,1.22,1.27,2.23,1.47-.7,2.52-1.33,2.52-2.47a1.54,1.54,0,0,0-1.71-1.5A1.85,1.85,0,0,0,125.13,91.36Z" transform="translate(-12.96 -10.5)"/><path class="cls-3" d="M146.92,94.37a5.27,5.27,0,0,1-5.63,5.43h-3.82V88.94h3.82A5.27,5.27,0,0,1,146.92,94.37Zm-1,0a4.4,4.4,0,0,0-4.68-4.54h-2.88v9.09h2.88A4.4,4.4,0,0,0,146,94.37Z" transform="translate(-12.96 -10.5)"/><path class="cls-3" d="M156.07,97.16h-6.59l-1.2,2.64h-1l5-10.86h1.08l5,10.86h-1Zm-6.2-.87h5.8l-2.9-6.39Z" transform="translate(-12.96 -10.5)"/><path class="cls-3" d="M166.36,89.83h-4v10h-.94v-10h-4v-.88h8.89Z" transform="translate(-12.96 -10.5)"/><path class="cls-3" d="M174.34,97.16h-6.59l-1.2,2.64h-1l5-10.86h1.08l5,10.86h-1Zm-6.2-.87h5.8L171,89.91Z" transform="translate(-12.96 -10.5)"/><path class="cls-3" d="M188.56,97.16H182l-1.2,2.64h-1l5-10.86h1.08l5,10.86h-1Zm-6.2-.87h5.8l-2.9-6.39Z" transform="translate(-12.96 -10.5)"/><path class="cls-3" d="M201.23,88.94V99.8h-.94l-7-9.38V99.8h-.94V88.94h1l7,9.34V88.94Z" transform="translate(-12.96 -10.5)"/><path class="cls-3" d="M211.58,97.16H205l-1.2,2.64h-1l5-10.86h1.08l5,10.86h-1Zm-6.2-.87h5.8l-2.9-6.39Z" transform="translate(-12.96 -10.5)"/><path class="cls-3" d="M215.34,88.94h.94v10h6.24v.88h-7.18Z" transform="translate(-12.96 -10.5)"/><path class="cls-3" d="M226.36,95.47V99.8h-.94V95.44l-4.36-6.5h1.13l3.72,5.61,3.72-5.61h1.12Z" transform="translate(-12.96 -10.5)"/><path class="cls-3" d="M239.93,89.83h-4v10H235v-10h-4v-.88h8.89Z" transform="translate(-12.96 -10.5)"/><path class="cls-3" d="M241.33,88.94h.94V99.8h-.94Z" transform="translate(-12.96 -10.5)"/><path class="cls-3" d="M244.26,94.37a5.69,5.69,0,0,1,9.68-4l-.65.59A4.76,4.76,0,1,0,250,99.12a4.87,4.87,0,0,0,3.39-1.35l.63.62a5.69,5.69,0,0,1-4,1.61A5.43,5.43,0,0,1,244.26,94.37Z" transform="translate(-12.96 -10.5)"/><path class="cls-3" d="M255,98.08l.59-.65a5.23,5.23,0,0,0,3.95,1.69c2.11,0,3.42-.82,3.42-2.14s-.87-1.77-3.55-2.26c-3-.53-4.14-1.38-4.14-3.09s1.7-2.87,4.18-2.87a5.55,5.55,0,0,1,4,1.5l-.54.65a4.84,4.84,0,0,0-3.44-1.32c-1.93,0-3.23.82-3.23,2s.87,1.75,3.34,2.22c3.25.57,4.36,1.36,4.36,3.09s-1.7,3-4.37,3A6.12,6.12,0,0,1,255,98.08Z" transform="translate(-12.96 -10.5)"/><path class="cls-3" d="M268.82,94.37a5.69,5.69,0,0,1,9.68-4l-.65.59a4.76,4.76,0,1,0-3.31,8.14,4.87,4.87,0,0,0,3.39-1.35l.63.62a5.69,5.69,0,0,1-4,1.61A5.43,5.43,0,0,1,268.82,94.37Z" transform="translate(-12.96 -10.5)"/><path class="cls-3" d="M288.35,98.91v.88h-7.91V88.94h7.72v.87h-6.78v4.06h6.48v.87h-6.48v4.17Z" transform="translate(-12.96 -10.5)"/><path class="cls-3" d="M299.34,88.94V99.8h-.94l-7-9.38V99.8h-.94V88.94h1l7,9.34V88.94Z" transform="translate(-12.96 -10.5)"/><path class="cls-3" d="M309.65,89.83h-4v10h-.93v-10h-4v-.88h8.89Z" transform="translate(-12.96 -10.5)"/><path class="cls-3" d="M319,98.91v.88H311V88.94h7.72v.87H312v4.06h6.48v.87H312v4.17Z" transform="translate(-12.96 -10.5)"/><path class="cls-3" d="M325,95.74h-3V99.8H321V88.94h4.88a3.35,3.35,0,0,1,3.68,3.4,3.31,3.31,0,0,1-3.41,3.4L330,99.8h-1.22Zm-3-5.91v5h4a2.52,2.52,0,1,0,0-5Z" transform="translate(-12.96 -10.5)"/><path class="cls-4" d="M98.53,81.22a41.13,41.13,0,0,1-69.41,2.66L30.72,81l3.38.4a35.63,35.63,0,0,0,59.3-2.34L95,81.76Z" transform="translate(-12.96 -10.5)"/><rect class="cls-5" x="42.75" y="80.73" width="13.28" height="13.28" rx="6.64" ry="6.64"/><circle class="cls-5" cx="50.02" cy="50.03" r="23.95"/><path class="cls-6" d="M59.69,95.18v2.66a2.66,2.66,0,0,1,0-5.32Z" transform="translate(-12.96 -10.5)"/><path class="cls-6" d="M65,95.18H62.35a2.66,2.66,0,0,1,5.32,0Z" transform="translate(-12.96 -10.5)"/>
<path class="cls-6" d="M65,100.52V97.86a2.66,2.66,0,0,1,0,5.32Z" transform="translate(-12.96 -10.5)"/><path class="cls-6" d="M59.69,100.53h2.66a2.66,2.66,0,0,1-5.32,0Z" transform="translate(-12.96 -10.5)"/><polygon points="40.55 48.47 40.55 56.76 36.48 53.4 33.02 56.07 33.02 48.47 40.55 48.47"/><polygon points="40.55 60.22 40.55 66.21 33.02 66.21 33.02 59.44 36.42 56.81 40.55 60.22"/><polygon points="51.29 42.29 51.29 51.02 46.96 49.83 43.77 54.52 43.77 42.29 51.29 42.29"/><polygon points="48.13 52.91 51.29 53.78 51.29 66.21 43.77 66.21 43.77 59.24 48.06 52.95 48.13 52.91"/><polygon points="63.47 34.77 63.47 38.4 55.94 47.38 55.94 34.77 63.47 34.77"/><polygon points="55.94 51.53 63.47 42.55 63.47 66.21 55.94 66.21 55.94 51.53"/><path d="M79.28,49.15,66.39,64.54,60.92,63,55.08,71.6,49.39,66.9l-5.74,4.44a1,1,0,0,1-1.24-1.61l7-5.43,5.22,4.31,5.41-7.93,5.61,1.54,12-14.28Z" transform="translate(-12.96 -10.5)"/><polygon points="67.14 36 63.57 36.63 67.58 39.59 67.14 36"/><path d="M69,89.39v.38a1.53,1.53,0,0,1-.82,1.35,1.75,1.75,0,0,0-.7-.15H57.23a1.75,1.75,0,0,0-.7.15,1.53,1.53,0,0,1-.82-1.35v-.38a1.53,1.53,0,0,1,1.52-1.52H58a28.22,28.22,0,0,0,9.78,0A1.53,1.53,0,0,1,69,89.39Z" transform="translate(-12.96 -10.5)"/><path d="M67.46,104.76H57.23A1.78,1.78,0,0,1,55.46,103V92.75A1.78,1.78,0,0,1,57.23,91H67.46a1.78,1.78,0,0,1,1.78,1.78V103A1.78,1.78,0,0,1,67.46,104.76ZM57.23,91.48A1.27,1.27,0,0,0,56,92.75V103a1.27,1.27,0,0,0,1.27,1.27H67.46A1.27,1.27,0,0,0,68.73,103V92.75a1.27,1.27,0,0,0-1.27-1.27Z" transform="translate(-12.96 -10.5)"/><path d="M59.69,95.18H57a2.66,2.66,0,0,1,5.32,0Z" transform="translate(-12.96 -10.5)"/><path d="M65,95.18V92.52a2.66,2.66,0,0,1,0,5.32Z" transform="translate(-12.96 -10.5)"/><path d="M65,100.52h2.66a2.66,2.66,0,0,1-5.32,0Z" transform="translate(-12.96 -10.5)"/><path d="M59.69,100.53v2.66a2.66,2.66,0,0,1,0-5.32Z" transform="translate(-12.96 -10.5)"/><path d="M62.8,98.6a.45.45,0,1,1-.45-.45.45.45,0,0,1,.45.45" transform="translate(-12.96 -10.5)"/><path d="M62.35,99.31v.21l-.6.75c-1.25-.43-1.15-2-1.15-2l.31-.17a1.46,1.46,0,0,0,1.43,1.17" transform="translate(-12.96 -10.5)"/><path d="M62.35,99.31v.21l.6.75a1.8,1.8,0,0,0,1.15-1.8l-.3-.23a1.38,1.38,0,0,1-1.45,1.06" transform="translate(-12.96 -10.5)"/><path d="M41.87,104.43a1.36,1.36,0,0,1-.44.51,1.31,1.31,0,0,1-.6.22,1.64,1.64,0,0,1-1-.2,1.58,1.58,0,0,1-.31-.21l-.23-.23-.17-.19a.45.45,0,0,0-.13-.11h-.23s-.05-.06,0-.12a1.8,1.8,0,0,0,.08-.19q.12-.27.22-.53t.16-.4l.07-.09a.08.08,0,0,1,.13,0,.41.41,0,0,1,0,.1v.1a1,1,0,0,1,0,.12,1.55,1.55,0,0,0,0,.43,1.63,1.63,0,0,0,.11.43,1.49,1.49,0,0,0,.23.39,1.11,1.11,0,0,0,.35.29,1.09,1.09,0,0,0,.32.11,1,1,0,0,0,.33,0,.77.77,0,0,0,.3-.12.65.65,0,0,0,.22-.25.6.6,0,0,0,.06-.48,1.68,1.68,0,0,0-.25-.45l-.21-.26-.24-.26-.24-.26a2.56,2.56,0,0,1-.21-.28,1.47,1.47,0,0,1-.2-.4,1.25,1.25,0,0,1,0-.43,2,2,0,0,1,0-.33,1.36,1.36,0,0,1,.12-.32,1.21,1.21,0,0,1,.31-.37,1.49,1.49,0,0,1,.48-.26,1.64,1.64,0,0,1,.6-.08,1.59,1.59,0,0,1,.66.19,4.45,4.45,0,0,1,.43.26,3.37,3.37,0,0,1,.39.3,1.3,1.3,0,0,1,.2.22.35.35,0,0,1,.05.12.25.25,0,0,1,0,.13l0,.07,0,.13,0,.15a1.32,1.32,0,0,0,0,.15,1.45,1.45,0,0,0,0,.27.57.57,0,0,1-.07.24l0,.08-.06.09-.06.07s0,0-.05,0,0-.07,0-.15a1.79,1.79,0,0,0,0-.31,3.36,3.36,0,0,0,0-.4,2,2,0,0,0-.09-.45,1.5,1.5,0,0,0-.23-.43,1.18,1.18,0,0,0-.41-.34,1.27,1.27,0,0,0-.37-.12,1,1,0,0,0-.37,0,.87.87,0,0,0-.34.15.86.86,0,0,0-.26.31.69.69,0,0,0-.08.49,1.25,1.25,0,0,0,.21.44,3.9,3.9,0,0,0,.37.44,4.8,4.8,0,0,1,.4.48,4.19,4.19,0,0,1,.34.52,1,1,0,0,1,0,1Z" transform="translate(-12.96 -10.5)"/><path d="M39.07,101.66a2.54,2.54,0,0,1-.77.77,2.43,2.43,0,0,1-.95.35,2.63,2.63,0,0,1-1-.06,3.17,3.17,0,0,1-1-.44,3,3,0,0,1-.75-.7,2.42,2.42,0,0,1-.42-.85,2.08,2.08,0,0,1,0-.9,2.57,2.57,0,0,1,.4-.93,2.63,2.63,0,0,1,.82-.83,2.41,2.41,0,0,1,.95-.34,2.52,2.52,0,0,1,1,.07,3.09,3.09,0,0,1,.91.41,3.24,3.24,0,0,1,.6.5,2.94,2.94,0,0,1,.41.57,1.92,1.92,0,0,1,.27.95,2.74,2.74,0,0,1-.09.73A2.42,2.42,0,0,1,39.07,101.66Zm-3.39.55a1.58,1.58,0,0,0,.66.25,1.65,1.65,0,0,0,.69-.05,2,2,0,0,0,.65-.33,2.32,2.32,0,0,0,.54-.58,3.18,3.18,0,0,0,.41-.88,2.52,2.52,0,0,0,.1-.89,2,2,0,0,0-.25-.82,1.88,1.88,0,0,0-.63-.65,1.73,1.73,0,0,0-.47-.19,1.62,1.62,0,0,0-.64,0,1.59,1.59,0,0,0-.48.14,2.35,2.35,0,0,0-.51.34,2.46,2.46,0,0,0-.47.53,2.8,2.8,0,0,0-.37.84,2.58,2.58,0,0,0-.08.89,2.16,2.16,0,0,0,.25.83A1.73,1.73,0,0,0,35.68,102.21Z" transform="translate(-12.96 -10.5)"/><path d="M34.26,98.32a2.52,2.52,0,0,1-.77.63,3.1,3.1,0,0,1-.91.3,2.17,2.17,0,0,1-.37,0,2.3,2.3,0,0,1-.38,0,2.61,2.61,0,0,1-.66-.21,2.64,2.64,0,0,1-.59-.37,2.16,2.16,0,0,1-.31-.31A2.72,2.72,0,0,1,30,98a2.24,2.24,0,0,1-.17-.34.47.47,0,0,0-.13-.2.09.09,0,0,0-.07,0l-.07,0-.07,0a.07.07,0,0,1-.07,0s0-.05,0-.07a.46.46,0,0,1,.07-.11l.19-.28.21-.34.19-.31.14-.2.09-.07a.08.08,0,0,1,.09,0,.09.09,0,0,1,0,.11,1.06,1.06,0,0,1-.07.17,1.34,1.34,0,0,0-.09.33,1.93,1.93,0,0,0,0,.51,2.33,2.33,0,0,0,.18.73,1.68,1.68,0,0,0,.48.64,1.51,1.51,0,0,0,.58.3,1.62,1.62,0,0,0,.66,0,1.93,1.93,0,0,0,.66-.23,2.11,2.11,0,0,0,.6-.51,2.72,2.72,0,0,0,.47-.81,2.43,2.43,0,0,0,.16-.85,2,2,0,0,0-.16-.79,1.68,1.68,0,0,0-.48-.64,1.76,1.76,0,0,0-.42-.26,2.5,2.5,0,0,0-.83-.21h-.52a.19.19,0,0,1-.11,0,.06.06,0,0,1,0-.09l.12-.06.28-.06a2.59,2.59,0,0,1,.4,0,2.27,2.27,0,0,1,.49.06,2.62,2.62,0,0,1,.55.2,2.78,2.78,0,0,1,.57.38,3,3,0,0,1,.59.67,2.12,2.12,0,0,1,.31.8,2,2,0,0,1-.06.89A2.52,2.52,0,0,1,34.26,98.32Z" transform="translate(-12.96 -10.5)"/><path d="M28.25,96.46l-.35-.34-.24-.21-.14-.12-.07-.06q-.12-.12,0-.2a.09.09,0,0,1,.13,0l.17.1a.39.39,0,0,0,.24,0,.76.76,0,0,0,.35-.24l2-2a2,2,0,0,0,.34-.43.57.57,0,0,0,.08-.33.45.45,0,0,0-.08-.23l-.13-.18a.61.61,0,0,1-.1-.15.09.09,0,0,1,0-.1s.06,0,.08,0l.07.05.73.74.13.12.2.17.19.16.11.1.07.09a.08.08,0,0,1,0,.1l-.06,0a.2.2,0,0,1-.12-.05l-.09-.05-.12,0a.47.47,0,0,0-.28.08,2.42,2.42,0,0,0-.48.41l-1.88,1.92a1.36,1.36,0,0,0-.27.35.48.48,0,0,0,0,.26.44.44,0,0,0,.12.25,1.45,1.45,0,0,1,.16.19.37.37,0,0,1,.06.11.09.09,0,0,1,0,.09.05.05,0,0,1-.05,0l-.07,0-.06,0,0,0-.1-.1-.12-.13-.12-.13Z" transform="translate(-12.96 -10.5)"/><path d="M28.51,93.31a2.54,2.54,0,0,1-1,.53,2.43,2.43,0,0,1-1,.07,2.63,2.63,0,0,1-1-.34,3.17,3.17,0,0,1-.83-.7,3,3,0,0,1-.53-.88,2.42,2.42,0,0,1-.17-.94,2.08,2.08,0,0,1,.23-.87,2.57,2.57,0,0,1,.64-.78,2.63,2.63,0,0,1,1-.56,2.41,2.41,0,0,1,1-.06,2.52,2.52,0,0,1,.92.34,3.09,3.09,0,0,1,.76.64,3.24,3.24,0,0,1,.44.65,2.94,2.94,0,0,1,.24.66,1.92,1.92,0,0,1,0,1,2.74,2.74,0,0,1-.29.68A2.42,2.42,0,0,1,28.51,93.31Zm-3.41-.42a1.57,1.57,0,0,0,.57.43,1.65,1.65,0,0,0,.68.14,2,2,0,0,0,.72-.14,2.31,2.31,0,0,0,.68-.41,3.18,3.18,0,0,0,.64-.73,2.52,2.52,0,0,0,.34-.83,2,2,0,0,0,0-.85,1.88,1.88,0,0,0-.42-.8,1.72,1.72,0,0,0-.39-.32,1.62,1.62,0,0,0-.6-.22,1.59,1.59,0,0,0-.49,0,2.35,2.35,0,0,0-.59.18,2.46,2.46,0,0,0-.6.38,2.8,2.8,0,0,0-.59.7,2.58,2.58,0,0,0-.32.84,2.16,2.16,0,0,0,0,.86A1.73,1.73,0,0,0,25.1,92.89Z" transform="translate(-12.96 -10.5)"/><path d="M25.7,88.27q-.15.11-.23.05l-.19-.13L25,88l-.26-.19-.24-.18-.18-.13-.08-.06a.06.06,0,0,1,0-.09l.07-.06.25-.16q.13-.07.17,0l.27.21.27.2.19.13.19.13.16.11L26,88s0,0,0,.08A1,1,0,0,1,25.7,88.27Z" transform="translate(-12.96 -10.5)"/><path d="M20.44,86.74l-.18-.28-.13-.21L20,86.1l-.1-.16-.07-.09-.05-.07-.07-.1a.14.14,0,0,1,0-.1.16.16,0,0,1,.08-.08l.14-.09.2-.14.2-.14.14-.09L20.6,85s.07,0,.1.05a.07.07,0,0,1,0,.1l-.14.11-.12.14a.41.41,0,0,0-.08.21,1.08,1.08,0,0,0,0,.19.91.91,0,0,0,.06.24,2.88,2.88,0,0,0,.15.33q.1.19.26.44L21,87a.29.29,0,0,0,.15.11.33.33,0,0,0,.2,0A1.71,1.71,0,0,0,21.6,87l.81-.51q.25-.16.18-.27l-.31-.49a1.4,1.4,0,0,0-.29-.36.5.5,0,0,0-.25-.11.52.52,0,0,0-.18,0l-.15,0h-.15a.1.1,0,0,1-.07,0,.07.07,0,0,1,0-.08l.07-.06.08,0,.17-.09.18-.1.12-.07.14-.1.21-.15.2-.15.09-.07.1,0a.07.07,0,0,1,.08,0,.08.08,0,0,1,0,.09l-.09.11a1.78,1.78,0,0,0-.17.23.38.38,0,0,0-.06.27.62.62,0,0,0,0,.13l.06.14.13.25.19.32.11.17a.18.18,0,0,0,.11.08l.11,0,.19-.1.24-.14.24-.15.47-.31a.89.89,0,0,0,.25-.24.32.32,0,0,0,0-.24,1,1,0,0,0-.14-.32,3.55,3.55,0,0,0-.26-.36,3.1,3.1,0,0,0-.29-.31,2.89,2.89,0,0,0-.29-.24,1.1,1.1,0,0,0-.26-.14,1.06,1.06,0,0,0-.32-.06h-.36a.06.06,0,0,1-.06,0,.06.06,0,0,1,0-.07l.06-.05.13-.06.18-.06a1.72,1.72,0,0,1,.44-.07,1,1,0,0,1,.39.07.62.62,0,0,1,.22.15,1.58,1.58,0,0,1,.17.23l.18.3.25.46.25.45L25,85l.17.24.19.25.17.21.08.1a.1.1,0,0,1,0,.16,0,0,0,0,1-.06,0l-.13-.09-.11-.07-.14,0a.58.58,0,0,0-.31,0,2.44,2.44,0,0,0-.38.2l-.91.58-.58.36-.58.36-.48.32a.69.69,0,0,0-.22.25.42.42,0,0,0,0,.28,3.63,3.63,0,0,0,.12.4s0,0,0,.06-.07,0-.09,0l-.06-.07-.17-.29-.18-.3-.16-.27-.13-.21-.26-.41Z" transform="translate(-12.96 -10.5)"/><path d="M21.46,83.54a2.52,2.52,0,0,1-1,.27,3.1,3.1,0,0,1-1-.09,2.19,2.19,0,0,1-.35-.12,2.31,2.31,0,0,1-.34-.18,2.61,2.61,0,0,1-.52-.45,2.64,2.64,0,0,1-.39-.58,2.16,2.16,0,0,1-.15-.41,2.73,2.73,0,0,1-.08-.38,2.23,2.23,0,0,1,0-.38.47.47,0,0,0,0-.24.09.09,0,0,0-.06-.05h-.15a.07.07,0,0,1-.05,0s0-.07,0-.08l.11-.08.28-.18.32-.23.3-.21.21-.13.11,0a.08.08,0,0,1,.08,0,.09.09,0,0,1,0,.11l-.14.13a1.34,1.34,0,0,0-.21.26,1.93,1.93,0,0,0-.22.46,2.33,2.33,0,0,0-.13.74,1.68,1.68,0,0,0,.18.78,1.51,1.51,0,0,0,.41.51,1.62,1.62,0,0,0,.59.3,1.93,1.93,0,0,0,.7.06,2.11,2.11,0,0,0,.75-.22,2.72,2.72,0,0,0,.76-.55,2.43,2.43,0,0,0,.48-.71,2,2,0,0,0,.17-.79,1.68,1.68,0,0,0-.18-.78,1.75,1.75,0,0,0-.28-.41,2.51,2.51,0,0,0-.68-.53l-.3-.13-.18-.07a.19.19,0,0,1-.09-.07s0-.07,0-.09h.14l.28.05a2.57,2.57,0,0,1,.37.14,2.27,2.27,0,0,1,.42.25,2.62,2.62,0,0,1,.42.4,2.78,2.78,0,0,1,.37.58,3,3,0,0,1,.28.85,2.12,2.12,0,0,1,0,.86,2,2,0,0,1-.41.79A2.52,2.52,0,0,1,21.46,83.54Z" transform="translate(-12.96 -10.5)"/><path d="M19.18,79.11a2.53,2.53,0,0,1-1.08.16,2.43,2.43,0,0,1-1-.29,2.63,2.63,0,0,1-.78-.65,3.17,3.17,0,0,1-.53-.94,3,3,0,0,1-.19-1,2.42,2.42,0,0,1,.17-.94,2.08,2.08,0,0,1,.52-.74,2.57,2.57,0,0,1,.87-.51A2.64,2.64,0,0,1,18.36,74a2.41,2.41,0,0,1,1,.29,2.52,2.52,0,0,1,.74.64,3.09,3.09,0,0,1,.48.87,3.24,3.24,0,0,1,.18.76,2.94,2.94,0,0,1,0,.7,1.92,1.92,0,0,1-.35.92,2.73,2.73,0,0,1-.51.53A2.41,2.41,0,0,1,19.18,79.11Zm-3-1.59a1.57,1.57,0,0,0,.38.6,1.65,1.65,0,0,0,.59.37,2,2,0,0,0,.72.12,2.32,2.32,0,0,0,.78-.14,3.18,3.18,0,0,0,.86-.46,2.52,2.52,0,0,0,.61-.66,2,2,0,0,0,.29-.8,1.88,1.88,0,0,0-.11-.9,1.73,1.73,0,0,0-.26-.43,1.62,1.62,0,0,0-.48-.42,1.6,1.6,0,0,0-.46-.17,2.35,2.35,0,0,0-.61,0,2.46,2.46,0,0,0-.7.15,2.8,2.8,0,0,0-.8.45,2.58,2.58,0,0,0-.6.67,2.16,2.16,0,0,0-.3.81A1.73,1.73,0,0,0,16.14,77.53Z" transform="translate(-12.96 -10.5)"/><path d="M14.94,74.26s-.07,0-.09-.07a1.44,1.44,0,0,1-.06-.21l-.06-.26q0-.15-.07-.26a1.44,1.44,0,0,0-.07-.2.93.93,0,0,1-.06-.18.41.41,0,0,1,0-.1.24.24,0,0,1,0-.11,4.14,4.14,0,0,1,.3-.44l.5-.68.39-.53.43-.59.33-.44.35-.47.12-.17.14-.2.11-.17a.24.24,0,0,0,0-.09s-.07,0-.2,0l-.43.06-.24,0-.22,0-.6.15-.49.13-.32.09-.26.09-.06,0,0,0a.52.52,0,0,0-.16.16.67.67,0,0,0-.08.19.89.89,0,0,0,0,.19,1.07,1.07,0,0,0,0,.16,1.29,1.29,0,0,1,0,.17c0,.05,0,.08,0,.09a.09.09,0,0,1-.1,0,.4.4,0,0,1-.06-.15s0-.11,0-.2l0-.26,0-.24q0-.11,0-.15l0-.15-.07-.21-.07-.2,0-.13q0-.12.08-.14s.09,0,.14.13a1.24,1.24,0,0,0,.15.2.47.47,0,0,0,.29.14,2,2,0,0,0,.64-.07l.37-.09.4-.1.26-.06.37-.07.41-.08.37-.07.27-.06.3-.06.28-.06.2,0,.29,0a.08.08,0,0,1,.07.07.25.25,0,0,1-.06.16l-.21.31-.33.45-.4.54-.43.6-.43.59-.41.56-.33.47-.22.33q-.08.13-.07.15s0,0,.1,0l.23,0,.31,0,.32-.06.28-.06.16,0,.63-.15.55-.14.17-.05.13,0a.52.52,0,0,0,.28-.22.68.68,0,0,0,.11-.39c0-.05,0-.1,0-.14a.91.91,0,0,1,0-.12q0-.15.06-.16a.09.09,0,0,1,.11.06.87.87,0,0,1,.06.18l0,.15,0,.2,0,.2c0,.06,0,.11,0,.13l0,.17.08.26.07.25,0,.15a.19.19,0,0,1,0,.13l0,0s0,0-.07,0l-.1-.11-.11-.12L19,72.68a.56.56,0,0,0-.17-.07l-.22,0-.31,0-.43.06-.83.15L16,73.06a1.59,1.59,0,0,0-.71.3.58.58,0,0,0-.2.34q0,.18,0,.31a.82.82,0,0,1,0,.17A.09.09,0,0,1,14.94,74.26Z" transform="translate(-12.96 -10.5)"/>
<path d="M16,67.85a2.54,2.54,0,0,1-1.09-.11,2.43,2.43,0,0,1-.87-.51,2.63,2.63,0,0,1-.6-.82,3.17,3.17,0,0,1-.28-1,3,3,0,0,1,.07-1,2.42,2.42,0,0,1,.4-.87,2.08,2.08,0,0,1,.69-.59,2.57,2.57,0,0,1,1-.28,2.63,2.63,0,0,1,1.16.12,2.41,2.41,0,0,1,.86.52,2.52,2.52,0,0,1,.56.8,3.09,3.09,0,0,1,.26,1,3.24,3.24,0,0,1,0,.78,2.94,2.94,0,0,1-.18.68,1.92,1.92,0,0,1-.57.81,2.74,2.74,0,0,1-.63.39A2.41,2.41,0,0,1,16,67.85Zm-2.56-2.29a1.57,1.57,0,0,0,.22.68,1.65,1.65,0,0,0,.48.5,2,2,0,0,0,.67.3,2.31,2.31,0,0,0,.79.05,3.18,3.18,0,0,0,.94-.24,2.52,2.52,0,0,0,.75-.49,2,2,0,0,0,.48-.71,1.88,1.88,0,0,0,.11-.9,1.73,1.73,0,0,0-.14-.48,1.62,1.62,0,0,0-.36-.53,1.6,1.6,0,0,0-.41-.28,2.34,2.34,0,0,0-.59-.19,2.46,2.46,0,0,0-.71,0,2.8,2.8,0,0,0-.88.24A2.58,2.58,0,0,0,14,64a2.16,2.16,0,0,0-.49.71A1.73,1.73,0,0,0,13.41,65.56Z" transform="translate(-12.96 -10.5)"/><path d="M13.12,56.4s0,0,0-.08,0-.08,0-.12,0-.08,0-.12,0-.06,0-.07a.34.34,0,0,1,0-.09.06.06,0,0,1,.06,0,.1.1,0,0,1,.08,0,.21.21,0,0,1,0,.07.37.37,0,0,1,0,.09.25.25,0,0,0,0,.07,1,1,0,0,0,.07.16.53.53,0,0,0,.13.15.71.71,0,0,0,.23.12,1.33,1.33,0,0,0,.38.06h1l.57,0,.55,0,.47,0,.34,0,.18,0,.14,0a.5.5,0,0,0,.27-.17.55.55,0,0,0,.08-.21l0-.2c0-.06,0-.09.09-.08a.09.09,0,0,1,.06,0,.29.29,0,0,1,0,.17s0,.11,0,.19l0,.27,0,.27q0,.13,0,.18t0,.23v.23q0,.11,0,.19a1,1,0,0,1,0,.11.24.24,0,0,1,0,.09.07.07,0,0,1-.07,0,.09.09,0,0,1-.08-.05l-.05-.12-.07-.18a.22.22,0,0,0-.13-.11,1.14,1.14,0,0,0-.29-.07l-.57,0h-.85l-.66,0-.43,0-.15,0s0,.05.08.09l.33.19.63.35.69.37.57.29.57.29.22.13.15.1s.07.06.07.08a.07.07,0,0,1,0,0l-.05,0-.12.06-.21.09-.39.18-.59.27-.54.26-.66.31-.38.18-.38.19h0l.93.06L16,61l.39,0,.26,0h.26l.26,0,.15-.07a.36.36,0,0,0,.11-.1.71.71,0,0,0,.09-.2l.06-.2,0-.13s0-.05,0-.05a.09.09,0,0,1,.07,0,.16.16,0,0,1,0,.07.53.53,0,0,1,0,.09s0,.06,0,.08,0,.09,0,.15v.43q0,.11,0,.18t0,.19v.39c0,.05,0,.08,0,.09a.39.39,0,0,1,0,.08.07.07,0,0,1-.09.05s-.07,0-.09-.09l-.06-.19a1.17,1.17,0,0,0-.07-.16.35.35,0,0,0-.12-.12.71.71,0,0,0-.27-.08l-.42-.05-.39,0-.49,0-.5,0-.43,0a6.65,6.65,0,0,0-.8,0,1.58,1.58,0,0,0-.48.11.54.54,0,0,0-.26.23,1.2,1.2,0,0,0-.11.29l0,.16a.07.07,0,0,1-.08.06A.08.08,0,0,1,13,62a.36.36,0,0,1,0-.16l0-.49v-.54a.3.3,0,0,1,0,0l0-.06a.39.39,0,0,1,.14-.11l.33-.17.2-.1.24-.12,1-.45.89-.4q.46-.2.87-.42l-.06-.06-.09-.07-.15-.09-.28-.15-1.8-1-.23-.12-.2-.1-.27-.13-.2-.1-.16-.08L13.14,57a.13.13,0,0,1,0-.07.6.6,0,0,1,0-.13s0-.08,0-.13,0-.1,0-.14,0-.08,0-.11Z" transform="translate(-12.96 -10.5)"/><path d="M13.38,54.37q0-.29.06-.49t0-.32,0-.19a1,1,0,0,1,0-.1q0-.17.13-.16a.09.09,0,0,1,.09.1,1,1,0,0,0,0,.19.39.39,0,0,0,.13.21.76.76,0,0,0,.4.14l2.79.36a2,2,0,0,0,.55,0A.57.57,0,0,0,17.9,54a.45.45,0,0,0,.13-.2l.06-.21a.61.61,0,0,1,.06-.16.09.09,0,0,1,.09,0s.07,0,.07,0a.25.25,0,0,1,0,.09l-.16,1s0,.1,0,.18,0,.17,0,.26,0,.17,0,.25,0,.12,0,.15a.37.37,0,0,1,0,.11.08.08,0,0,1-.09,0l-.06,0a.2.2,0,0,1,0-.12v-.1a.45.45,0,0,0,0-.12.47.47,0,0,0-.24-.18,2.42,2.42,0,0,0-.61-.14l-2.66-.35a1.35,1.35,0,0,0-.44,0,.48.48,0,0,0-.24.12.44.44,0,0,0-.13.25,1.46,1.46,0,0,1-.06.24.37.37,0,0,1-.05.11.09.09,0,0,1-.08,0,.05.05,0,0,1,0,0,.3.3,0,0,1,0-.08.32.32,0,0,1,0-.08v0l0-.14,0-.18,0-.18Z" transform="translate(-12.96 -10.5)"/><path d="M16.16,52.7a2.52,2.52,0,0,1-.92-.39,3.1,3.1,0,0,1-.7-.67,2.17,2.17,0,0,1-.2-.31A2.32,2.32,0,0,1,14.2,51a2.61,2.61,0,0,1-.13-.68,2.65,2.65,0,0,1,.05-.69,2.16,2.16,0,0,1,.14-.42,2.74,2.74,0,0,1,.18-.34,2.23,2.23,0,0,1,.22-.31.47.47,0,0,0,.12-.21.09.09,0,0,0,0-.08l0-.06,0-.05a.07.07,0,0,1,0-.07s0-.06,0-.07h.13l.33,0,.39,0,.37,0,.24,0,.11,0a.08.08,0,0,1,0,.09.09.09,0,0,1-.08.08l-.19,0a1.34,1.34,0,0,0-.33.07,1.93,1.93,0,0,0-.45.22,2.33,2.33,0,0,0-.56.5,1.68,1.68,0,0,0-.34.72,1.51,1.51,0,0,0,0,.65,1.62,1.62,0,0,0,.27.6,1.93,1.93,0,0,0,.51.48,2.12,2.12,0,0,0,.73.29,2.72,2.72,0,0,0,.94,0,2.43,2.43,0,0,0,.82-.26,2,2,0,0,0,.63-.51,1.68,1.68,0,0,0,.34-.72,1.76,1.76,0,0,0,0-.49,2.5,2.5,0,0,0-.2-.84,2.13,2.13,0,0,0-.15-.29l-.1-.17a.19.19,0,0,1,0-.11s0-.06.08,0l.11.08a1.41,1.41,0,0,1,.19.21,2.58,2.58,0,0,1,.21.34,2.28,2.28,0,0,1,.17.46,2.62,2.62,0,0,1,.08.57,2.78,2.78,0,0,1-.07.68,3,3,0,0,1-.31.84,2.12,2.12,0,0,1-.56.65,2,2,0,0,1-.81.37A2.52,2.52,0,0,1,16.16,52.7Z" transform="translate(-12.96 -10.5)"/><path d="M15.66,44.48q.07-.2.14-.43l.13-.45.1-.37.05-.19a3.61,3.61,0,0,1,.18-.37,1.38,1.38,0,0,1,.21-.29,1.59,1.59,0,0,1,.35-.27,1.35,1.35,0,0,1,.36-.14,1.12,1.12,0,0,1,.35,0,1.22,1.22,0,0,1,.32.07,1.08,1.08,0,0,1,.34.19,1.28,1.28,0,0,1,.21.24.75.75,0,0,1,.11.25q0,.12,0,.24t0,.21,0,.11h.08l.15,0,.2-.06.22-.06.63-.14.65-.14a2,2,0,0,0,.37-.12.37.37,0,0,0,.21-.21l0-.11,0-.11a.07.07,0,0,1,.11,0,.17.17,0,0,1,.1.11.65.65,0,0,1,0,.19,1.21,1.21,0,0,1,0,.21.82.82,0,0,1,0,.18.83.83,0,0,1-.35.42,2.46,2.46,0,0,1-.59.26l-.38.09-.41.08-.4.07-.35.07-.19.05a.4.4,0,0,0-.16.09.52.52,0,0,0-.1.13l-.09.16-.07.15,0,.1a.52.52,0,0,0-.05.26s.07.09.19.14l.57.2.4.13.23.07.16,0a.31.31,0,0,0,.23,0,.74.74,0,0,0,.2-.19.62.62,0,0,0,.09-.14l.07-.13q.05-.08.12-.05a.12.12,0,0,1,.07.12.45.45,0,0,1,0,.19l-.08.17-.12.26-.12.26-.07.17,0,.16L20,46.4l-.06.23,0,.12a.08.08,0,0,1-.07.06h-.09s-.06,0,0-.1a.57.57,0,0,0,0-.17.78.78,0,0,0-.09-.25.61.61,0,0,0-.3-.23L19.17,46l-.23-.09-.28-.1-.28-.11-.84-.32-.86-.32-.36-.11-.25,0a.43.43,0,0,0-.17,0l-.12.05a.45.45,0,0,0-.16.17l-.09.19-.07.15a.07.07,0,0,1-.09,0,.09.09,0,0,1-.06-.09.57.57,0,0,1,0-.17l.06-.16.09-.22.1-.23Zm.5-.85a.81.81,0,0,0-.06.26.24.24,0,0,0,.06.17.51.51,0,0,0,.18.12l.29.12.4.15.3.11.22.08.16.06h.08l0,0a.34.34,0,0,0,.13-.16,3.44,3.44,0,0,0,.14-.33,4.73,4.73,0,0,0,.15-.48,1,1,0,0,0,0-.4.58.58,0,0,0-.15-.32,1,1,0,0,0-.39-.23,1.38,1.38,0,0,0-.54-.09,1,1,0,0,0-.52.18,1.09,1.09,0,0,0-.2.16,1.16,1.16,0,0,0-.18.24,1.23,1.23,0,0,0-.08.18Z" transform="translate(-12.96 -10.5)"/><path d="M18.34,38.08l.14-.3.11-.22.08-.16.08-.17,0-.1,0-.08,0-.11s0-.07.07-.08a.16.16,0,0,1,.1,0l.15.07.23.1.23.1.15.07.13.09a.09.09,0,0,1,0,.12.07.07,0,0,1-.1,0l-.17-.07-.18,0a.41.41,0,0,0-.22,0l-.17.1a.91.91,0,0,0-.18.18,2.89,2.89,0,0,0-.2.3q-.11.18-.24.45t-.12.27a.29.29,0,0,0,0,.19.33.33,0,0,0,.12.16,1.71,1.71,0,0,0,.28.17l.86.42q.27.13.33,0l.26-.52a1.39,1.39,0,0,0,.15-.43.5.5,0,0,0,0-.27.52.52,0,0,0-.1-.15l-.1-.11A.43.43,0,0,1,20,38a.11.11,0,0,1,0-.08.07.07,0,0,1,.07,0l.09,0,.09,0,.16.09.18.1.12.07.16.07.24.1.23.09.11,0,.09.07a.07.07,0,0,1,0,.09.08.08,0,0,1-.08,0l-.14,0-.29,0a.38.38,0,0,0-.27.09l-.09.1-.09.12-.15.24-.18.33-.08.18a.18.18,0,0,0,0,.14s0,0,.08.08l.18.11.24.13.25.13.51.24a.89.89,0,0,0,.33.09.32.32,0,0,0,.23-.09,1,1,0,0,0,.19-.29,3.53,3.53,0,0,0,.17-.41,3.1,3.1,0,0,0,.11-.41,2.9,2.9,0,0,0,.05-.37,1.1,1.1,0,0,0,0-.29,1.06,1.06,0,0,0-.11-.31l-.13-.22-.06-.09a.06.06,0,0,1,0-.07.06.06,0,0,1,.07,0l.07,0,.12.08.14.12a1.72,1.72,0,0,1,.29.34,1,1,0,0,1,.15.37.63.63,0,0,1,0,.26,1.58,1.58,0,0,1-.11.27l-.17.31-.26.45-.25.45-.16.3q-.06.11-.12.27l-.11.3-.09.25,0,.12a.1.1,0,0,1-.15.06,0,0,0,0,1,0,0v-.16a.74.74,0,0,0,0-.13.49.49,0,0,0-.23-.38,2.43,2.43,0,0,0-.37-.22l-1-.47-.61-.31L18.84,40l-.52-.24a.69.69,0,0,0-.32-.06.42.42,0,0,0-.25.13,3.65,3.65,0,0,0-.28.32s0,0-.07,0-.07,0-.06-.07a.29.29,0,0,1,0-.08l.15-.3.16-.31.14-.28.11-.22.22-.44Z" transform="translate(-12.96 -10.5)"/><path d="M20.58,36.54a1.36,1.36,0,0,1-.48-.47,1.31,1.31,0,0,1-.18-.61,1.64,1.64,0,0,1,.26-.94,1.58,1.58,0,0,1,.23-.29l.24-.22.2-.15a.45.45,0,0,0,.12-.12.22.22,0,0,0,0-.11.22.22,0,0,1,0-.11s.07,0,.12,0l.19.1.52.25.38.19.08.07a.08.08,0,0,1-.05.13h-.1l-.1,0-.11,0a1.54,1.54,0,0,0-.43,0,1.63,1.63,0,0,0-.44.08,1.49,1.49,0,0,0-.4.2,1.11,1.11,0,0,0-.31.33,1.08,1.08,0,0,0-.13.31,1,1,0,0,0,0,.33.77.77,0,0,0,.1.3.65.65,0,0,0,.24.24A.6.6,0,0,0,21,36a1.68,1.68,0,0,0,.47-.22l.27-.2.27-.22.28-.22.29-.19A1.47,1.47,0,0,1,23,34.8a1.25,1.25,0,0,1,.44,0l.32.07a1.36,1.36,0,0,1,.32.14,1.21,1.21,0,0,1,.35.33,1.49,1.49,0,0,1,.23.5,1.64,1.64,0,0,1,0,.6,1.59,1.59,0,0,1-.24.65,4.44,4.44,0,0,1-.29.41,3.38,3.38,0,0,1-.33.37,1.3,1.3,0,0,1-.23.18l-.12,0a.26.26,0,0,1-.13,0l-.07,0-.12,0L23,37.94l-.15,0-.26-.06a.57.57,0,0,1-.24-.09l-.07,0-.08-.07-.06-.07s0,0,0-.06.07,0,.15,0l.31.05H23a2,2,0,0,0,.46-.06,1.51,1.51,0,0,0,.45-.2,1.18,1.18,0,0,0,.37-.39,1.27,1.27,0,0,0,.15-.36,1,1,0,0,0,0-.37.87.87,0,0,0-.12-.35.86.86,0,0,0-.29-.28.69.69,0,0,0-.48-.12,1.25,1.25,0,0,0-.45.18,3.89,3.89,0,0,0-.47.34,4.83,4.83,0,0,1-.5.37,4.21,4.21,0,0,1-.54.3,1,1,0,0,1-1-.07Z" transform="translate(-12.96 -10.5)"/><path d="M22.84,30.78l.19-.27.14-.2.1-.15.11-.16.06-.09,0-.07.07-.1s.06-.06.08-.07a.16.16,0,0,1,.1,0l.14.09.21.14.21.14.14.09.12.11s0,.07,0,.12a.07.07,0,0,1-.1,0l-.15-.09-.17-.06a.41.41,0,0,0-.22,0l-.18.07a.91.91,0,0,0-.2.14,2.88,2.88,0,0,0-.25.26q-.14.16-.32.4l-.17.25a.29.29,0,0,0,0,.18.33.33,0,0,0,.09.18,1.71,1.71,0,0,0,.25.21l.77.57q.24.18.32.07l.34-.47a1.39,1.39,0,0,0,.23-.4.5.5,0,0,0,0-.27.52.52,0,0,0-.07-.17l-.08-.13a.43.43,0,0,1-.06-.13.1.1,0,0,1,0-.08.07.07,0,0,1,.08,0l.08,0,.08.06.15.12.16.13.11.09.14.1.22.14.21.13.1.06.08.08a.07.07,0,0,1,0,.09.08.08,0,0,1-.09,0l-.13,0-.28-.08a.38.38,0,0,0-.28,0L25,32l-.11.11-.19.21-.23.29-.11.17a.18.18,0,0,0,0,.13.21.21,0,0,0,.07.09l.16.14.22.17.23.17.46.33a.89.89,0,0,0,.31.14.32.32,0,0,0,.24,0,1,1,0,0,0,.24-.25,3.54,3.54,0,0,0,.24-.37,3.1,3.1,0,0,0,.18-.39,2.89,2.89,0,0,0,.11-.36,1.1,1.1,0,0,0,0-.29,1.06,1.06,0,0,0-.06-.32l-.09-.24,0-.1a.06.06,0,0,1,0-.07.06.06,0,0,1,.07,0l.07,0,.11.1.12.14a1.72,1.72,0,0,1,.23.38,1,1,0,0,1,.09.39.63.63,0,0,1-.06.26,1.58,1.58,0,0,1-.15.25L27,33.3l-.33.4-.33.4-.21.27-.16.24-.16.27-.13.23-.07.12a.1.1,0,0,1-.16,0,0,0,0,0,1,0-.05l0-.16a.74.74,0,0,0,0-.13.49.49,0,0,0-.16-.42,2.44,2.44,0,0,0-.33-.28l-.87-.63-.55-.41L23,32.79l-.47-.33a.69.69,0,0,0-.31-.11.42.42,0,0,0-.26.08,3.64,3.64,0,0,0-.33.27s0,0-.07,0-.06-.06-.05-.08l0-.08.2-.27L22,32l.19-.25.15-.19.29-.39Z" transform="translate(-12.96 -10.5)"/><path d="M25.86,26.92l.62.2.7.23.72.24.66.22.52.17.32.11.63.21.39.11a.66.66,0,0,0,.25,0,.64.64,0,0,0,.2-.08l0,0,.06,0,.07,0,0,0,.05,0s.05.06,0,.09l0,.06-.1.1-.17.17-.18.17-.12.12-.15.18-.17.21-.15.19-.08.1,0,.06,0,.06-.06,0a.06.06,0,0,1-.07,0,.09.09,0,0,1,0-.1.55.55,0,0,1,0-.11.69.69,0,0,0,.07-.28.37.37,0,0,0-.14-.27l-.06,0-.09,0-.18-.08-.32-.13-.27-.09a.32.32,0,0,0-.19,0,.64.64,0,0,0-.21.15l-.31.33-.19.21-.2.23-.17.2-.11.14a.59.59,0,0,0,0,.3,1.91,1.91,0,0,0,.12.35,2.87,2.87,0,0,0,.17.32,1,1,0,0,0,.14.19.29.29,0,0,0,.17.08.53.53,0,0,0,.2,0,.84.84,0,0,0,.37-.23.33.33,0,0,1,.12-.1.1.1,0,0,1,.1,0s.05.06,0,.09a1,1,0,0,1-.13.17l-.1.1-.16.16-.16.16-.1.1-.14.17L28,31.9l0,0-.06.08-.08.11s-.06,0-.09,0l-.06,0a.07.07,0,0,1,0-.06s0-.1,0-.22a.54.54,0,0,0,0-.21,2.32,2.32,0,0,0-.1-.33q-.08-.21-.22-.53L27,30l-.24-.57-.3-.74-.33-.83L25.8,27ZM26.51,28l.07.18.11.28.13.32.13.31.12.25a.53.53,0,0,0,.08.13.1.1,0,0,0,.14,0l0,0,.07-.07.12-.13.2-.22.1-.11.14-.17.13-.17a.45.45,0,0,0,.07-.11.05.05,0,0,0,0-.06L28,28.31l-.38-.13-.39-.13L27,28l-.26-.07q-.14,0-.19,0A.07.07,0,0,0,26.51,28Z" transform="translate(-12.96 -10.5)"/><path d="M28.92,24l.33-.31.33-.33.26-.27.13-.14.33-.25a1.39,1.39,0,0,1,.33-.16,1.59,1.59,0,0,1,.43-.07,1.35,1.35,0,0,1,.38,0,1.12,1.12,0,0,1,.32.14,1.22,1.22,0,0,1,.25.21,1.08,1.08,0,0,1,.21.33,1.28,1.28,0,0,1,.08.31.75.75,0,0,1,0,.27q0,.12-.07.23l-.08.2q0,.09,0,.12l.07,0,.15,0,.2,0,.22,0,.62.17.64.18a2,2,0,0,0,.38.07.37.37,0,0,0,.28-.08l.08-.09.07-.08a.07.07,0,0,1,.12,0,.17.17,0,0,1,0,.14.65.65,0,0,1-.06.19,1.21,1.21,0,0,1-.11.18.82.82,0,0,1-.12.14.83.83,0,0,1-.5.2,2.46,2.46,0,0,1-.64,0l-.38-.1-.39-.13-.38-.13-.34-.1-.19,0a.4.4,0,0,0-.19,0l-.15.06-.15.1-.13.1-.08.07a.52.52,0,0,0-.17.2s0,.12.1.21l.41.45.29.31.17.17.12.11a.31.31,0,0,0,.22.08.74.74,0,0,0,.27-.07l.15-.08.12-.08q.08,0,.13,0a.12.12,0,0,1,0,.14.45.45,0,0,1-.12.15l-.15.12-.23.17-.23.17-.14.11-.12.12-.17.18-.16.17-.09.09a.08.08,0,0,1-.09,0l-.07,0a.08.08,0,0,1,0-.11.57.57,0,0,0,.08-.16.78.78,0,0,0,0-.26.61.61,0,0,0-.15-.35L31.29,27l-.16-.19-.2-.22-.2-.23-.59-.68-.6-.69a3.34,3.34,0,0,0-.26-.27l-.2-.16a.43.43,0,0,0-.16-.07H28.8a.45.45,0,0,0-.22.07l-.17.12-.13.1a.07.07,0,0,1-.1,0,.09.09,0,0,1,0-.11.57.57,0,0,1,.12-.13l.13-.11.19-.15.19-.15Zm.85-.51a.81.81,0,0,0-.18.2.24.24,0,0,0,0,.18.51.51,0,0,0,.1.19l.2.24.28.32.21.24.16.17.11.12a.12.12,0,0,0,.07,0h.05a.34.34,0,0,0,.19-.07l.27-.22a4.74,4.74,0,0,0,.36-.35,1,1,0,0,0,.22-.34.58.58,0,0,0,0-.35,1,1,0,0,0-.23-.39,1.38,1.38,0,0,0-.44-.34,1,1,0,0,0-.55-.09,1.09,1.09,0,0,0-.25,0,1.16,1.16,0,0,0-.27.13l-.16.12Z" transform="translate(-12.96 -10.5)"/><path d="M34,22.91a2.52,2.52,0,0,1-.41-.91,3.1,3.1,0,0,1-.06-1,2.17,2.17,0,0,1,.07-.37,2.31,2.31,0,0,1,.13-.36,2.61,2.61,0,0,1,.37-.58,2.65,2.65,0,0,1,.51-.47,2.16,2.16,0,0,1,.38-.21l.36-.13a2.24,2.24,0,0,1,.37-.08.47.47,0,0,0,.23-.07.09.09,0,0,0,0-.06.56.56,0,0,0,0-.07s0,0,0-.07a.07.07,0,0,1,0-.06s.06,0,.08,0l.09.09.22.25.27.29.25.27.16.19a.31.31,0,0,1,0,.11.08.08,0,0,1,0,.09.09.09,0,0,1-.11,0l-.15-.12a1.34,1.34,0,0,0-.29-.17,1.93,1.93,0,0,0-.49-.15,2.33,2.33,0,0,0-.75,0,1.68,1.68,0,0,0-.74.29,1.51,1.51,0,0,0-.44.48,1.62,1.62,0,0,0-.21.62,1.93,1.93,0,0,0,0,.7,2.11,2.11,0,0,0,.33.71,2.72,2.72,0,0,0,.66.67,2.43,2.43,0,0,0,.78.37,2,2,0,0,0,.81.05,1.68,1.68,0,0,0,.74-.29,1.75,1.75,0,0,0,.36-.33,2.5,2.5,0,0,0,.42-.75,2.13,2.13,0,0,0,.09-.32q0-.11,0-.19a.19.19,0,0,1,.05-.1s.06,0,.09,0a.38.38,0,0,1,0,.13,1.4,1.4,0,0,1,0,.28,2.58,2.58,0,0,1-.08.39,2.27,2.27,0,0,1-.19.46,2.62,2.62,0,0,1-.33.48,2.78,2.78,0,0,1-.51.45,3,3,0,0,1-.8.4,2.12,2.12,0,0,1-.85.1,2,2,0,0,1-.84-.29A2.52,2.52,0,0,1,34,22.91Z" transform="translate(-12.96 -10.5)"/>
<path d="M39.68,16.42a.1.1,0,0,1,0-.14l.12-.09.31-.15.5-.25.36-.2.27-.15q.15-.08.21,0s0,.08,0,.1l-.14.09a.41.41,0,0,0-.09.12.28.28,0,0,0,0,.16.54.54,0,0,0,0,.12.93.93,0,0,0,.05.14l.09.18.13.26.14.28.12.23.19.36.2.36.19.33.15.27.26.45a1.66,1.66,0,0,0,.2.28,1,1,0,0,0,.16.16l.14.07.11,0h.09l.18-.06.13-.06.09,0s0,0,.05,0a.09.09,0,0,1,0,.11.57.57,0,0,1-.14.1l-1.07.55-.06,0-.12.07-.14.08-.13.07q-.09,0-.13,0s0-.07.05-.14l.13-.19a.27.27,0,0,0,.05-.12.43.43,0,0,0,0-.17,1.74,1.74,0,0,0-.1-.27q-.07-.16-.2-.4l-.33-.6-.09-.16a.19.19,0,0,0-.1-.09.28.28,0,0,0-.17,0l-.28.13L40,18.9l-.16.09-.18.11-.18.11-.13.11a.11.11,0,0,0,0,.12.79.79,0,0,0,.07.16l.17.31.32.58a1.19,1.19,0,0,0,.25.34.6.6,0,0,0,.25.14.52.52,0,0,0,.24,0l.22-.07.15-.06s.08,0,.1,0A.1.1,0,0,1,41,21l-.12.09-.12.06-.2.1-.23.11-.22.11-.27.15-.27.16-.21.13-.1.06a.09.09,0,0,1-.14,0q0-.08,0-.12l.14-.11a.4.4,0,0,0,.1-.2.69.69,0,0,0-.08-.39q-.06-.14-.17-.33l-.26-.5-.39-.76-.41-.77-.28-.49a1.27,1.27,0,0,0-.21-.28.3.3,0,0,0-.23-.09l-.2,0L37,18l-.12.05h-.09a.1.1,0,0,1-.07-.06s0-.08,0-.12l.14-.09.14-.07.21-.1.21-.1.13-.06.18-.1.24-.15.22-.14L38.4,17q.15-.08.2,0a.06.06,0,0,1,0,.07l-.07.07a.8.8,0,0,0-.14.15.39.39,0,0,0,0,.29,1.44,1.44,0,0,0,.1.31q.08.19.23.46l.24.44q.09.16.19.16a.63.63,0,0,0,.29-.1l1.7-.92.1-.07a.13.13,0,0,0,0-.09.4.4,0,0,0,0-.15q0-.09-.12-.25l-.29-.54a1.44,1.44,0,0,0-.27-.38.44.44,0,0,0-.23-.11.37.37,0,0,0-.17,0L40,16.4l-.18.06A.08.08,0,0,1,39.68,16.42Z" transform="translate(-12.96 -10.5)"/><path d="M46.27,13.31l.45.47.51.53.52.55.48.5.38.4.23.25.45.48a3.6,3.6,0,0,0,.3.28.66.66,0,0,0,.22.13.64.64,0,0,0,.21,0h.26l0,0s0,.08,0,.1l-.06,0-.13,0-.23.06-.24.07-.16,0-.22.08-.25.1-.22.09-.12.05-.07,0-.07,0h-.07a.06.06,0,0,1,0,0,.09.09,0,0,1,0-.1l.09-.08a.69.69,0,0,0,.19-.22.37.37,0,0,0,0-.3l0-.07-.06-.09-.12-.15-.22-.27-.19-.21a.32.32,0,0,0-.17-.08.64.64,0,0,0-.25,0l-.43.14-.27.09-.28.1-.25.1-.16.07a.59.59,0,0,0-.14.27,1.91,1.91,0,0,0-.06.37,2.86,2.86,0,0,0,0,.36,1,1,0,0,0,0,.24.29.29,0,0,0,.12.15.52.52,0,0,0,.19.08.79.79,0,0,0,.22,0,.8.8,0,0,0,.21,0,.33.33,0,0,1,.15,0,.1.1,0,0,1,.07.07s0,.08,0,.1l-.2.09-.14,0-.21.06-.21.06-.14,0-.2.08-.17.08-.05,0-.09,0-.12.06a.1.1,0,0,1-.1,0l0,0a.07.07,0,0,1,0-.07l.14-.18a.54.54,0,0,0,.1-.19,2.33,2.33,0,0,0,.07-.34q0-.22.06-.57l.07-.88q0-.25.06-.62t.09-.79q0-.42.11-.89l.11-.91Zm.06,1.27,0,.19,0,.3,0,.35q0,.18,0,.34t0,.27a.53.53,0,0,0,0,.15.1.1,0,0,0,.13.07h.06l.1,0,.17-.06.28-.1.14-.05.21-.08.2-.08.11-.07a.05.05,0,0,0,0-.06l-.13-.16-.27-.29-.28-.3-.18-.18-.2-.18q-.11-.1-.17-.07A.07.07,0,0,0,46.33,14.58Z" transform="translate(-12.96 -10.5)"/><path d="M49.31,12.47s0-.07.07-.09l.21-.06.26-.06.26-.07.2-.07.18-.06h.1l.11,0a4.13,4.13,0,0,1,.44.31l.68.5.53.39.59.43.44.33.47.35.17.12.2.14.17.12.09,0s0-.07,0-.2,0-.27-.06-.43l0-.24,0-.22-.15-.6q-.07-.27-.13-.49L54,12.33a2,2,0,0,0-.09-.26l0-.06,0,0a.52.52,0,0,0-.16-.16.67.67,0,0,0-.19-.08l-.19,0H53q-.08,0-.09,0a.09.09,0,0,1,0-.1.4.4,0,0,1,.15-.06l.2,0,.26,0,.24,0,.15,0,.15,0,.21-.07.2-.07.13,0q.12,0,.14.08s0,.09-.13.14a1.24,1.24,0,0,0-.2.15.47.47,0,0,0-.14.29,2,2,0,0,0,.07.64l.09.37q0,.19.1.4l.06.26.07.37.08.41.07.37.06.27.06.3.06.28,0,.2a1.39,1.39,0,0,1,0,.29A.08.08,0,0,1,55,16a.25.25,0,0,1-.16-.06l-.31-.21-.45-.33-.54-.4-.6-.43-.59-.43-.56-.41-.46-.34L51,13.21q-.12-.08-.15-.07s0,0,0,.1,0,.14,0,.23,0,.2,0,.31,0,.22.06.32l.06.28,0,.16.15.63q.08.33.14.55l0,.17,0,.13a.52.52,0,0,0,.22.28.68.68,0,0,0,.39.11h.27q.15,0,.16.06a.09.09,0,0,1-.06.11l-.18.06-.15,0-.2,0-.2,0-.14,0-.17,0-.26.08-.25.07-.15,0a.19.19,0,0,1-.13,0,.08.08,0,0,1,0,0s0,0,0-.07l.11-.1.12-.11.09-.09a.56.56,0,0,0,.07-.17,1,1,0,0,0,0-.22,2.13,2.13,0,0,0,0-.31q0-.18-.06-.43t-.15-.83q-.09-.49-.23-1.11a1.59,1.59,0,0,0-.3-.71.58.58,0,0,0-.34-.2l-.31,0H49.4A.09.09,0,0,1,49.31,12.47Z" transform="translate(-12.96 -10.5)"/><path d="M56.51,11l.34-.05.39-.06.34-.05.21,0,.6,0a3.39,3.39,0,0,1,.48,0,2.58,2.58,0,0,1,.4.09,2.53,2.53,0,0,1,.35.14,2,2,0,0,1,.86.75,2.41,2.41,0,0,1,.32,1A2.56,2.56,0,0,1,60,15a2.06,2.06,0,0,1-.68.41,3.56,3.56,0,0,1-.91.2l-.28,0H57l-.16,0-.24,0-.24,0-.16,0q-.15,0-.16-.07a.08.08,0,0,1,0-.07l.12-.07.16-.09a.41.41,0,0,0,.12-.14.67.67,0,0,0,.07-.23,1.58,1.58,0,0,0,0-.35L56.27,12a1.25,1.25,0,0,0-.09-.4.5.5,0,0,0-.16-.2.42.42,0,0,0-.2-.07l-.21,0h-.19s-.08,0-.08-.1a.07.07,0,0,1,0-.08l.12,0H56Zm.71,3.54q0,.15,0,.33a.67.67,0,0,0,.12.29.55.55,0,0,0,.34.18,1.86,1.86,0,0,0,.58,0,2.29,2.29,0,0,0,.79-.21A1.7,1.7,0,0,0,60,14a2.28,2.28,0,0,0,.06-.84,3.56,3.56,0,0,0-.09-.46,2.45,2.45,0,0,0-.24-.6,2.26,2.26,0,0,0-.47-.58,1.84,1.84,0,0,0-.77-.4,3.17,3.17,0,0,0-1.11-.06,1.19,1.19,0,0,0-.26.05.3.3,0,0,0-.15.1.32.32,0,0,0-.06.17,1.54,1.54,0,0,0,0,.26Z" transform="translate(-12.96 -10.5)"/><path d="M64.28,10.59h1.29l.59.06a3.39,3.39,0,0,1,.47.1,2.58,2.58,0,0,1,.38.15,2.54,2.54,0,0,1,.32.19,2,2,0,0,1,.73.87,2.41,2.41,0,0,1,.16,1,2.56,2.56,0,0,1-1.17,2.08,2.06,2.06,0,0,1-.73.31,3.56,3.56,0,0,1-.93.06l-.28,0-.4-.05-.4-.05-.26,0h-.81q-.15,0-.15-.09a.08.08,0,0,1,0-.06l.12,0,.17-.06a.41.41,0,0,0,.14-.12.67.67,0,0,0,.1-.21,1.58,1.58,0,0,0,.05-.34l.16-2.81a1.25,1.25,0,0,0,0-.41.5.5,0,0,0-.13-.23.43.43,0,0,0-.19-.1l-.21-.05-.18,0s-.07,0-.07-.11a.07.07,0,0,1,0-.07h.26l.13,0,.25,0Zm.16,3.61q0,.15,0,.33a.67.67,0,0,0,.07.31.55.55,0,0,0,.3.23,1.86,1.86,0,0,0,.57.11,2.29,2.29,0,0,0,.82-.09,1.7,1.7,0,0,0,1.08-1,2.28,2.28,0,0,0,.19-.82,3.57,3.57,0,0,0,0-.47,2.45,2.45,0,0,0-.15-.63,2.26,2.26,0,0,0-.37-.64,1.84,1.84,0,0,0-.7-.51,3.17,3.17,0,0,0-1.08-.23,1.19,1.19,0,0,0-.27,0,.3.3,0,0,0-.16.08.32.32,0,0,0-.08.16,1.54,1.54,0,0,0,0,.25Z" transform="translate(-12.96 -10.5)"/><path d="M71.71,11.21l.16.63.18.72.18.73.17.67.13.54.08.33q.09.4.16.64a3.62,3.62,0,0,0,.12.39.66.66,0,0,0,.12.22.64.64,0,0,0,.17.13l0,0,.07,0,.07,0,0,0a.13.13,0,0,1,0,.06c0,.05,0,.08-.05.08h-.07l-.14,0-.23-.06-.24-.06-.16,0-.23,0-.27,0-.24,0-.13,0H71.5l-.07,0a.06.06,0,0,1,0-.06.09.09,0,0,1,.07-.07l.12,0a.69.69,0,0,0,.27-.09.37.37,0,0,0,.15-.26s0-.05,0-.08a.56.56,0,0,0,0-.1l0-.19-.06-.34a2.21,2.21,0,0,0-.07-.27.32.32,0,0,0-.11-.16.64.64,0,0,0-.23-.1l-.44-.09-.28,0-.3,0-.26,0-.17,0a.59.59,0,0,0-.26.16,1.91,1.91,0,0,0-.23.29,2.88,2.88,0,0,0-.18.31,1,1,0,0,0-.09.22.29.29,0,0,0,0,.19.53.53,0,0,0,.12.16.84.84,0,0,0,.39.19.34.34,0,0,1,.15.05.1.1,0,0,1,0,.1q0,.08-.06.08l-.22,0-.14,0-.22,0-.21,0-.14,0-.21,0h-.48s-.07,0-.08,0a.12.12,0,0,1,0-.06.07.07,0,0,1,0-.05l.21-.09a.54.54,0,0,0,.18-.12A2.34,2.34,0,0,0,68.9,15q.14-.18.33-.47l.49-.74.35-.51.46-.64.53-.72.55-.74Zm-.57,1.14-.12.16-.18.24-.2.28-.19.28-.15.23a.53.53,0,0,0-.07.13.1.1,0,0,0,.08.12l.06,0,.1,0,.18,0,.3.05.15,0,.22,0,.21,0h.13a.05.05,0,0,0,0,0,1,1,0,0,0,0-.2l-.09-.39-.1-.4-.07-.25-.08-.26q0-.14-.12-.15A.07.07,0,0,0,71.14,12.35Z" transform="translate(-12.96 -10.5)"/><path d="M73.92,12.79q.09-.29.19-.53l.14-.34a.26.26,0,0,1,.09-.12.16.16,0,0,1,.13,0l.16,0,.21.07.34.11.56.17.84.25,1.22.34.42.1.24,0q.13,0,.15.09a.24.24,0,0,1,0,.15s0,.1,0,.17,0,.14,0,.22,0,.14,0,.21l0,.13a.31.31,0,0,1-.06.13.09.09,0,0,1-.09,0,.09.09,0,0,1-.07-.07.69.69,0,0,1,0-.13,1.34,1.34,0,0,0,0-.18.46.46,0,0,0-.08-.2.5.5,0,0,0-.11-.13.85.85,0,0,0-.2-.12,6,6,0,0,0-.77-.26l-.2,0a.16.16,0,0,0-.14.07.76.76,0,0,0-.12.25q-.06.18-.15.5l-.07.26-.62,2.24a1,1,0,0,0,0,.35.49.49,0,0,0,.09.22A.59.59,0,0,0,76,17l.25.11.16.09a.09.09,0,0,1,0,.1.09.09,0,0,1-.08.07l-.15,0-.14,0-.28-.09-.3-.1-.2-.06-.21,0-.31-.06-.31-.07-.21-.05q-.24-.07-.21-.17a.07.07,0,0,1,.07-.06h.14l.18,0a.62.62,0,0,0,.2,0,.46.46,0,0,0,.18-.1.66.66,0,0,0,.16-.27l.05-.14.07-.22.08-.23.05-.17.09-.35.11-.41.11-.41.1-.36.14-.52.09-.32q0-.12,0-.18a.7.7,0,0,0,0-.11.19.19,0,0,0,0-.09l-.06-.05-.21-.1-.15,0A2.83,2.83,0,0,0,75,12.4a1.06,1.06,0,0,0-.38,0,.66.66,0,0,0-.31.22,4.94,4.94,0,0,0-.31.43s-.06,0-.12,0,0,0,0,0a.43.43,0,0,1,0-.09l0-.1Z" transform="translate(-12.96 -10.5)"/><path d="M81.42,14l0,.65q0,.36,0,.74t0,.76q0,.38,0,.69t0,.55q0,.24,0,.34,0,.41,0,.66a3.59,3.59,0,0,0,0,.41.66.66,0,0,0,.08.24.64.64,0,0,0,.14.16l0,0,.06,0,.06.05,0,0a.13.13,0,0,1,0,.06s0,.07-.07.07h-.07l-.13-.06-.22-.1-.22-.11-.15-.07L81,19l-.26-.09-.23-.08-.13,0-.08,0-.07,0-.06,0a.06.06,0,0,1,0-.07.09.09,0,0,1,.08-.06h.12a.69.69,0,0,0,.29,0,.37.37,0,0,0,.2-.23l0-.07a.56.56,0,0,0,0-.1s0-.11,0-.2,0-.2,0-.35a2.22,2.22,0,0,0,0-.28.32.32,0,0,0-.08-.18.64.64,0,0,0-.21-.14l-.42-.18-.26-.1-.28-.11-.25-.09-.17-.05a.59.59,0,0,0-.28.11,1.91,1.91,0,0,0-.29.24,2.87,2.87,0,0,0-.24.27,1,1,0,0,0-.13.2.29.29,0,0,0,0,.19.53.53,0,0,0,.09.18.84.84,0,0,0,.35.26.33.33,0,0,1,.13.08.1.1,0,0,1,0,.1s0,.07-.07.07l-.21-.07-.13-.06-.2-.09-.2-.09-.13-.06-.2-.07-.18,0-.06,0-.09,0-.13,0s-.07,0-.07-.07a.12.12,0,0,1,0-.06.07.07,0,0,1,.05,0l.22,0a.54.54,0,0,0,.2-.08,2.33,2.33,0,0,0,.27-.21l.42-.39L79,16.1l.45-.43.58-.54.66-.6.68-.61Zm-.79,1-.15.13-.22.2-.25.24-.24.23-.19.2a.53.53,0,0,0-.09.12.1.1,0,0,0,.05.13l.05,0,.09,0,.17.07.28.11.14.06.21.08.2.07.13,0a.05.05,0,0,0,.05,0,1,1,0,0,0,0-.21q0-.18,0-.4t0-.41q0-.19,0-.25t0-.27-.08-.17A.07.07,0,0,0,80.63,15Z" transform="translate(-12.96 -10.5)"/>
<path d="M88.23,17.27l-.07.65-.08.73q0,.38-.08.75t-.08.69l-.06.55,0,.34q-.05.41-.08.66a3.6,3.6,0,0,0,0,.41.66.66,0,0,0,0,.25.64.64,0,0,0,.12.18l0,0,.06.05.05.06,0,0a.12.12,0,0,1,0,.06s-.05.06-.08.06l-.07,0-.12-.08-.2-.14-.21-.14-.14-.09L87,22.2l-.24-.13L86.57,22l-.12-.06-.07,0-.07,0-.05-.05a.06.06,0,0,1,0-.07.09.09,0,0,1,.09,0l.12,0a.69.69,0,0,0,.29,0,.37.37,0,0,0,.23-.2l0-.07a.57.57,0,0,0,0-.1l0-.19.06-.34a2.23,2.23,0,0,0,0-.28.32.32,0,0,0,0-.19.64.64,0,0,0-.19-.17l-.39-.24-.24-.14-.26-.15-.23-.12-.16-.08a.59.59,0,0,0-.3.07,1.91,1.91,0,0,0-.32.19l-.28.23a1,1,0,0,0-.16.18.29.29,0,0,0,0,.18.53.53,0,0,0,.06.19.84.84,0,0,0,.3.31.34.34,0,0,1,.12.1.1.1,0,0,1,0,.1S85,21.05,85,21l-.19-.1-.12-.08-.19-.12-.18-.12-.12-.08-.19-.1-.17-.08-.05,0-.09,0-.12-.06s-.06,0-.06-.08a.12.12,0,0,1,0-.06.07.07,0,0,1,.06,0h.23A.54.54,0,0,0,84,20l.3-.17.48-.32.72-.52.51-.35.66-.44.75-.49.77-.5Zm-.93.87-.16.11-.25.17-.29.2-.28.19L86.1,19l-.11.1a.1.1,0,0,0,0,.14l0,0,.09.05.15.09.26.15.13.08.19.11.19.1.12,0a.05.05,0,0,0,.06,0,1,1,0,0,0,0-.2l0-.4q0-.22,0-.41t0-.25,0-.27-.06-.18A.07.07,0,0,0,87.3,18.14Z" transform="translate(-12.96 -10.5)"/><path d="M90.83,19.06s.06,0,.11,0l.18.12.21.16.22.16.18.11.16.1.07.07a.24.24,0,0,1,0,.1,4.12,4.12,0,0,1,.05.53q0,.37.05.84l0,.66.05.72q0,.27,0,.55t0,.58l0,.21,0,.24q0,.12,0,.21a.24.24,0,0,0,0,.1s.07,0,.16-.12l.29-.32.15-.19.14-.17.36-.5.29-.41.18-.28a2,2,0,0,0,.14-.24l0-.06,0,0a.52.52,0,0,0,0-.22.67.67,0,0,0-.06-.2.89.89,0,0,0-.1-.16l-.1-.12-.12-.13s0-.07,0-.09a.09.09,0,0,1,.1,0,.4.4,0,0,1,.14.07l.15.13.19.17.18.16.12.1.13.08.19.11.18.11.11.07q.09.07,0,.16s-.09,0-.19,0l-.24-.05a.47.47,0,0,0-.31.08,2,2,0,0,0-.44.47l-.23.31-.24.33-.16.21-.24.29-.26.32-.24.29-.17.22-.19.24-.18.22-.13.16a1.39,1.39,0,0,1-.19.22.08.08,0,0,1-.1,0,.25.25,0,0,1-.06-.16q0-.13,0-.37t0-.56q0-.31,0-.67l-.06-.73q0-.38-.05-.73l0-.69q0-.32,0-.57t0-.4a.36.36,0,0,0,0-.16s0,0-.09,0l-.17.17-.21.24-.21.25-.18.22-.1.13-.39.52-.32.46-.1.15-.07.11a.52.52,0,0,0-.08.35.68.68,0,0,0,.17.37l.1.1.08.09q.1.11.06.17a.09.09,0,0,1-.12,0l-.16-.1-.12-.1-.15-.14-.15-.14-.1-.09-.15-.1-.23-.15-.22-.14L88.29,23q-.08-.06-.08-.1a.08.08,0,0,1,0-.06s0,0,.08,0h.15l.16,0h.13a.56.56,0,0,0,.17-.05l.18-.12a2.14,2.14,0,0,0,.22-.22l.29-.33.54-.65.69-.89a1.59,1.59,0,0,0,.35-.69.57.57,0,0,0-.07-.38l-.18-.26-.1-.14A.09.09,0,0,1,90.83,19.06Z" transform="translate(-12.96 -10.5)"/><path d="M97.75,24.48l-.22.61-.25.7L97,26.5l-.24.65-.19.52-.12.32-.23.62a3.59,3.59,0,0,0-.12.39.66.66,0,0,0,0,.25.64.64,0,0,0,.07.2l0,0,0,.07,0,.07,0,0,0,0s-.06.05-.09,0l-.06,0-.1-.1-.16-.18-.17-.18-.12-.12L95.42,29l-.21-.18L95,28.65l-.1-.09-.06-.05-.06,0a.15.15,0,0,1,0-.06.06.06,0,0,1,0-.06.09.09,0,0,1,.1,0l.11,0a.69.69,0,0,0,.28.08.37.37,0,0,0,.27-.14l.05-.06.05-.09.08-.18.14-.32a2.23,2.23,0,0,0,.1-.26.32.32,0,0,0,0-.19.64.64,0,0,0-.14-.21l-.32-.32-.2-.2-.22-.21-.2-.18L94.75,26a.59.59,0,0,0-.3,0,1.91,1.91,0,0,0-.36.11l-.33.16a1,1,0,0,0-.2.13.29.29,0,0,0-.08.17.52.52,0,0,0,0,.2.84.84,0,0,0,.22.38.33.33,0,0,1,.09.12.1.1,0,0,1,0,.1s-.07,0-.09,0l-.17-.14-.1-.11L93.27,27l-.15-.16-.1-.1-.16-.15-.15-.12,0,0-.08-.06-.11-.08s0-.06,0-.09a.12.12,0,0,1,0-.05.07.07,0,0,1,.06,0l.22,0a.54.54,0,0,0,.21,0l.33-.09.54-.2.82-.33.58-.22L96,25l.84-.3.87-.31Zm-1.11.62-.18.07-.28.1-.33.12-.31.12-.25.11-.13.07a.1.1,0,0,0,0,.14l0,.05.07.07.13.12.22.21.11.11.16.15.16.14.11.07a.05.05,0,0,0,.06,0,1,1,0,0,0,.09-.19l.14-.37.14-.39.08-.24.07-.26q0-.14,0-.19A.07.07,0,0,0,96.63,25.11Z" transform="translate(-12.96 -10.5)"/><path d="M100.43,27.45l.11.12.19.21.21.24.18.2a.35.35,0,0,1,.07.11.07.07,0,0,1,0,.09.11.11,0,0,1-.1,0l-.12,0-.1-.06-.11,0h-.13a.39.39,0,0,0-.15.06,2.05,2.05,0,0,0-.28.2l-.37.31-.37.3-.49.4-.49.4-.36.3-.32.29a.63.63,0,0,0-.16.24.35.35,0,0,0,0,.25,1.25,1.25,0,0,0,.21.32,3,3,0,0,0,.29.3,2.36,2.36,0,0,0,.29.22,1.77,1.77,0,0,0,.56.27,1.26,1.26,0,0,0,.45,0h.12a.08.08,0,0,1,.07,0s0,.09,0,.14l-.15.09-.19.08-.21.05-.19,0a.71.71,0,0,1-.37-.09,1.27,1.27,0,0,1-.38-.32,4.87,4.87,0,0,1-.31-.44,7.23,7.23,0,0,0-.57-.75l-.16-.17-.22-.24-.22-.23-.14-.16q-.09-.11,0-.17a.06.06,0,0,1,.08,0l.11.06a.48.48,0,0,0,.16,0,.59.59,0,0,0,.2,0,.67.67,0,0,0,.25-.13l.4-.3.53-.43.58-.47.68-.57a4.76,4.76,0,0,0,.37-.34.6.6,0,0,0,.16-.26.43.43,0,0,0,0-.27,3.51,3.51,0,0,0-.19-.37.14.14,0,0,1,0-.08.11.11,0,0,1,0-.08.07.07,0,0,1,.09,0l.09.09.09.12.14.18.13.17Z" transform="translate(-12.96 -10.5)"/><path d="M104.86,33.31a2,2,0,0,0,.26.31l.14.14q.07.1,0,.15a.07.07,0,0,1-.08,0l-.19-.12-.21-.12a.7.7,0,0,0-.21,0,2.29,2.29,0,0,0-.38,0l-.48,0-1.06,0h-.25l-.19,0a1.56,1.56,0,0,0-.3.13,4.44,4.44,0,0,0-.44.28l-.22.16-.25.19-.21.18-.12.12a.38.38,0,0,0-.05.25.67.67,0,0,0,.08.26l.1.17a.76.76,0,0,1,.07.13q0,.1,0,.13s-.07,0-.12,0a.83.83,0,0,1-.16-.18l-.1-.16-.15-.24-.15-.25-.1-.16-.13-.17-.2-.25-.2-.25-.13-.17s0-.08,0-.1a.08.08,0,0,1,0,0,.09.09,0,0,1,.09,0l.08.05.1.09.11.11.09.08.13.06.16,0a.33.33,0,0,0,.18-.07l.2-.14.27-.18.27-.18.22-.15.11-.09.11-.14a2.27,2.27,0,0,0,.14-.24q.08-.15.19-.41l.39-.9q.13-.29.2-.49a2.12,2.12,0,0,0,.1-.34.79.79,0,0,0,0-.25,1.32,1.32,0,0,0-.06-.23,1.37,1.37,0,0,1-.06-.19.08.08,0,0,1,0-.09s.11,0,.19.11l.1.16.14.24.14.24.1.16.14.18.15.17.13.14.08.1a.16.16,0,0,1,0,.11.09.09,0,0,1,0,.06.07.07,0,0,1-.1,0l-.1-.1a.61.61,0,0,0-.14-.1.14.14,0,0,0-.16,0l0,0-.08.11-.12.2q-.07.13-.16.34l-.27.62-.07.16-.06.18a1.53,1.53,0,0,0,0,.16.14.14,0,0,0,0,.09l0,0h.31l.69,0h.15l.21,0,.21,0a.57.57,0,0,0,.17-.08.31.31,0,0,0,.16-.28.7.7,0,0,0-.09-.3l-.05-.1a.37.37,0,0,1,0-.09.15.15,0,0,1,0-.08.08.08,0,0,1,0,0,.09.09,0,0,1,.08,0,.3.3,0,0,1,.12.12l.12.18.17.27.16.25Z" transform="translate(-12.96 -10.5)"/><path d="M104.72,34.91l.51-.23.34-.14a.26.26,0,0,1,.15,0,.16.16,0,0,1,.1.09l.08.15.1.2.16.32.27.51.42.77.61,1.11a4.2,4.2,0,0,0,.22.37l.13.2q.06.12,0,.17a.24.24,0,0,1-.11.1l-.15.1-.18.13-.17.12-.11.07a.31.31,0,0,1-.14,0,.09.09,0,0,1-.08,0,.09.09,0,0,1,0-.1l.09-.1.12-.13a.46.46,0,0,0,.08-.19.51.51,0,0,0,0-.18.86.86,0,0,0-.05-.23,6,6,0,0,0-.35-.73,1.18,1.18,0,0,0-.11-.17.16.16,0,0,0-.15-.05.77.77,0,0,0-.26.09l-.47.25-.24.13-2,1.13a1,1,0,0,0-.28.21.49.49,0,0,0-.09.22.58.58,0,0,0,0,.28l.1.25a.76.76,0,0,1,.05.18.09.09,0,0,1,0,.1.09.09,0,0,1-.11,0,.45.45,0,0,1-.09-.12l-.07-.13-.13-.26-.14-.28-.1-.19-.11-.18-.17-.27-.17-.27-.11-.18q-.12-.22,0-.27a.07.07,0,0,1,.09,0l.09.11.12.14a.62.62,0,0,0,.15.13.46.46,0,0,0,.19.06.66.66,0,0,0,.3-.07l.14-.06.21-.1.22-.11.16-.08.31-.18.37-.21.37-.21.33-.19.46-.26.29-.16.16-.1.09-.07a.19.19,0,0,0,.05-.08.2.2,0,0,0,0-.08,1.26,1.26,0,0,0-.08-.22l-.07-.14a2.82,2.82,0,0,0-.28-.42,1.06,1.06,0,0,0-.28-.26.66.66,0,0,0-.37-.07l-.52.08s-.08,0-.11-.06,0,0,0-.06l.07-.06.08-.06Z" transform="translate(-12.96 -10.5)"/><path d="M108.41,39.68l.21.44.15.28.09.16,0,.09q.07.16,0,.2a.09.09,0,0,1-.13,0,1,1,0,0,0-.12-.15.39.39,0,0,0-.22-.11.76.76,0,0,0-.42.1l-2.56,1.16a2,2,0,0,0-.47.28.57.57,0,0,0-.19.27.45.45,0,0,0,0,.24l.06.21a.61.61,0,0,1,0,.17.09.09,0,0,1-.06.08s-.07,0-.08,0a.25.25,0,0,1,0-.08l-.41-1-.08-.16-.12-.23-.12-.22-.07-.13a.37.37,0,0,1,0-.11.08.08,0,0,1,.06-.09H104a.21.21,0,0,1,.09.09l.06.08.09.08a.47.47,0,0,0,.29,0,2.42,2.42,0,0,0,.6-.2l2.45-1.1a1.35,1.35,0,0,0,.38-.23.48.48,0,0,0,.14-.23.44.44,0,0,0,0-.28,1.45,1.45,0,0,1-.08-.24.37.37,0,0,1,0-.12.09.09,0,0,1,.06-.07.05.05,0,0,1,.05,0l.06.06,0,.07,0,0,.05.13.07.17.07.17Z" transform="translate(-12.96 -10.5)"/><path d="M106.93,42.56a2.52,2.52,0,0,1,1-.16,3.1,3.1,0,0,1,.94.2,2.18,2.18,0,0,1,.34.16,2.31,2.31,0,0,1,.31.22,2.61,2.61,0,0,1,.46.51,2.65,2.65,0,0,1,.32.62,2.16,2.16,0,0,1,.1.43,2.73,2.73,0,0,1,0,.39,2.24,2.24,0,0,1,0,.38.47.47,0,0,0,0,.24.09.09,0,0,0,.05.06l.07,0,.07,0a.07.07,0,0,1,0,0s0,.07,0,.08l-.11.06-.3.15-.35.19-.32.17-.22.11-.12,0a.08.08,0,0,1-.08-.05.09.09,0,0,1,0-.11l.15-.11a1.34,1.34,0,0,0,.24-.23,1.92,1.92,0,0,0,.27-.43,2.33,2.33,0,0,0,.21-.72,1.68,1.68,0,0,0-.09-.79,1.51,1.51,0,0,0-.35-.55,1.62,1.62,0,0,0-.55-.37,1.93,1.93,0,0,0-.69-.14,2.12,2.12,0,0,0-.78.13,2.72,2.72,0,0,0-.82.46,2.43,2.43,0,0,0-.56.65,2,2,0,0,0-.26.76,1.68,1.68,0,0,0,.09.79,1.76,1.76,0,0,0,.23.44,2.5,2.5,0,0,0,.61.6l.28.17.17.09a.19.19,0,0,1,.09.08s0,.07,0,.08h-.14l-.27-.08a2.58,2.58,0,0,1-.35-.18,2.27,2.27,0,0,1-.39-.3,2.62,2.62,0,0,1-.37-.45,2.78,2.78,0,0,1-.3-.61,3,3,0,0,1-.17-.88,2.12,2.12,0,0,1,.13-.85,2,2,0,0,1,.5-.74A2.52,2.52,0,0,1,106.93,42.56Z" transform="translate(-12.96 -10.5)"/><path d="M109.79,47a1.36,1.36,0,0,1,.67,0,1.31,1.31,0,0,1,.56.3,1.64,1.64,0,0,1,.49.85,1.59,1.59,0,0,1,.05.37,2.49,2.49,0,0,1,0,.32l0,.25a.45.45,0,0,0,0,.17.22.22,0,0,0,.07.09.22.22,0,0,1,.07.09s0,.08-.07.1l-.2.07-.54.19-.4.14h-.11a.08.08,0,0,1-.05-.13l.08-.06.09-.06.1-.06a1.55,1.55,0,0,0,.33-.28,1.63,1.63,0,0,0,.25-.37,1.5,1.5,0,0,0,.14-.43,1.11,1.11,0,0,0,0-.46,1.08,1.08,0,0,0-.13-.31,1,1,0,0,0-.22-.25.77.77,0,0,0-.28-.14.65.65,0,0,0-.33,0,.6.6,0,0,0-.4.27,1.67,1.67,0,0,0-.17.49q0,.16,0,.33l0,.35q0,.18,0,.35a2.56,2.56,0,0,1-.07.34,1.48,1.48,0,0,1-.17.42,1.26,1.26,0,0,1-.29.32,2,2,0,0,1-.28.18,1.35,1.35,0,0,1-.32.13,1.21,1.21,0,0,1-.48,0,1.49,1.49,0,0,1-.52-.18A1.64,1.64,0,0,1,107,50a1.59,1.59,0,0,1-.3-.62,4.4,4.4,0,0,1-.09-.49,3.37,3.37,0,0,1,0-.49,1.29,1.29,0,0,1,0-.3.36.36,0,0,1,.05-.12.26.26,0,0,1,.11-.08l.07,0,.12-.06.14-.06.14-.07.23-.15a.57.57,0,0,1,.23-.1l.09,0h.2s0,0,0,0,0,.08-.09.12a1.8,1.8,0,0,0-.25.18,3.37,3.37,0,0,0-.29.28,2,2,0,0,0-.28.37,1.5,1.5,0,0,0-.17.46,1.18,1.18,0,0,0,0,.53,1.27,1.27,0,0,0,.15.36,1,1,0,0,0,.25.28.87.87,0,0,0,.33.15.86.86,0,0,0,.4,0,.69.69,0,0,0,.42-.26,1.26,1.26,0,0,0,.19-.45,3.89,3.89,0,0,0,.08-.57,4.82,4.82,0,0,1,.09-.62,4.21,4.21,0,0,1,.16-.6,1,1,0,0,1,.75-.67Z" transform="translate(-12.96 -10.5)"/>
<path d="M109.79,52.65a2.52,2.52,0,0,1,1,.07,3.1,3.1,0,0,1,.87.4,2.18,2.18,0,0,1,.29.23,2.32,2.32,0,0,1,.26.29,2.61,2.61,0,0,1,.34.6,2.65,2.65,0,0,1,.17.67,2.16,2.16,0,0,1,0,.44,2.72,2.72,0,0,1-.06.38,2.24,2.24,0,0,1-.11.36.47.47,0,0,0,0,.23.09.09,0,0,0,0,.07l.06,0,.06,0a.07.07,0,0,1,0,.06s0,.07,0,.08l-.13,0-.33.07-.38.11-.35.1-.24.05h-.12a.08.08,0,0,1-.06-.07.09.09,0,0,1,.05-.1l.17-.08a1.35,1.35,0,0,0,.29-.18,1.93,1.93,0,0,0,.36-.36,2.34,2.34,0,0,0,.37-.66,1.68,1.68,0,0,0,.09-.79,1.51,1.51,0,0,0-.22-.62,1.62,1.62,0,0,0-.45-.48,1.93,1.93,0,0,0-.64-.29,2.11,2.11,0,0,0-.79,0,2.72,2.72,0,0,0-.9.26,2.43,2.43,0,0,0-.69.51,2,2,0,0,0-.43.69,1.68,1.68,0,0,0-.09.79,1.76,1.76,0,0,0,.12.48,2.5,2.5,0,0,0,.46.72A2.11,2.11,0,0,0,109,57l.15.13a.19.19,0,0,1,.07.09s0,.07-.06.07l-.13,0a1.41,1.41,0,0,1-.25-.14,2.58,2.58,0,0,1-.3-.25,2.27,2.27,0,0,1-.31-.38,2.62,2.62,0,0,1-.26-.52,2.78,2.78,0,0,1-.16-.67,3,3,0,0,1,0-.9,2.12,2.12,0,0,1,.32-.8,2,2,0,0,1,.65-.61A2.52,2.52,0,0,1,109.79,52.65Z" transform="translate(-12.96 -10.5)"/><path d="M112.94,59.65q0,.19,0,.33t0,.25,0,.18c0,.08,0,.15,0,.19v.2s0,.07,0,.12a.14.14,0,0,1,0,.1.16.16,0,0,1-.1,0h-.16l-.25,0-.25,0h-.32s-.06,0-.06-.1,0-.08.07-.08l.18,0,.18-.06a.41.41,0,0,0,.17-.14,1.07,1.07,0,0,0,.1-.16.91.91,0,0,0,.07-.24,2.88,2.88,0,0,0,0-.36q0-.21,0-.51t0-.3a.29.29,0,0,0-.07-.18.33.33,0,0,0-.18-.08,1.7,1.7,0,0,0-.33,0l-1,0q-.3,0-.3.14v.58a1.39,1.39,0,0,0,.07.46.5.5,0,0,0,.16.22.52.52,0,0,0,.16.09l.14.05.13.07a.1.1,0,0,1,0,.07.07.07,0,0,1,0,.07l-.09,0h-.8l-.26,0-.24,0h-.23a.07.07,0,0,1-.05-.07.08.08,0,0,1,.05-.08l.13,0,.27-.11a.38.38,0,0,0,.19-.2.62.62,0,0,0,0-.13l0-.15q0-.13,0-.28t0-.37,0-.2a.18.18,0,0,0-.06-.12l-.11,0h-.77l-.56,0a.89.89,0,0,0-.34.08.32.32,0,0,0-.16.19,1,1,0,0,0,0,.35,3.54,3.54,0,0,0,0,.44,3.09,3.09,0,0,0,.09.42,2.88,2.88,0,0,0,.13.35,1.09,1.09,0,0,0,.15.25,1.06,1.06,0,0,0,.24.22l.21.13.09.05a.06.06,0,0,1,0,.06.06.06,0,0,1,0,.06l-.08,0h-.15l-.18,0a1.72,1.72,0,0,1-.42-.16,1,1,0,0,1-.31-.26.63.63,0,0,1-.11-.24,1.58,1.58,0,0,1,0-.29q0-.1,0-.35t0-.52q0-.27,0-.51t0-.34,0-.29q0-.16,0-.32l0-.26c0-.07,0-.12,0-.13s0-.12.11-.12a0,0,0,0,1,0,0l.07.15.06.11.09.11a.58.58,0,0,0,.29.12,2.44,2.44,0,0,0,.43,0l1.07,0h1.37l.57,0a.69.69,0,0,0,.32-.1.42.42,0,0,0,.16-.23,3.61,3.61,0,0,0,.1-.41s0,0,.06,0,.08,0,.09,0a.28.28,0,0,1,0,.09q0,.15,0,.33t0,.35q0,.17,0,.31t0,.24v.49Q112.93,59.46,112.94,59.65Z" transform="translate(-12.96 -10.5)"/><path d="M112.92,61.91s.06,0,.06.09a1.44,1.44,0,0,1,0,.22l0,.26q0,.15,0,.27a1.44,1.44,0,0,0,0,.21.93.93,0,0,1,0,.19.41.41,0,0,1,0,.1.24.24,0,0,1-.06.09,4.16,4.16,0,0,1-.42.33l-.68.5-.53.39-.58.43-.45.32-.47.34-.17.13-.19.15-.16.13-.07.07s.06,0,.18.07l.43.07.24,0,.22,0,.62,0,.5,0h.72a.52.52,0,0,0,.2-.1.68.68,0,0,0,.14-.15.9.9,0,0,0,.08-.17,1.06,1.06,0,0,0,0-.15,1.3,1.3,0,0,1,0-.17s0-.07.07-.07a.09.09,0,0,1,.09.07.4.4,0,0,1,0,.16s0,.11,0,.2l0,.26,0,.24q0,.11,0,.15s0,.08,0,.15,0,.14,0,.22,0,.14,0,.21,0,.11,0,.13,0,.12-.11.11-.07-.06-.09-.16a1.24,1.24,0,0,0-.08-.23.47.47,0,0,0-.24-.22,2,2,0,0,0-.63-.12l-.38,0-.41,0-.27,0-.37,0-.41,0-.37,0-.28,0-.31,0-.28,0-.2,0-.29,0a.08.08,0,0,1,0-.09s0-.08.11-.14l.3-.23.45-.33.54-.4.59-.44.59-.43.56-.41.46-.34.31-.25q.11-.1.12-.12s0,0-.09-.05l-.23-.05-.31-.05-.33,0-.28,0-.17,0-.65,0-.57,0h-.31a.52.52,0,0,0-.34.12.68.68,0,0,0-.22.34l0,.14a.89.89,0,0,1,0,.12q0,.14-.11.14a.09.09,0,0,1-.09-.09.87.87,0,0,1,0-.19s0-.08,0-.15l0-.2,0-.2a1.36,1.36,0,0,0,0-.13s0-.09,0-.18,0-.18,0-.27,0-.18,0-.26,0-.13,0-.16a.19.19,0,0,1,0-.12l.05,0s0,0,.06.06l.07.13.07.15a.47.47,0,0,0,.06.11.56.56,0,0,0,.14.12l.2.09.3.07.43.07.84.1,1.13.11a1.59,1.59,0,0,0,.77-.08.58.58,0,0,0,.29-.26q.08-.16.12-.29a.83.83,0,0,1,.06-.16A.09.09,0,0,1,112.92,61.91Z" transform="translate(-12.96 -10.5)"/><path d="M111.39,67.92l.54.15.35.12a.26.26,0,0,1,.13.08.16.16,0,0,1,0,.13l0,.16-.05.22-.08.35-.12.57-.18.86-.25,1.24a4.21,4.21,0,0,0-.07.42q0,.16,0,.24t-.08.16a.24.24,0,0,1-.15,0l-.18,0-.22,0h-.34a.31.31,0,0,1-.14-.05.09.09,0,0,1,0-.09.09.09,0,0,1,.07-.08l.13,0,.18,0a.46.46,0,0,0,.19-.09.51.51,0,0,0,.12-.12.85.85,0,0,0,.11-.21,5.94,5.94,0,0,0,.2-.79,1.19,1.19,0,0,0,0-.2.16.16,0,0,0-.08-.14.76.76,0,0,0-.26-.1l-.51-.11-.27-.05L108.1,70a1,1,0,0,0-.35,0,.49.49,0,0,0-.21.11.58.58,0,0,0-.16.24l-.09.26a.76.76,0,0,1-.08.17.09.09,0,0,1-.1.05.09.09,0,0,1-.08-.07.45.45,0,0,1,0-.15l0-.15.07-.28.07-.3,0-.21s0-.11,0-.21l0-.32,0-.31,0-.21q0-.25.15-.23a.07.07,0,0,1,.07.07s0,.08,0,.14,0,.12,0,.18a.63.63,0,0,0,0,.2.46.46,0,0,0,.11.17.66.66,0,0,0,.28.14l.14,0,.23.06.24.06.18,0,.35.07.42.08.42.08.37.07.52.1.33.06.19,0h.11l.09,0,0-.07a1.26,1.26,0,0,0,.08-.22l0-.15a2.82,2.82,0,0,0,.06-.5,1.06,1.06,0,0,0,0-.38.66.66,0,0,0-.24-.3,5,5,0,0,0-.45-.27s-.05-.06,0-.11,0,0,0,0h.26Z" transform="translate(-12.96 -10.5)"/><path d="M110.69,75.42l-.09.32-.07.24,0,.17-.05.18,0,.11,0,.09,0,.11s0,.08-.06.09a.16.16,0,0,1-.11,0l-.16,0-.24-.06-.24-.06-.16,0-.15-.06s0-.06,0-.11a.07.07,0,0,1,.09-.05l.17,0h.19a.41.41,0,0,0,.21-.08l.15-.12a.91.91,0,0,0,.15-.2,2.87,2.87,0,0,0,.15-.33q.08-.2.17-.49t.08-.29a.29.29,0,0,0,0-.19.33.33,0,0,0-.14-.14,1.71,1.71,0,0,0-.31-.12l-.91-.28q-.29-.09-.33,0l-.17.55a1.4,1.4,0,0,0-.08.45.5.5,0,0,0,.08.26.52.52,0,0,0,.12.13l.12.1a.43.43,0,0,1,.1.11.1.1,0,0,1,0,.08.07.07,0,0,1-.06.06h-.09l-.09,0-.18-.07-.19-.07-.13,0-.17,0-.26-.06-.24-.05-.11,0-.1,0a.07.07,0,0,1,0-.08.08.08,0,0,1,.08-.06h.14l.29,0a.38.38,0,0,0,.25-.13l.07-.11.07-.14.11-.26q.06-.15.12-.35t.05-.2a.18.18,0,0,0,0-.14.21.21,0,0,0-.09-.06l-.2-.08-.26-.09-.27-.09-.54-.15a.89.89,0,0,0-.34,0,.32.32,0,0,0-.21.12,1,1,0,0,0-.14.32,3.53,3.53,0,0,0-.1.43,3.08,3.08,0,0,0,0,.42,2.87,2.87,0,0,0,0,.37,1.09,1.09,0,0,0,.06.29,1.06,1.06,0,0,0,.16.28l.16.19.07.08a.06.06,0,0,1,0,.07.06.06,0,0,1-.06,0h-.08l-.14-.06-.16-.1a1.72,1.72,0,0,1-.34-.29,1,1,0,0,1-.21-.34.63.63,0,0,1,0-.26,1.58,1.58,0,0,1,.06-.28l.11-.33.18-.49.18-.48.11-.32q0-.12.07-.28l.06-.31,0-.26,0-.13a.1.1,0,0,1,.14-.08,0,0,0,0,1,0,0l0,.16a.73.73,0,0,0,0,.13.49.49,0,0,0,.29.34,2.44,2.44,0,0,0,.4.16l1,.31.65.2.65.2.56.15a.69.69,0,0,0,.33,0,.42.42,0,0,0,.22-.17,3.67,3.67,0,0,0,.22-.36s0,0,.07,0,.07,0,.07.06a.29.29,0,0,1,0,.09l-.1.32-.11.33-.1.3-.07.23-.14.47Z" transform="translate(-12.96 -10.5)"/><path d="M109.57,78.59q-.08.19-.16.42l-.15.44-.11.36-.06.18a3.6,3.6,0,0,1-.19.37,1.39,1.39,0,0,1-.23.28,1.6,1.6,0,0,1-.36.25,1.35,1.35,0,0,1-.36.13,1.12,1.12,0,0,1-.35,0,1.21,1.21,0,0,1-.32-.08,1.08,1.08,0,0,1-.33-.21,1.28,1.28,0,0,1-.2-.25.75.75,0,0,1-.1-.25q0-.12,0-.24t0-.21c0-.06,0-.1,0-.11h-.08l-.15,0-.2.05-.22.05-.64.12-.66.12a2,2,0,0,0-.38.1.37.37,0,0,0-.22.2l0,.11,0,.11a.07.07,0,0,1-.11,0,.17.17,0,0,1-.09-.11.65.65,0,0,1,0-.19,1.21,1.21,0,0,1,0-.21.82.82,0,0,1,0-.18.83.83,0,0,1,.36-.4,2.47,2.47,0,0,1,.6-.24l.38-.08.41-.06.4-.05.35-.06.19,0a.4.4,0,0,0,.17-.08.52.52,0,0,0,.11-.12l.1-.16.07-.15,0-.1a.52.52,0,0,0,.06-.25s-.07-.1-.18-.14l-.56-.23-.4-.15-.23-.08-.16,0a.31.31,0,0,0-.23,0,.74.74,0,0,0-.21.18.62.62,0,0,0-.1.14l-.08.12q-.05.08-.12,0a.12.12,0,0,1-.07-.12.45.45,0,0,1,0-.19l.08-.17.13-.25.13-.25.08-.16.06-.16.07-.24.07-.23,0-.12a.08.08,0,0,1,.07-.05h.09s.05.05,0,.1a.57.57,0,0,0,0,.17.78.78,0,0,0,.08.25.6.6,0,0,0,.29.25l.13.06.22.1.27.12.28.12.82.35.84.36.35.13.25.05a.43.43,0,0,0,.17,0l.13,0a.45.45,0,0,0,.17-.16l.1-.19.08-.15a.07.07,0,0,1,.09,0,.09.09,0,0,1,.06.09.58.58,0,0,1,0,.17l-.07.16-.1.22-.1.22Zm-.54.83a.8.8,0,0,0,.07-.26A.24.24,0,0,0,109,79a.51.51,0,0,0-.17-.13l-.29-.13-.4-.17-.3-.12-.22-.08-.16-.06h-.08l0,0a.34.34,0,0,0-.14.15,3.44,3.44,0,0,0-.15.32,4.74,4.74,0,0,0-.17.48,1,1,0,0,0,0,.4A.58.58,0,0,0,107,80a1,1,0,0,0,.38.25,1.37,1.37,0,0,0,.54.11,1,1,0,0,0,.53-.15,1.09,1.09,0,0,0,.21-.15,1.16,1.16,0,0,0,.19-.23,1.23,1.23,0,0,0,.09-.18Z" transform="translate(-12.96 -10.5)"/><path d="M104.6,81.22q.16.08.15.18l0,.23q0,.14,0,.3l-.05.31,0,.29,0,.22,0,.1a.06.06,0,0,1-.08,0l-.09,0-.25-.15q-.12-.08-.11-.13t.06-.34q0-.16.06-.33l0-.23,0-.23,0-.2a.44.44,0,0,1,0-.12h.08A1,1,0,0,1,104.6,81.22Z" transform="translate(-12.96 -10.5)"/><path d="M106.78,84.66s0,0,0,.06a.19.19,0,0,1,0,.1l-.09.12-.1.15-.1.14-.08.11-.09.16-.13.22-.14.24-.13.23-.09.14-.06.06h-.07a.1.1,0,0,1,0-.15l.1-.21a.7.7,0,0,0,.07-.23.16.16,0,0,0-.08-.17l-.2-.07-.32-.07-.42-.07-.48-.07-1-.14-.87-.1-.27,0q-.1,0-.12,0s0,.11.11.25l.36.53.44.64.46.64.4.52a1.43,1.43,0,0,0,.26.27.24.24,0,0,0,.18,0l.18-.06a.75.75,0,0,0,.22-.15l.16-.17.08-.08a.06.06,0,0,1,.08,0q.09.06,0,.25l-.11.16-.14.18-.13.17-.09.12-.07.12-.09.18-.09.18-.06.12c0,.06-.07.1-.1.1H104a.07.07,0,0,1,0-.1.59.59,0,0,0,0-.17,1,1,0,0,0,0-.22.83.83,0,0,0-.15-.3l-.36-.52-.43-.61-.33-.48-.34-.5q-.23-.33-.41-.63l-.33-.53-.11-.19-.1-.15-.13-.22a.17.17,0,0,1,0-.17s.08,0,.19,0l.46.05.51.06.6.07.64.08.64.09,1.09.17a4.42,4.42,0,0,0,.75.07.76.76,0,0,0,.37-.12l.12-.09S106.73,84.62,106.78,84.66Z" transform="translate(-12.96 -10.5)"/><path d="M103.25,90.14l-.29.4-.18.26-.1.16-.05.08q-.1.14-.19.07a.09.09,0,0,1,0-.13,1,1,0,0,0,.08-.18.39.39,0,0,0,0-.24.76.76,0,0,0-.29-.32l-2.25-1.68a2,2,0,0,0-.47-.28.57.57,0,0,0-.33,0,.45.45,0,0,0-.21.11l-.16.15a.61.61,0,0,1-.13.11.09.09,0,0,1-.1,0s0,0,0-.07a.25.25,0,0,1,0-.08l.64-.82.1-.15.14-.22.13-.21.08-.12.08-.08a.08.08,0,0,1,.1,0,.09.09,0,0,1,0,.06.2.2,0,0,1,0,.12l0,.09a.45.45,0,0,0,0,.12.47.47,0,0,0,.12.27,2.43,2.43,0,0,0,.47.42l2.15,1.61a1.35,1.35,0,0,0,.38.22.48.48,0,0,0,.27,0,.44.44,0,0,0,.23-.15,1.45,1.45,0,0,1,.17-.18l.1-.07a.09.09,0,0,1,.09,0,.05.05,0,0,1,0,.05.3.3,0,0,1,0,.08l0,.07,0,0-.09.11-.11.14-.11.14Z" transform="translate(-12.96 -10.5)"/><path d="M100.89,91.11a1.36,1.36,0,0,1,.4.54,1.31,1.31,0,0,1,.07.63,1.64,1.64,0,0,1-.41.89,1.58,1.58,0,0,1-.27.25l-.27.17-.23.12a.45.45,0,0,0-.14.1.22.22,0,0,0,0,.11.22.22,0,0,1,0,.11s-.07,0-.12,0l-.17-.13-.47-.33-.35-.25-.07-.08a.08.08,0,0,1,.07-.12l.1,0,.1,0,.11,0a1.55,1.55,0,0,0,.41.11,1.63,1.63,0,0,0,.45,0,1.49,1.49,0,0,0,.43-.13,1.11,1.11,0,0,0,.36-.28,1.09,1.09,0,0,0,.18-.29,1,1,0,0,0,.08-.32.77.77,0,0,0,0-.32.65.65,0,0,0-.19-.27.6.6,0,0,0-.46-.17,1.68,1.68,0,0,0-.5.14l-.3.15-.3.17L99,92.2l-.32.14a1.48,1.48,0,0,1-.44.1,1.25,1.25,0,0,1-.43-.05l-.31-.12a1.35,1.35,0,0,1-.29-.19,1.21,1.21,0,0,1-.29-.39,1.49,1.49,0,0,1-.15-.53,1.64,1.64,0,0,1,.06-.6,1.59,1.59,0,0,1,.34-.6,4.46,4.46,0,0,1,.35-.36,3.37,3.37,0,0,1,.38-.31,1.29,1.29,0,0,1,.26-.14l.13,0a.26.26,0,0,1,.13,0l.06,0,.11.07.13.08.14.07.25.1a.58.58,0,0,1,.22.13l.06.06.07.08.05.08s0,0,0,.06-.08,0-.15,0l-.29-.1-.4-.08a2,2,0,0,0-.46,0,1.5,1.5,0,0,0-.47.12,1.18,1.18,0,0,0-.43.32,1.27,1.27,0,0,0-.21.33,1,1,0,0,0-.08.36.87.87,0,0,0,.07.36.86.86,0,0,0,.24.32.69.69,0,0,0,.45.19,1.26,1.26,0,0,0,.47-.1,3.89,3.89,0,0,0,.52-.26,4.83,4.83,0,0,1,.56-.28,4.19,4.19,0,0,1,.58-.21,1,1,0,0,1,1,.23Z" transform="translate(-12.96 -10.5)"/><path d="M97.54,96.77l-.6-.25-.68-.28-.7-.29-.64-.27-.51-.21-.32-.13-.61-.26L93.09,95a.66.66,0,0,0-.25,0,.64.64,0,0,0-.2.06l0,0-.07,0-.07,0,0,0,0,0s0-.07,0-.09l0-.06.11-.09.19-.15.19-.16.13-.11.16-.17.19-.2.16-.18.09-.1.05-.06,0-.06.07,0a.06.06,0,0,1,.06,0,.09.09,0,0,1,0,.1l-.05.11a.69.69,0,0,0-.09.28.37.37,0,0,0,.12.28l.06.05.09.06.17.09.31.16.26.11a.32.32,0,0,0,.19,0,.64.64,0,0,0,.22-.13l.34-.31.2-.2.22-.21.18-.19.12-.13a.59.59,0,0,0,0-.3,1.91,1.91,0,0,0-.09-.36,2.88,2.88,0,0,0-.14-.33,1,1,0,0,0-.13-.2.29.29,0,0,0-.17-.09.53.53,0,0,0-.2,0,.79.79,0,0,0-.21.08.8.8,0,0,0-.18.13.33.33,0,0,1-.13.09.1.1,0,0,1-.1,0s0-.07,0-.09a1,1,0,0,1,.15-.16l.11-.1.17-.15.17-.14.11-.09.15-.15.12-.15,0,0,.06-.08.09-.1s.06,0,.09,0l.05,0a.07.07,0,0,1,0,.06s0,.1-.05.22a.54.54,0,0,0,0,.21,2.33,2.33,0,0,0,.08.34q.06.22.18.55l.3.83.2.59.24.76.26.85.27.88ZM97,95.64l-.06-.19-.09-.29-.11-.33-.11-.32-.1-.25a.53.53,0,0,0-.07-.13.1.1,0,0,0-.14,0l-.05,0-.08.07-.13.12-.22.21-.11.11-.16.15L95.4,95l-.07.1a.05.05,0,0,0,0,.06l.19.09.37.16.38.15.24.09.25.08q.14,0,.19,0A.07.07,0,0,0,97,95.64Z" transform="translate(-12.96 -10.5)"/>
<path d="M92.62,100.73a2,2,0,0,0-.3.27l-.14.15q-.09.07-.14,0a.07.07,0,0,1,0-.08l.1-.19a1.55,1.55,0,0,0,.1-.22.7.7,0,0,0,0-.21,2.29,2.29,0,0,0,0-.38q0-.2,0-.48l-.1-1.06,0-.25a1.12,1.12,0,0,0,0-.19,1.56,1.56,0,0,0-.15-.29,4.43,4.43,0,0,0-.3-.42l-.17-.21-.2-.23-.19-.2-.12-.11a.38.38,0,0,0-.25,0,.67.67,0,0,0-.25.09l-.16.11-.13.08q-.09,0-.13,0s0-.07,0-.12a.84.84,0,0,1,.17-.17l.15-.11.24-.16.24-.16L91,96l.16-.14.24-.21.24-.21.16-.14s.08-.05.1,0l.05,0a.09.09,0,0,1,0,.09l0,.09-.08.1-.11.12-.07.1a.48.48,0,0,0-.06.14.51.51,0,0,0,0,.17.33.33,0,0,0,.08.18l.15.19.19.26.2.26.16.21.09.1.14.1.25.12.42.16.92.34.5.17a2.11,2.11,0,0,0,.35.08.79.79,0,0,0,.25,0l.22-.07.19-.07a.08.08,0,0,1,.09,0s0,.11-.1.19l-.15.11-.23.16-.23.16-.15.11-.17.15-.16.16-.14.14-.09.09a.16.16,0,0,1-.11,0,.09.09,0,0,1-.07,0,.07.07,0,0,1,0-.1l.1-.11a.61.61,0,0,0,.1-.14.14.14,0,0,0,0-.16l0,0-.11-.07-.21-.1-.35-.14L93,98.35l-.16-.06-.19,0-.16,0h-.09a.08.08,0,0,0,0,.05.7.7,0,0,0,0,.07s0,.1,0,.15,0,.08,0,.09l.07.69,0,.15q0,.1,0,.21a1.35,1.35,0,0,0,.06.21.57.57,0,0,0,.09.17.31.31,0,0,0,.29.14.7.7,0,0,0,.29-.11l.1-.06.09,0h.08l0,0a.09.09,0,0,1,0,.08.3.3,0,0,1-.11.13l-.17.13-.26.18-.24.17Z" transform="translate(-12.96 -10.5)"/><path d="M90.23,102.55l-.55-.35-.62-.4-.63-.41-.58-.38-.46-.3-.29-.19-.55-.36-.35-.2a.66.66,0,0,0-.24-.07.64.64,0,0,0-.21,0h0l-.07,0-.08,0h-.05l0,0s0-.07,0-.1l.05,0,.12-.07.21-.12.22-.12.14-.09.19-.13.22-.16.19-.14.11-.08.06,0,.06,0,.07,0a.06.06,0,0,1,.06,0,.09.09,0,0,1,0,.1l-.07.1a.69.69,0,0,0-.14.26.37.37,0,0,0,.07.29l0,.06.08.07.15.12.28.21.23.16a.32.32,0,0,0,.19,0,.64.64,0,0,0,.24-.09l.39-.24.24-.15.25-.17.22-.15.14-.11a.59.59,0,0,0,.07-.29,1.9,1.9,0,0,0,0-.37,2.87,2.87,0,0,0-.08-.35,1,1,0,0,0-.09-.22.29.29,0,0,0-.15-.12.53.53,0,0,0-.2,0,.84.84,0,0,0-.42.13.33.33,0,0,1-.14.06.1.1,0,0,1-.09-.06s0-.08,0-.1l.17-.13.13-.07.19-.11.19-.11.12-.07.18-.12.15-.12,0,0,.08-.06.11-.09a.1.1,0,0,1,.1,0l0,0a.07.07,0,0,1,0,.07l-.09.21a.54.54,0,0,0-.05.21,2.34,2.34,0,0,0,0,.35q0,.22.08.57l.14.87q0,.25.09.61t.1.79q.05.42.1.89l.1.91Zm-.36-1.22,0-.19,0-.3,0-.35-.05-.33q0-.15,0-.27a.53.53,0,0,0,0-.14.1.1,0,0,0-.14,0l-.06,0-.09.05-.15.1-.25.16-.13.08-.18.12-.17.13-.09.09a.05.05,0,0,0,0,.07l.17.13.33.22.34.22.22.13.23.13q.13.07.19,0A.07.07,0,0,0,89.88,101.33Z" transform="translate(-12.96 -10.5)"/><path d="M86.72,103.07a1.36,1.36,0,0,1,.17.65,1.31,1.31,0,0,1-.17.61A1.64,1.64,0,0,1,86,105a1.58,1.58,0,0,1-.35.13l-.32.06-.25,0a.45.45,0,0,0-.16,0,.22.22,0,0,0-.07.09.22.22,0,0,1-.07.09s-.08,0-.11,0l-.11-.18-.31-.48-.23-.36a.34.34,0,0,1,0-.1.08.08,0,0,1,.11-.08l.08.06.08.07.08.08a1.54,1.54,0,0,0,.34.25,1.63,1.63,0,0,0,.42.16,1.49,1.49,0,0,0,.45,0,1.11,1.11,0,0,0,.44-.13,1.08,1.08,0,0,0,.27-.2,1,1,0,0,0,.19-.27.77.77,0,0,0,.07-.31.65.65,0,0,0-.08-.32.6.6,0,0,0-.36-.33,1.68,1.68,0,0,0-.51-.05l-.33,0-.35,0-.35,0h-.34a1.48,1.48,0,0,1-.45-.07,1.25,1.25,0,0,1-.38-.21,2,2,0,0,1-.24-.23,1.36,1.36,0,0,1-.2-.28,1.21,1.21,0,0,1-.12-.47,1.49,1.49,0,0,1,.06-.55,1.64,1.64,0,0,1,.28-.53,1.59,1.59,0,0,1,.54-.43,4.46,4.46,0,0,1,.46-.2,3.37,3.37,0,0,1,.47-.15,1.29,1.29,0,0,1,.3,0l.13,0a.26.26,0,0,1,.1.08l0,.06.08.1.1.12.1.12a1.44,1.44,0,0,0,.19.19.57.57,0,0,1,.15.2l0,.08,0,.1a.61.61,0,0,1,0,.09s0,0,0,.05-.08,0-.14-.06a1.79,1.79,0,0,0-.24-.2l-.34-.22a2,2,0,0,0-.43-.18,1.51,1.51,0,0,0-.48-.06,1.18,1.18,0,0,0-.52.14,1.27,1.27,0,0,0-.31.23,1,1,0,0,0-.21.31.87.87,0,0,0-.07.36.86.86,0,0,0,.1.39.69.69,0,0,0,.35.35,1.26,1.26,0,0,0,.48.08,3.9,3.9,0,0,0,.58,0,4.79,4.79,0,0,1,.62-.05,4.2,4.2,0,0,1,.62,0,1,1,0,0,1,.83.58Z" transform="translate(-12.96 -10.5)"/><path d="M55.19,107.07l.11-.15a1.67,1.67,0,0,1,.31-.29,2,2,0,0,1,.5-.26,1.39,1.39,0,0,1,.66-.07,1.65,1.65,0,0,1,.52.15,1,1,0,0,1,.38.29,1,1,0,0,1,.18.37,1.35,1.35,0,0,1,0,.49,1.6,1.6,0,0,1-.06.28,1.66,1.66,0,0,1-.09.23,1.63,1.63,0,0,1-.13.22l-.17.23-.22.27-.29.33-.32.34-.31.31-.16.17-.16.17-.23.26a.47.47,0,0,0-.09.15.08.08,0,0,0,.05.08l.14.05.16,0,.12,0a8.87,8.87,0,0,0,1,.08.81.81,0,0,0,.46-.09l.12-.1.11-.11.11-.09a.14.14,0,0,1,.09,0s.06,0,.05.09a.27.27,0,0,1,0,.11l-.1.14-.19.27-.2.27-.18.21a.19.19,0,0,1-.16.07l-.15,0-.25,0-.25,0-.14,0-.36,0-.49,0-.47,0-.29,0-.11,0a.07.07,0,0,1-.06-.08.34.34,0,0,1,.1-.13l.24-.24.34-.33.4-.4q.24-.25.48-.53a6.16,6.16,0,0,0,.44-.58,4.15,4.15,0,0,0,.34-.61,2.13,2.13,0,0,0,.17-.6,1.07,1.07,0,0,0,0-.31.9.9,0,0,0-.11-.3.73.73,0,0,0-.22-.24.77.77,0,0,0-.35-.12,1,1,0,0,0-.54.08,3.93,3.93,0,0,0-.41.21l-.14.07-.09,0,0,0A.07.07,0,0,1,55.19,107.07Z" transform="translate(-12.96 -10.5)"/><path d="M58.76,109.39a4.5,4.5,0,0,1,.16-1,3.33,3.33,0,0,1,.39-.91,2.08,2.08,0,0,1,.62-.64,1.4,1.4,0,0,1,.85-.22,1.25,1.25,0,0,1,.7.23,1.73,1.73,0,0,1,.5.57,2.85,2.85,0,0,1,.3.81,3.83,3.83,0,0,1,.08.94,4.24,4.24,0,0,1-.16,1,3.44,3.44,0,0,1-.38.88,2,2,0,0,1-.58.61,1.23,1.23,0,0,1-.75.21,1.66,1.66,0,0,1-.7-.18,1.59,1.59,0,0,1-.56-.48,2.27,2.27,0,0,1-.36-.77A3.52,3.52,0,0,1,58.76,109.39Zm1.6-2.35a.71.71,0,0,0-.41.1,1,1,0,0,0-.31.3,1.5,1.5,0,0,0-.2.44,2.29,2.29,0,0,0-.08.54,4.86,4.86,0,0,0,0,.58,6.52,6.52,0,0,0,.09.66,4.56,4.56,0,0,0,.17.65,2.65,2.65,0,0,0,.27.57,1.56,1.56,0,0,0,.37.41.81.81,0,0,0,.47.17.8.8,0,0,0,.38-.08,1,1,0,0,0,.34-.29,1.6,1.6,0,0,0,.25-.5,2.69,2.69,0,0,0,.11-.72,4,4,0,0,0-.09-1,3.92,3.92,0,0,0-.3-.9,2.23,2.23,0,0,0-.48-.67A.94.94,0,0,0,60.36,107Z" transform="translate(-12.96 -10.5)"/><path d="M63.36,107.4q0-.09.16-.18l.19-.09L64,107l.26-.1.24-.12a.82.82,0,0,0,.23-.19.22.22,0,0,1,.16-.1,0,0,0,0,1,.06.05v.48q0,.22,0,.55t0,.74l0,.79q0,.38,0,.69t0,.45q0,.39,0,.61a.94.94,0,0,0,.09.35.31.31,0,0,0,.18.17l.2,0h.31l.11,0a.11.11,0,0,1,0,.07c0,.07,0,.1-.11.11H64.64l-.3,0-.29,0h-.38a.08.08,0,0,1-.05-.08.08.08,0,0,1,0-.08l.08,0h.12l.14,0a.65.65,0,0,0,.19-.08.37.37,0,0,0,.13-.19.87.87,0,0,0,0-.28q0-.17,0-.52,0-.19,0-.44t0-.55l0-.59q0-.29,0-.43t0-.43q0-.2,0-.33a.4.4,0,0,0-.1-.27.28.28,0,0,0-.21-.07.57.57,0,0,0-.27.08.43.43,0,0,1-.19.07Q63.37,107.5,63.36,107.4Z" transform="translate(-12.96 -10.5)"/><path d="M67,107.62a2.56,2.56,0,0,1,0-.61,2.7,2.7,0,0,1,.09-.48l0-.07.08,0,.19,0,.21,0,.18,0h.11l1.56-.2.19,0a.13.13,0,0,1,.15.07.54.54,0,0,1,.05.17,1.73,1.73,0,0,1,0,.42q0,.3-.12.64t-.13.53l-.15.57q-.15.59-.25,1.12a3.16,3.16,0,0,0,0,1,2.5,2.5,0,0,0,.06.33,2.17,2.17,0,0,0,.08.24l.07.17a.42.42,0,0,1,0,.11.12.12,0,0,1,0,.11.62.62,0,0,1-.15.09l-.2.07-.2,0a.45.45,0,0,1-.2,0,.21.21,0,0,1-.11-.15l0-.1,0-.12a4.25,4.25,0,0,1,0-.89,3.18,3.18,0,0,1,.19-.81l.21-.54.21-.53.2-.52q.1-.26.17-.49t.11-.42a1,1,0,0,0,0-.33.13.13,0,0,0,0-.08.19.19,0,0,0-.11,0H69l-.45,0-.49.07-.39.08a.68.68,0,0,0-.42.26.59.59,0,0,0-.07.17s0,.09,0,.14a1.51,1.51,0,0,1,0,.16.09.09,0,0,1-.08.07s-.07,0-.09-.08A.66.66,0,0,1,67,107.62Z" transform="translate(-12.96 -10.5)"/><path d="M63,84.74A24.21,24.21,0,1,1,87.19,60.53,24.24,24.24,0,0,1,63,84.74Zm0-47.91a23.7,23.7,0,1,0,23.7,23.7A23.73,23.73,0,0,0,63,36.83Z" transform="translate(-12.96 -10.5)"/><path d="M63,88.31a27.78,27.78,0,1,1,19.64-8.14A27.6,27.6,0,0,1,63,88.31Zm0-54.67A26.89,26.89,0,1,0,89.88,60.53,26.92,26.92,0,0,0,63,33.64Z" transform="translate(-12.96 -10.5)"/><path class="cls-7" d="M59.42,22.43l-2,2.91h0a35.67,35.67,0,0,0-30.1,35.19,35.28,35.28,0,0,0,2.29,12.61l-3.14-.37L24.8,75.85A41.15,41.15,0,0,1,57.62,19.75Z" transform="translate(-12.96 -10.5)"/><path class="cls-8" d="M104.11,60.53a40.88,40.88,0,0,1-1.89,12.36L99,73.4,97.2,70.47A35.66,35.66,0,0,0,66.85,25.12l1.81-2.69-1.92-2.86a41.13,41.13,0,0,1,37.37,41Z" transform="translate(-12.96 -10.5)"/><polygon class="cls-9" points="51.21 17.6 43.34 17.6 47.15 11.93 43.34 6.27 51.21 6.27 55.01 11.93 51.21 17.6"/><polygon class="cls-10" points="78.86 64.8 82.19 57.67 85.71 63.52 92.45 62.48 89.12 69.6 82.37 70.64 78.86 64.8"/><polygon class="cls-11" points="20.65 63.69 24.23 70.69 17.45 69.88 14.14 75.85 10.56 68.85 13.87 62.88 20.65 63.69"/><path class="cls-12" d="M62.39,95.64v2.1H60.21s0-.08,0-.12a2.26,2.26,0,0,1,0-.25,2.09,2.09,0,0,1,2.15-1.73" transform="translate(-12.96 -10.5)"/><path class="cls-12" d="M62.38,95.8v2.1h2.18s0-.08,0-.12a2.26,2.26,0,0,0,0-.25,2.09,2.09,0,0,0-2.15-1.73" transform="translate(-12.96 -10.5)"/><path class="cls-13" d="M62.39,97.2v.26h-.13a6.58,6.58,0,0,0-1.16.29h-.36a2.11,2.11,0,0,1-.52-.13,2.26,2.26,0,0,1,0-.25,2.27,2.27,0,0,0,.71.13c.42,0,.81-.3,1.29-.3Z" transform="translate(-12.96 -10.5)"/><path class="cls-13" d="M62.38,97.36v.26h.13a6.58,6.58,0,0,1,1.16.29H64a2.11,2.11,0,0,0,.52-.13,2.26,2.26,0,0,0,0-.25,2.27,2.27,0,0,1-.71.13c-.42,0-.81-.3-1.29-.3Z" transform="translate(-12.96 -10.5)"/><path class="cls-14" d="M62.39,97.46v.34h-.15a1.4,1.4,0,0,0-.56.1,1.54,1.54,0,0,1-.77.19,2,2,0,0,1-.69-.14,2.72,2.72,0,0,1,0-.45h0s0,.08,0,.12a2.11,2.11,0,0,0,.52.13h.36a6.58,6.58,0,0,1,1.16-.29Z" transform="translate(-12.96 -10.5)"/><path class="cls-14" d="M62.38,97.62V98h.15a1.4,1.4,0,0,1,.56.1,1.54,1.54,0,0,0,.77.19,2,2,0,0,0,.69-.14,2.72,2.72,0,0,0,0-.45h0s0,.08,0,.12a2.11,2.11,0,0,1-.52.13h-.36a6.58,6.58,0,0,0-1.16-.29Z" transform="translate(-12.96 -10.5)"/></svg>