<svg width="223" height="133" viewBox="0 0 223 133" fill="none" xmlns="http://www.w3.org/2000/svg">
<g filter="url(#filter0_d_1516_1748)">
<path d="M76.875 16.25C76.875 14.4929 77.573 12.8078 78.8154 11.5654C80.0578 10.323 81.7429 9.625 83.5 9.625H96.75C98.5071 9.625 100.192 10.323 101.435 11.5654C102.677 12.8078 103.375 14.4929 103.375 16.25V95.75H106.688C107.566 95.75 108.409 96.099 109.03 96.7202C109.651 97.3414 110 98.184 110 99.0625C110 99.941 109.651 100.784 109.03 101.405C108.409 102.026 107.566 102.375 106.688 102.375H7.3125C6.43397 102.375 5.59142 102.026 4.97021 101.405C4.34899 100.784 4 99.941 4 99.0625C4 98.184 4.34899 97.3414 4.97021 96.7202C5.59142 96.099 6.43397 95.75 7.3125 95.75H10.625V75.875C10.625 74.1179 11.323 72.4328 12.5654 71.1904C13.8078 69.948 15.4929 69.25 17.25 69.25H30.5C32.2571 69.25 33.9422 69.948 35.1846 71.1904C36.427 72.4328 37.125 74.1179 37.125 75.875V95.75H43.75V49.375C43.75 47.6179 44.448 45.9328 45.6904 44.6904C46.9328 43.448 48.6179 42.75 50.375 42.75H63.625C65.3821 42.75 67.0672 43.448 68.3096 44.6904C69.552 45.9328 70.25 47.6179 70.25 49.375V95.75H76.875V16.25ZM83.5 95.75H96.75V16.25H83.5V95.75ZM63.625 95.75V49.375H50.375V95.75H63.625ZM30.5 95.75V75.875H17.25V95.75H30.5Z" fill="#003D00"/>
</g>
<g filter="url(#filter1_d_1516_1748)">
<path d="M164.078 41.8215C161.35 41.8215 159.014 42.792 157.071 44.7328C155.128 46.6737 154.156 49.0068 154.156 51.7322C154.156 52.7233 154.363 53.797 154.776 54.9532L130.592 75.7657C128.69 74.2791 126.623 73.5358 124.391 73.5358C121.745 73.5358 119.43 74.4856 117.445 76.3852L98.4697 66.8461C98.3044 64.2858 97.2915 62.1179 95.4312 60.3422C93.5708 58.5665 91.3177 57.6787 88.6719 57.6787C86.8529 57.6787 85.1785 58.1123 83.6489 58.9795C82.1193 59.8466 80.9204 61.0442 80.0522 62.5721C79.1841 64.1 78.75 65.7724 78.75 67.5894C78.75 68.9934 79.0807 70.3974 79.7422 71.8014L60.3945 93.9767C59.237 93.5637 58.0794 93.3573 56.9219 93.3573C54.1934 93.3573 51.8576 94.3277 49.9146 96.2685C47.9715 98.2094 47 100.543 47 103.268C47 105.993 47.9715 108.327 49.9146 110.267C51.8576 112.208 54.1934 113.179 56.9219 113.179C59.6504 113.179 61.9862 112.208 63.9292 110.267C65.8722 108.327 66.8438 105.993 66.8438 103.268C66.8438 102.029 66.5957 100.79 66.0996 99.5514L85.6953 77.0046C86.7702 77.3349 87.7624 77.5001 88.6719 77.5001C90.0775 77.5001 91.4004 77.211 92.6406 76.6329C93.8809 76.0548 94.9971 75.2702 95.9893 74.2791L114.469 83.5704C114.469 84.8918 114.737 86.1513 115.275 87.3489C115.812 88.5464 116.515 89.5788 117.383 90.446C118.251 91.3132 119.306 92.0152 120.546 92.552C121.786 93.0888 123.068 93.3573 124.391 93.3573C125.135 93.3573 125.879 93.2747 126.623 93.1095C127.367 92.9443 128.07 92.6965 128.731 92.3662C129.393 92.0358 130.013 91.6435 130.592 91.1893C131.171 90.735 131.687 90.2189 132.142 89.6407C132.597 89.0626 132.99 88.4432 133.32 87.7825C133.651 87.1218 133.899 86.4198 134.064 85.6764C134.23 84.9331 134.312 84.1898 134.312 83.4465V82.951L160.109 60.7758C161.35 61.3539 162.673 61.643 164.078 61.643C166.807 61.643 169.142 60.6725 171.085 58.7317C173.028 56.7908 174 54.4577 174 51.7322C174 49.0068 173.028 46.6737 171.085 44.7328C169.142 42.792 166.807 41.8215 164.078 41.8215Z" fill="#FDCB00"/>
</g>
<g filter="url(#filter2_d_1516_1748)">
<path d="M158.846 11.7419C178.824 11.7419 195.007 27.9337 195.007 47.9019C195.018 54.4803 193.225 60.9356 189.823 66.5662L207.355 84.0981L207.294 84.1591C209.165 85.9502 210.314 88.4927 210.314 91.3663C210.316 96.918 205.893 101.259 200.347 101.258C197.514 101.257 194.98 100.124 193.172 98.2796L193.128 98.3237L175.039 80.2335C170.015 82.7564 164.469 84.0676 158.846 84.0619C138.868 84.0619 122.687 67.8724 122.687 47.9019C122.687 27.9337 138.869 11.7419 158.846 11.7419ZM158.627 69.8432C171.114 69.8432 181.228 59.7251 181.228 47.2432C181.228 34.7634 171.114 24.6432 158.627 24.6432C146.141 24.6432 136.028 34.7623 136.028 47.2432C136.027 59.7251 146.141 69.8432 158.627 69.8432Z" fill="#003D00"/>
</g>
<defs>
<filter id="filter0_d_1516_1748" x="0" y="3" width="114" height="114" filterUnits="userSpaceOnUse" color-interpolation-filters="sRGB">
<feFlood flood-opacity="0" result="BackgroundImageFix"/>
<feColorMatrix in="SourceAlpha" type="matrix" values="0 0 0 0 0 0 0 0 0 0 0 0 0 0 0 0 0 0 127 0" result="hardAlpha"/>
<feOffset dy="4"/>
<feGaussianBlur stdDeviation="2"/>
<feComposite in2="hardAlpha" operator="out"/>
<feColorMatrix type="matrix" values="0 0 0 0 0 0 0 0 0 0 0 0 0 0 0 0 0 0 0.25 0"/>
<feBlend mode="normal" in2="BackgroundImageFix" result="effect1_dropShadow_1516_1748"/>
<feBlend mode="normal" in="SourceGraphic" in2="effect1_dropShadow_1516_1748" result="shape"/>
</filter>
<filter id="filter1_d_1516_1748" x="43" y="22" width="135" height="119" filterUnits="userSpaceOnUse" color-interpolation-filters="sRGB">
<feFlood flood-opacity="0" result="BackgroundImageFix"/>
<feColorMatrix in="SourceAlpha" type="matrix" values="0 0 0 0 0 0 0 0 0 0 0 0 0 0 0 0 0 0 127 0" result="hardAlpha"/>
<feOffset dy="4"/>
<feGaussianBlur stdDeviation="2"/>
<feComposite in2="hardAlpha" operator="out"/>
<feColorMatrix type="matrix" values="0 0 0 0 0 0 0 0 0 0 0 0 0 0 0 0 0 0 0.25 0"/>
<feBlend mode="normal" in2="BackgroundImageFix" result="effect1_dropShadow_1516_1748"/>
<feBlend mode="normal" in="SourceGraphic" in2="effect1_dropShadow_1516_1748" result="shape"/>
</filter>
<filter id="filter2_d_1516_1748" x="106" y="0" width="121" height="121" filterUnits="userSpaceOnUse" color-interpolation-filters="sRGB">
<feFlood flood-opacity="0" result="BackgroundImageFix"/>
<feColorMatrix in="SourceAlpha" type="matrix" values="0 0 0 0 0 0 0 0 0 0 0 0 0 0 0 0 0 0 127 0" result="hardAlpha"/>
<feOffset dy="4"/>
<feGaussianBlur stdDeviation="2"/>
<feComposite in2="hardAlpha" operator="out"/>
<feColorMatrix type="matrix" values="0 0 0 0 0 0 0 0 0 0 0 0 0 0 0 0 0 0 0.25 0"/>
<feBlend mode="normal" in2="BackgroundImageFix" result="effect1_dropShadow_1516_1748"/>
<feBlend mode="normal" in="SourceGraphic" in2="effect1_dropShadow_1516_1748" result="shape"/>
</filter>
</defs>
</svg>
