<svg width="205" height="183" viewBox="0 0 205 183" fill="none" xmlns="http://www.w3.org/2000/svg">
<g filter="url(#filter0_d_1517_1750)">
<path d="M149.5 151.875C149.5 153.102 149.987 154.278 150.855 155.145C151.722 156.013 152.898 156.5 154.125 156.5H163.375C164.602 156.5 165.778 156.013 166.645 155.145C167.513 154.278 168 153.102 168 151.875V96.375C168 95.1484 167.513 93.972 166.645 93.1046C165.778 92.2373 164.602 91.75 163.375 91.75H154.125C152.898 91.75 151.722 92.2373 150.855 93.1046C149.987 93.972 149.5 95.1484 149.5 96.375V151.875ZM126.375 156.5C125.148 156.5 123.972 156.013 123.105 155.145C122.237 154.278 121.75 153.102 121.75 151.875V114.875C121.75 113.648 122.237 112.472 123.105 111.605C123.972 110.737 125.148 110.25 126.375 110.25H135.625C136.852 110.25 138.028 110.737 138.895 111.605C139.763 112.472 140.25 113.648 140.25 114.875V151.875C140.25 153.102 139.763 154.278 138.895 155.145C138.028 156.013 136.852 156.5 135.625 156.5H126.375ZM98.625 156.5C97.3984 156.5 96.222 156.013 95.3546 155.145C94.4873 154.278 94 153.102 94 151.875V133.375C94 132.148 94.4873 130.972 95.3546 130.105C96.222 129.237 97.3984 128.75 98.625 128.75H107.875C109.102 128.75 110.278 129.237 111.145 130.105C112.013 130.972 112.5 132.148 112.5 133.375V151.875C112.5 153.102 112.013 154.278 111.145 155.145C110.278 156.013 109.102 156.5 107.875 156.5H98.625Z" fill="#003D00"/>
<path d="M186.5 156.5V68.625L144.875 27H94C89.0935 27 84.3879 28.9491 80.9185 32.4185C77.4491 35.8879 75.5 40.5935 75.5 45.5V156.5C75.5 161.407 77.4491 166.112 80.9185 169.581C84.3879 173.051 89.0935 175 94 175H168C172.907 175 177.612 173.051 181.081 169.581C184.551 166.112 186.5 161.407 186.5 156.5ZM144.875 54.75C144.875 58.4299 146.337 61.959 148.939 64.5611C151.541 67.1632 155.07 68.625 158.75 68.625H177.25V156.5C177.25 158.953 176.275 161.306 174.541 163.041C172.806 164.775 170.453 165.75 168 165.75H94C91.5467 165.75 89.194 164.775 87.4593 163.041C85.7246 161.306 84.75 158.953 84.75 156.5V45.5C84.75 43.0467 85.7246 40.694 87.4593 38.9593C89.194 37.2246 91.5467 36.25 94 36.25H144.875V54.75Z" fill="#003D00"/>
</g>
<g filter="url(#filter1_d_1517_1750)">
<path d="M51.8709 12.5731C73.0858 12.5731 90.2721 29.9112 90.2721 51.2931C90.2831 58.3372 88.3789 65.2495 84.7665 71.2787L103.385 90.0518L103.32 90.1172C105.307 92.035 106.527 94.7575 106.527 97.8346C106.529 103.779 101.832 108.428 95.9421 108.427C92.9337 108.426 90.2433 107.212 88.3233 105.237L88.2765 105.285L69.0669 85.9136C63.731 88.6152 57.8418 90.0191 51.8709 90.0131C30.655 90.0131 13.4721 72.6775 13.4721 51.2931C13.4721 29.9112 30.6562 12.5731 51.8709 12.5731ZM51.6381 74.7877C64.8982 74.7877 75.6393 63.9534 75.6393 50.5877C75.6393 37.2245 64.8982 26.3877 51.6381 26.3877C38.3782 26.3877 27.6393 37.2232 27.6393 50.5877C27.6381 63.9534 38.3782 74.7877 51.6381 74.7877Z" fill="#FDCB00"/>
</g>
<defs>
<filter id="filter0_d_1517_1750" x="53" y="27" width="156" height="156" filterUnits="userSpaceOnUse" color-interpolation-filters="sRGB">
<feFlood flood-opacity="0" result="BackgroundImageFix"/>
<feColorMatrix in="SourceAlpha" type="matrix" values="0 0 0 0 0 0 0 0 0 0 0 0 0 0 0 0 0 0 127 0" result="hardAlpha"/>
<feOffset dy="4"/>
<feGaussianBlur stdDeviation="2"/>
<feComposite in2="hardAlpha" operator="out"/>
<feColorMatrix type="matrix" values="0 0 0 0 0 0 0 0 0 0 0 0 0 0 0 0 0 0 0.25 0"/>
<feBlend mode="normal" in2="BackgroundImageFix" result="effect1_dropShadow_1517_1750"/>
<feBlend mode="normal" in="SourceGraphic" in2="effect1_dropShadow_1517_1750" result="shape"/>
</filter>
<filter id="filter1_d_1517_1750" x="-4" y="0" width="128" height="129" filterUnits="userSpaceOnUse" color-interpolation-filters="sRGB">
<feFlood flood-opacity="0" result="BackgroundImageFix"/>
<feColorMatrix in="SourceAlpha" type="matrix" values="0 0 0 0 0 0 0 0 0 0 0 0 0 0 0 0 0 0 127 0" result="hardAlpha"/>
<feOffset dy="4"/>
<feGaussianBlur stdDeviation="2"/>
<feComposite in2="hardAlpha" operator="out"/>
<feColorMatrix type="matrix" values="0 0 0 0 0 0 0 0 0 0 0 0 0 0 0 0 0 0 0.25 0"/>
<feBlend mode="normal" in2="BackgroundImageFix" result="effect1_dropShadow_1517_1750"/>
<feBlend mode="normal" in="SourceGraphic" in2="effect1_dropShadow_1517_1750" result="shape"/>
</filter>
</defs>
</svg>
