<svg width="115" height="147" viewBox="0 0 115 147" fill="none" xmlns="http://www.w3.org/2000/svg">
<g filter="url(#filter0_d_871_2330)">
<path d="M42.3164 0.0419398C41.6107 0.15729 40.9366 0.441938 40.3422 0.875688C40.3422 0.875688 34.1911 5.12994 27.578 9.73159C20.9649 14.3279 13.6079 19.3945 11.9254 20.4207C11.8216 20.4702 11.7195 20.5237 11.6191 20.581C5.51171 24.723 4.24259 31.4892 4.02377 35.2838C4.00918 35.4602 4.02377 35.6045 4.02377 35.7916C3.97028 37.2132 4.02377 38.1271 4.02377 38.1271V107.943C4.02377 118.087 14.7846 122.966 24.996 122.966C28.3998 122.966 31.8036 122.362 34.7211 121.294C36.6661 120.225 38.0617 118.087 38.0617 115.949V59.8313C38.0617 47.5389 40.4929 41.7668 47.7868 36.9567C49.7318 35.8878 70.1254 20.4153 70.1254 20.4153C71.0979 19.3464 72.0996 17.1765 72.0996 15.5732V15.0708C72.0996 12.933 71.127 11.2975 69.6683 10.2286C68.2095 9.15973 66.2645 9.15973 64.8057 10.2286C64.3195 10.7631 34.6579 32.7131 28.3366 36.4543C22.0152 40.7299 16.1169 41.7614 14.6582 39.6236C14.206 39.1266 13.8121 37.6034 13.7489 36.1176V35.9519V35.7809C13.7537 34.3272 14.0941 31.5908 16.788 29.7683C19.5207 28.0954 26.304 23.3335 32.8976 18.7478C35.6839 16.8078 36.0291 16.5993 38.2124 15.0708C38.4998 16.3764 39.224 17.5152 40.2408 18.2605C41.2576 19.0058 42.4925 19.3029 43.6996 19.0926C44.9067 18.8824 45.9975 18.1803 46.7549 17.126C47.5123 16.0717 47.8807 14.7426 47.7868 13.4033V5.38648C47.7922 4.6247 47.6494 3.87044 47.368 3.17426C47.0865 2.47809 46.6729 1.8561 46.1549 1.34998C45.6368 0.843864 45.0263 0.465318 44.3643 0.239721C43.7023 0.0141243 43.0041 -0.0533097 42.3164 0.0419398ZM81.2169 18.7478C80.4436 18.8892 79.7129 19.2339 79.0871 19.7526C79.0871 19.7526 54.6089 37.8546 50.3688 40.9597C50.3174 41.0155 50.2671 41.0725 50.2181 41.1308C46.6976 44.0329 44.6115 47.4854 43.6828 50.6441C43.0263 52.8834 42.9291 54.7112 42.9242 56.1596V57.8325C42.9172 57.9981 42.9172 58.1639 42.9242 58.3295V122.966C42.9242 133.121 53.5635 139 63.2886 139C67.6649 139 71.6133 137.963 74.5308 135.825C80.3659 132.084 108.569 107.938 108.569 107.938C110.027 106.869 111 105.361 111 103.758V34.2791C111 31.6068 110.057 30.0034 108.112 28.9345C106.653 27.8656 104.256 28.368 102.797 29.4369C95.0168 35.8504 74.0738 53.9577 69.2112 57.1644C62.4036 61.44 55.9899 62.5089 53.5586 59.8367C52.5861 58.7678 52.6493 57.763 52.6493 56.1596C52.6785 55.2404 52.7709 54.4494 52.9557 53.8187C53.228 52.8888 53.7823 51.745 55.8392 49.9813C55.9364 49.8958 55.8878 49.9012 55.9899 49.8156C59.5055 47.2342 70.2566 39.18 77.2684 33.9424C77.6657 35.1137 78.424 36.095 79.4113 36.7154C80.3987 37.3359 81.5527 37.5563 82.6726 37.3383C83.7925 37.1203 84.8075 36.4778 85.541 35.5224C86.2745 34.567 86.6801 33.3592 86.6872 32.1092V24.0924C86.6927 23.3306 86.5499 22.5763 86.2684 21.8802C85.987 21.184 85.5734 20.562 85.0553 20.0559C84.5373 19.5498 83.9268 19.1712 83.2648 18.9456C82.6028 18.72 81.9045 18.6526 81.2169 18.7478ZM101.275 57.8325V68.5215L76.9621 89.2263V78.5372L101.275 57.8325Z" fill="#003D00"/>
</g>
<defs>
<filter id="filter0_d_871_2330" x="0" y="0" width="115" height="147" filterUnits="userSpaceOnUse" color-interpolation-filters="sRGB">
<feFlood flood-opacity="0" result="BackgroundImageFix"/>
<feColorMatrix in="SourceAlpha" type="matrix" values="0 0 0 0 0 0 0 0 0 0 0 0 0 0 0 0 0 0 127 0" result="hardAlpha"/>
<feOffset dy="4"/>
<feGaussianBlur stdDeviation="2"/>
<feComposite in2="hardAlpha" operator="out"/>
<feColorMatrix type="matrix" values="0 0 0 0 0 0 0 0 0 0 0 0 0 0 0 0 0 0 0.25 0"/>
<feBlend mode="normal" in2="BackgroundImageFix" result="effect1_dropShadow_871_2330"/>
<feBlend mode="normal" in="SourceGraphic" in2="effect1_dropShadow_871_2330" result="shape"/>
</filter>
</defs>
</svg>
