<svg width="150" height="154" viewBox="0 0 150 154" fill="none" xmlns="http://www.w3.org/2000/svg">
<g filter="url(#filter0_d_871_2301)">
<path d="M51.0354 48.5714C54.4958 48.5725 57.8269 49.8869 60.3557 52.249C62.8846 54.611 64.4228 57.8448 64.6596 61.2971L64.6961 62.2321V132.054C64.6964 135.516 63.3819 138.849 61.0184 141.38C58.6549 143.91 55.4187 145.448 51.9643 145.684L51.0354 145.714H17.6607C14.1992 145.715 10.8667 144.401 8.3365 142.039C5.80634 139.677 4.26728 136.442 4.03036 132.989L4 132.054V62.2321C3.99957 58.7707 5.31322 55.4381 7.67546 52.9079C10.0377 50.3778 13.2724 48.8387 16.7257 48.6018L17.6607 48.5714H51.0354ZM51.0354 57.6786H17.6607C16.5603 57.6786 15.4972 58.0771 14.6679 58.8004C13.8386 59.5236 13.2993 60.5227 13.1496 61.6129L13.1071 62.2321V132.054C13.1071 134.361 14.8193 136.267 17.0414 136.565L17.6607 136.607H51.0354C52.1357 136.607 53.1989 136.209 54.0282 135.485C54.8574 134.762 55.3968 133.763 55.5464 132.673L55.5889 132.054V62.2321C55.5887 61.1309 55.1893 60.067 54.4648 59.2376C53.7404 58.4081 52.7398 57.8694 51.6486 57.7211L51.0354 57.6786ZM38.9107 118.393C40.0644 118.393 41.175 118.831 42.018 119.619C42.861 120.407 43.3737 121.485 43.4523 122.636C43.5309 123.787 43.1697 124.925 42.4417 125.82C41.7136 126.715 40.673 127.3 39.53 127.458L38.9107 127.5H29.7975C28.6438 127.5 27.5332 127.061 26.6902 126.274C25.8472 125.486 25.3346 124.408 25.2559 123.257C25.1773 122.106 25.5385 120.968 26.2666 120.073C26.9946 119.178 28.0353 118.593 29.1782 118.435L29.7975 118.393H38.9107ZM136.072 0C139.532 0.00111287 142.863 1.31545 145.392 3.67753C147.921 6.03961 149.459 9.2734 149.696 12.7257L149.733 13.6607V81.9643C149.733 85.4258 148.419 88.7583 146.057 91.2885C143.695 93.8187 140.46 95.3577 137.007 95.5947L136.072 95.625H107.202V112.321H114.804C115.957 112.322 117.068 112.76 117.911 113.548C118.754 114.335 119.267 115.414 119.345 116.565C119.424 117.716 119.063 118.854 118.335 119.749C117.606 120.644 116.566 121.229 115.423 121.386L114.804 121.429H70.7857V112.321H98.095V95.625H70.7857V86.5179H136.072C137.172 86.5178 138.235 86.1193 139.065 85.3961C139.894 84.6728 140.433 83.6737 140.583 82.5836L140.625 81.9643V13.6607C140.625 12.5594 140.226 11.4956 139.501 10.6661C138.777 9.83671 137.776 9.29795 136.685 9.14964L136.072 9.10714H35.875C34.7746 9.10719 33.7115 9.50569 32.8822 10.2289C32.0529 10.9522 31.5136 11.9513 31.3639 13.0414L31.3214 13.6607V42.5H22.2143V13.6607C22.2139 10.1992 23.5275 6.86666 25.8897 4.3365C28.252 1.80634 31.4866 0.267277 34.94 0.0303578L35.875 0H136.072Z" fill="#003D00"/>
</g>
<defs>
<filter id="filter0_d_871_2301" x="0" y="0" width="153.732" height="153.714" filterUnits="userSpaceOnUse" color-interpolation-filters="sRGB">
<feFlood flood-opacity="0" result="BackgroundImageFix"/>
<feColorMatrix in="SourceAlpha" type="matrix" values="0 0 0 0 0 0 0 0 0 0 0 0 0 0 0 0 0 0 127 0" result="hardAlpha"/>
<feOffset dy="4"/>
<feGaussianBlur stdDeviation="2"/>
<feComposite in2="hardAlpha" operator="out"/>
<feColorMatrix type="matrix" values="0 0 0 0 0 0 0 0 0 0 0 0 0 0 0 0 0 0 0.5 0"/>
<feBlend mode="normal" in2="BackgroundImageFix" result="effect1_dropShadow_871_2301"/>
<feBlend mode="normal" in="SourceGraphic" in2="effect1_dropShadow_871_2301" result="shape"/>
</filter>
</defs>
</svg>
