<svg width="12" height="16" viewBox="0 0 12 16" fill="none" xmlns="http://www.w3.org/2000/svg">
<mask id="path-1-inside-1_871_2315" fill="white">
<path d="M0.937243 13.625H11.0622C11.276 13.6251 11.4818 13.7063 11.638 13.8522C11.7942 13.9982 11.8892 14.198 11.9038 14.4112C11.9183 14.6245 11.8514 14.8354 11.7165 15.0012C11.5816 15.167 11.3888 15.2755 11.177 15.3046L11.0622 15.3125H0.937243C0.723466 15.3124 0.517684 15.2312 0.361477 15.0853C0.20527 14.9393 0.110285 14.7395 0.0957136 14.5263C0.0811426 14.313 0.148072 14.1021 0.282979 13.9363C0.417886 13.7705 0.610712 13.662 0.822493 13.6329L0.937243 13.625H11.0622H0.937243ZM5.88499 0.132875L5.99974 0.125C6.20363 0.125009 6.40063 0.198848 6.55429 0.332863C6.70795 0.466878 6.80789 0.652002 6.83562 0.854L6.84349 0.96875V9.61775L9.38037 7.082C9.52344 6.93898 9.71313 6.85212 9.91488 6.83725C10.1166 6.82238 10.317 6.8805 10.4795 7.001L10.574 7.082C10.717 7.22507 10.8039 7.41476 10.8187 7.61651C10.8336 7.81826 10.7755 8.01864 10.655 8.18113L10.574 8.27563L6.59599 12.2525C6.45313 12.3954 6.26373 12.4823 6.06223 12.4973C5.86074 12.5124 5.66052 12.4547 5.49799 12.3346L5.40349 12.2525L1.42549 8.27563C1.27453 8.12507 1.18615 7.92295 1.17814 7.70989C1.17013 7.49683 1.24307 7.28864 1.38231 7.12718C1.52154 6.96571 1.71674 6.86294 1.92866 6.83954C2.14058 6.81613 2.3535 6.87382 2.52462 7.001L2.61912 7.082L5.15599 9.62V0.96875C5.156 0.764858 5.22984 0.567865 5.36386 0.414203C5.49787 0.260541 5.68299 0.160604 5.88499 0.132875L5.99974 0.125L5.88499 0.132875Z"/>
</mask>
<path d="M0.937243 13.625H11.0622C11.276 13.6251 11.4818 13.7063 11.638 13.8522C11.7942 13.9982 11.8892 14.198 11.9038 14.4112C11.9183 14.6245 11.8514 14.8354 11.7165 15.0012C11.5816 15.167 11.3888 15.2755 11.177 15.3046L11.0622 15.3125H0.937243C0.723466 15.3124 0.517684 15.2312 0.361477 15.0853C0.20527 14.9393 0.110285 14.7395 0.0957136 14.5263C0.0811426 14.313 0.148072 14.1021 0.282979 13.9363C0.417886 13.7705 0.610712 13.662 0.822493 13.6329L0.937243 13.625H11.0622H0.937243ZM5.88499 0.132875L5.99974 0.125C6.20363 0.125009 6.40063 0.198848 6.55429 0.332863C6.70795 0.466878 6.80789 0.652002 6.83562 0.854L6.84349 0.96875V9.61775L9.38037 7.082C9.52344 6.93898 9.71313 6.85212 9.91488 6.83725C10.1166 6.82238 10.317 6.8805 10.4795 7.001L10.574 7.082C10.717 7.22507 10.8039 7.41476 10.8187 7.61651C10.8336 7.81826 10.7755 8.01864 10.655 8.18113L10.574 8.27563L6.59599 12.2525C6.45313 12.3954 6.26373 12.4823 6.06223 12.4973C5.86074 12.5124 5.66052 12.4547 5.49799 12.3346L5.40349 12.2525L1.42549 8.27563C1.27453 8.12507 1.18615 7.92295 1.17814 7.70989C1.17013 7.49683 1.24307 7.28864 1.38231 7.12718C1.52154 6.96571 1.71674 6.86294 1.92866 6.83954C2.14058 6.81613 2.3535 6.87382 2.52462 7.001L2.61912 7.082L5.15599 9.62V0.96875C5.156 0.764858 5.22984 0.567865 5.36386 0.414203C5.49787 0.260541 5.68299 0.160604 5.88499 0.132875L5.99974 0.125L5.88499 0.132875Z" fill="white"/>
<path d="M0.937243 13.625V11.625H0.868696L0.80031 11.6297L0.937243 13.625ZM11.0622 13.625L11.0629 11.625H11.0622V13.625ZM11.177 15.3046L11.3139 17.2999L11.382 17.2953L11.4496 17.286L11.177 15.3046ZM11.0622 15.3125V17.3125H11.1308L11.1992 17.3078L11.0622 15.3125ZM0.937243 15.3125L0.93663 17.3125H0.937243V15.3125ZM0.822493 13.6329L0.68556 11.6376L0.617482 11.6422L0.54988 11.6515L0.822493 13.6329ZM5.99974 0.125L5.99983 -1.875L5.93124 -1.875L5.86281 -1.87031L5.99974 0.125ZM6.83562 0.854L8.83092 0.717068L8.82627 0.649298L8.81704 0.582L6.83562 0.854ZM6.84349 0.96875H8.84349V0.900203L8.8388 0.831818L6.84349 0.96875ZM6.84349 9.61775H4.84349V14.4447L8.25739 11.0323L6.84349 9.61775ZM9.38037 7.082L10.7943 8.49653L10.7943 8.49645L9.38037 7.082ZM10.4795 7.001L11.7811 5.48249L11.7275 5.43658L11.6708 5.39455L10.4795 7.001ZM10.574 7.082L11.9884 5.66802L11.934 5.61358L11.8756 5.56349L10.574 7.082ZM10.655 8.18113L12.1735 9.48271L12.2194 9.42914L12.2614 9.37248L10.655 8.18113ZM10.574 8.27563L11.988 9.69004L12.0424 9.63563L12.0925 9.57721L10.574 8.27563ZM6.59599 12.2525L5.18198 10.8381L5.18161 10.8384L6.59599 12.2525ZM5.49799 12.3346L4.18608 13.8442L4.24593 13.8962L4.3097 13.9433L5.49799 12.3346ZM5.40349 12.2525L3.98948 13.6669L4.03887 13.7163L4.09158 13.7621L5.40349 12.2525ZM1.42549 8.27563L2.83951 6.86121L2.83776 6.85947L1.42549 8.27563ZM2.52462 7.001L3.8262 5.48249L3.77345 5.43727L3.71768 5.39582L2.52462 7.001ZM2.61912 7.082L4.03364 5.6681L3.97919 5.61362L3.9207 5.56349L2.61912 7.082ZM5.15599 9.62L3.74147 11.0339L7.15599 14.4499V9.62H5.15599ZM5.15599 0.96875L3.15599 0.968666V0.96875H5.15599ZM5.88499 0.132875L5.74806 -1.86243L5.68029 -1.85778L5.61299 -1.84854L5.88499 0.132875ZM0.937243 15.625H11.0622V11.625H0.937243V15.625ZM11.0616 15.625C10.7687 15.6249 10.4867 15.5136 10.2726 15.3136L13.0034 12.3908C12.4769 11.8989 11.7834 11.6252 11.0629 11.625L11.0616 15.625ZM10.2726 15.3136C10.0586 15.1136 9.92839 14.8398 9.90842 14.5476L13.8991 14.2749C13.85 13.5561 13.5299 12.8827 13.0034 12.3908L10.2726 15.3136ZM9.90842 14.5476C9.88846 14.2553 9.98017 13.9663 10.165 13.7391L13.268 16.2633C13.7227 15.7044 13.9482 14.9937 13.8991 14.2749L9.90842 14.5476ZM10.165 13.7391C10.3499 13.5118 10.6142 13.3632 10.9044 13.3233L11.4496 17.286C12.1634 17.1877 12.8133 16.8223 13.268 16.2633L10.165 13.7391ZM11.0401 13.3093L10.9253 13.3172L11.1992 17.3078L11.3139 17.2999L11.0401 13.3093ZM11.0622 13.3125H0.937243V17.3125H11.0622V13.3125ZM0.937856 13.3125C1.23081 13.3126 1.51281 13.4239 1.72687 13.6239L-1.00391 16.5467C-0.477439 17.0386 0.216122 17.3123 0.93663 17.3125L0.937856 13.3125ZM1.72687 13.6239C1.94093 13.8239 2.07109 14.0977 2.09106 14.3899L-1.89964 14.6626C-1.85053 15.3814 -1.53039 16.0548 -1.00391 16.5467L1.72687 13.6239ZM2.09106 14.3899C2.11103 14.6822 2.01931 14.9712 1.83444 15.1984L-1.26848 12.6742C-1.72317 13.2331 -1.94874 13.9438 -1.89964 14.6626L2.09106 14.3899ZM1.83444 15.1984C1.64957 15.4257 1.38532 15.5743 1.09511 15.6142L0.54988 11.6515C-0.1639 11.7498 -0.813793 12.1152 -1.26848 12.6742L1.83444 15.1984ZM0.959425 15.6282L1.07417 15.6203L0.80031 11.6297L0.68556 11.6376L0.959425 15.6282ZM0.937243 15.625H11.0622V11.625H0.937243V15.625ZM11.0622 11.625H0.937243V15.625H11.0622V11.625ZM6.02192 2.12818L6.13667 2.12031L5.86281 -1.87031L5.74806 -1.86243L6.02192 2.12818ZM5.99966 2.125C5.72025 2.12499 5.4503 2.0238 5.23972 1.84015L7.86885 -1.17442C7.35096 -1.6261 6.68702 -1.87497 5.99983 -1.875L5.99966 2.125ZM5.23972 1.84015C5.02915 1.6565 4.8922 1.40281 4.8542 1.126L8.81704 0.582C8.72358 -0.0988093 8.38675 -0.722746 7.86885 -1.17442L5.23972 1.84015ZM4.84031 0.990932L4.84819 1.10568L8.8388 0.831818L8.83092 0.717068L4.84031 0.990932ZM4.84349 0.96875V9.61775H8.84349V0.96875H4.84349ZM8.25739 11.0323L10.7943 8.49653L7.96647 5.66747L5.42959 8.20322L8.25739 11.0323ZM10.7943 8.49645C10.5983 8.69244 10.3383 8.81147 10.0619 8.83184L9.76789 4.84266C9.08792 4.89277 8.44858 5.18552 7.96639 5.66755L10.7943 8.49645ZM10.0619 8.83184C9.7854 8.85222 9.51081 8.77258 9.28814 8.60745L11.6708 5.39455C11.1232 4.98841 10.4479 4.79255 9.76789 4.84266L10.0619 8.83184ZM9.17791 8.51951L9.27241 8.60051L11.8756 5.56349L11.7811 5.48249L9.17791 8.51951ZM9.15954 8.49598C8.96355 8.29992 8.84452 8.03998 8.82415 7.7635L12.8133 7.46952C12.7632 6.78955 12.4705 6.15021 11.9884 5.66802L9.15954 8.49598ZM8.82415 7.7635C8.80377 7.48702 8.88341 7.21244 9.04854 6.98977L12.2614 9.37248C12.6676 8.82484 12.8634 8.1495 12.8133 7.46952L8.82415 7.7635ZM9.13648 6.87954L9.05548 6.97404L12.0925 9.57721L12.1735 9.48271L9.13648 6.87954ZM9.15998 6.86121L5.18198 10.8381L8.01001 13.6669L11.988 9.69004L9.15998 6.86121ZM5.18161 10.8384C5.37738 10.6426 5.63693 10.5236 5.91306 10.5029L6.21141 14.4918C6.89054 14.441 7.52888 14.1482 8.01037 13.6665L5.18161 10.8384ZM5.91306 10.5029C6.18919 10.4823 6.46356 10.5614 6.68628 10.7259L4.3097 13.9433C4.85748 14.348 5.53228 14.5426 6.21141 14.4918L5.91306 10.5029ZM6.8099 10.825L6.7154 10.7429L4.09158 13.7621L4.18608 13.8442L6.8099 10.825ZM6.81751 10.8381L2.83951 6.86121L0.0114791 9.69004L3.98948 13.6669L6.81751 10.8381ZM2.83776 6.85947C3.04464 7.06578 3.16575 7.34277 3.17673 7.63474L-0.820447 7.78505C-0.793444 8.50313 -0.495593 9.18436 0.0132218 9.69178L2.83776 6.85947ZM3.17673 7.63474C3.18771 7.9267 3.08775 8.212 2.89694 8.43327L-0.132331 5.82109C-0.601602 6.36529 -0.847449 7.06697 -0.820447 7.78505L3.17673 7.63474ZM2.89694 8.43327C2.70614 8.65454 2.43865 8.79537 2.14824 8.82745L1.70908 4.85163C0.994834 4.93052 0.336939 5.27689 -0.132331 5.82109L2.89694 8.43327ZM2.14824 8.82745C1.85783 8.85952 1.56605 8.78047 1.33156 8.60618L3.71768 5.39582C3.14095 4.96716 2.42332 4.77273 1.70908 4.85163L2.14824 8.82745ZM1.22304 8.51951L1.31754 8.60051L3.9207 5.56349L3.8262 5.48249L1.22304 8.51951ZM1.20459 8.4959L3.74147 11.0339L6.57052 8.2061L4.03364 5.6681L1.20459 8.4959ZM7.15599 9.62V0.96875H3.15599V9.62H7.15599ZM7.15599 0.968834C7.15598 1.24824 7.05479 1.5182 6.87114 1.72877L3.85657 -0.900363C3.40489 -0.382465 3.15602 0.281472 3.15599 0.968666L7.15599 0.968834ZM6.87114 1.72877C6.68749 1.93934 6.43381 2.07629 6.15699 2.11429L5.61299 -1.84854C4.93218 -1.75508 4.30825 -1.41826 3.85657 -0.900363L6.87114 1.72877ZM6.02192 2.12818L6.13667 2.12031L5.86281 -1.87031L5.74806 -1.86243L6.02192 2.12818ZM5.86281 -1.87031L5.74806 -1.86243L6.02192 2.12818L6.13667 2.12031L5.86281 -1.87031Z" fill="white" mask="url(#path-1-inside-1_871_2315)"/>
</svg>
