<svg width="130" height="130" viewBox="0 0 130 130" fill="none" xmlns="http://www.w3.org/2000/svg">
<g filter="url(#filter0_d_871_2375)">
<path d="M32.5 36.5625C29.2861 36.5625 26.1443 35.6095 23.472 33.8239C20.7997 32.0383 18.7169 29.5004 17.487 26.5311C16.257 23.5618 15.9352 20.2945 16.5622 17.1423C17.1893 13.9901 18.7369 11.0946 21.0095 8.82202C23.2821 6.54942 26.1776 5.00176 29.3298 4.37475C32.482 3.74774 35.7493 4.06954 38.7186 5.29946C41.6879 6.52939 44.2258 8.61219 46.0114 11.2845C47.797 13.9568 48.75 17.0986 48.75 20.3125C48.75 24.6223 47.038 28.7555 43.9905 31.803C40.943 34.8505 36.8098 36.5625 32.5 36.5625ZM32.5 12.1875C30.893 12.1875 29.3221 12.664 27.986 13.5568C26.6498 14.4496 25.6084 15.7186 24.9935 17.2032C24.3785 18.6879 24.2176 20.3215 24.5311 21.8976C24.8446 23.4737 25.6185 24.9214 26.7548 26.0578C27.8911 27.1941 29.3388 27.9679 30.9149 28.2814C32.491 28.5949 34.1247 28.434 35.6093 27.819C37.094 27.2041 38.3629 26.1627 39.2557 24.8265C40.1485 23.4904 40.625 21.9195 40.625 20.3125C40.625 18.1576 39.769 16.091 38.2452 14.5673C36.7215 13.0435 34.6549 12.1875 32.5 12.1875Z" fill="#003D00"/>
<path d="M97.5 36.5625C94.2861 36.5625 91.1443 35.6095 88.472 33.8239C85.7997 32.0383 83.7169 29.5004 82.487 26.5311C81.257 23.5618 80.9352 20.2945 81.5622 17.1423C82.1893 13.9901 83.7369 11.0946 86.0095 8.82202C88.2821 6.54942 91.1776 5.00176 94.3298 4.37475C97.482 3.74774 100.749 4.06954 103.719 5.29946C106.688 6.52939 109.226 8.61219 111.011 11.2845C112.797 13.9568 113.75 17.0986 113.75 20.3125C113.75 24.6223 112.038 28.7555 108.99 31.803C105.943 34.8505 101.81 36.5625 97.5 36.5625ZM97.5 12.1875C95.893 12.1875 94.3222 12.664 92.986 13.5568C91.6499 14.4496 90.6085 15.7186 89.9935 17.2032C89.3785 18.6879 89.2176 20.3215 89.5311 21.8976C89.8446 23.4737 90.6185 24.9214 91.7548 26.0578C92.8911 27.1941 94.3388 27.9679 95.9149 28.2814C97.491 28.5949 99.1247 28.434 100.609 27.819C102.094 27.2041 103.363 26.1627 104.256 24.8265C105.148 23.4904 105.625 21.9195 105.625 20.3125C105.625 18.1576 104.769 16.091 103.245 14.5673C101.722 13.0435 99.6549 12.1875 97.5 12.1875Z" fill="#003D00"/>
<path d="M105.625 121.875H89.375C87.2201 121.875 85.1535 121.019 83.6298 119.495C82.106 117.972 81.25 115.905 81.25 113.75V85.3125H89.375V113.75H105.625V77.1875H113.75V52.8125C113.75 51.7351 113.322 50.7017 112.56 49.9399C111.798 49.178 110.765 48.75 109.688 48.75H83.6062L65 81.25L46.3937 48.75H20.3125C19.2351 48.75 18.2017 49.178 17.4399 49.9399C16.678 50.7017 16.25 51.7351 16.25 52.8125V77.1875H24.375V113.75H40.625V85.3125H48.75V113.75C48.75 115.905 47.894 117.972 46.3702 119.495C44.8465 121.019 42.7799 121.875 40.625 121.875H24.375C22.2201 121.875 20.1535 121.019 18.6298 119.495C17.106 117.972 16.25 115.905 16.25 113.75V85.3125C14.0951 85.3125 12.0285 84.4565 10.5048 82.9327C8.98102 81.409 8.125 79.3424 8.125 77.1875V52.8125C8.125 49.5802 9.40904 46.4802 11.6946 44.1946C13.9802 41.909 17.0802 40.625 20.3125 40.625H51.1063L65 65L78.8938 40.625H109.688C112.92 40.625 116.02 41.909 118.305 44.1946C120.591 46.4802 121.875 49.5802 121.875 52.8125V77.1875C121.875 79.3424 121.019 81.409 119.495 82.9327C117.972 84.4565 115.905 85.3125 113.75 85.3125V113.75C113.75 115.905 112.894 117.972 111.37 119.495C109.847 121.019 107.78 121.875 105.625 121.875Z" fill="#003D00"/>
</g>
<defs>
<filter id="filter0_d_871_2375" x="-4" y="0" width="138" height="138" filterUnits="userSpaceOnUse" color-interpolation-filters="sRGB">
<feFlood flood-opacity="0" result="BackgroundImageFix"/>
<feColorMatrix in="SourceAlpha" type="matrix" values="0 0 0 0 0 0 0 0 0 0 0 0 0 0 0 0 0 0 127 0" result="hardAlpha"/>
<feOffset dy="4"/>
<feGaussianBlur stdDeviation="2"/>
<feComposite in2="hardAlpha" operator="out"/>
<feColorMatrix type="matrix" values="0 0 0 0 0 0 0 0 0 0 0 0 0 0 0 0 0 0 0.25 0"/>
<feBlend mode="normal" in2="BackgroundImageFix" result="effect1_dropShadow_871_2375"/>
<feBlend mode="normal" in="SourceGraphic" in2="effect1_dropShadow_871_2375" result="shape"/>
</filter>
</defs>
</svg>
