<svg width="96" height="112" viewBox="0 0 96 112" fill="none" xmlns="http://www.w3.org/2000/svg">
<path fill-rule="evenodd" clip-rule="evenodd" d="M33.066 3.73333C33.066 2.74319 33.4593 1.7936 34.1595 1.09347C34.8596 0.393332 35.8092 0 36.7993 0L59.1993 0C60.1895 0 61.1391 0.393332 61.8392 1.09347C62.5393 1.7936 62.9327 2.74319 62.9327 3.73333C62.9327 4.72347 62.5393 5.67306 61.8392 6.3732C61.1391 7.07333 60.1895 7.46667 59.1993 7.46667H51.7327V15.8293C59.6988 16.4394 67.3825 19.0486 74.0729 23.4155C74.2214 23.2085 74.3861 23.0137 74.5657 22.8331L82.0324 15.3664C82.4658 14.933 82.9803 14.5892 83.5466 14.3547C84.1128 14.1201 84.7197 13.9994 85.3327 13.9994C85.9456 13.9994 86.5525 14.1201 87.1187 14.3547C87.685 14.5892 88.1995 14.933 88.6329 15.3664C89.0663 15.7998 89.4101 16.3143 89.6447 16.8806C89.8792 17.4468 89.9999 18.0537 89.9999 18.6667C89.9999 19.2796 89.8792 19.8865 89.6447 20.4528C89.4101 21.019 89.0663 21.5335 88.6329 21.9669L81.3529 29.2469C89.1729 36.8711 94.1454 46.944 95.4423 57.7883C96.7393 68.6326 94.2824 79.594 88.4808 88.8472C82.6793 98.1005 73.8831 105.087 63.557 108.644C53.2308 112.201 41.9979 112.114 31.7284 108.396C21.459 104.679 12.7727 97.5558 7.11608 88.2132C1.45942 78.8707 -0.826329 67.8724 0.639428 57.0496C2.10519 46.2268 7.23399 36.2327 15.1719 28.7313C23.1098 21.2298 33.3777 16.6738 44.266 15.8219V7.46667H36.7993C35.8092 7.46667 34.8596 7.07333 34.1595 6.3732C33.4593 5.67306 33.066 4.72347 33.066 3.73333ZM7.67932 63.4667C7.67932 52.7731 11.9273 42.5176 19.4888 34.9561C27.0502 27.3947 37.3058 23.1467 47.9993 23.1467C58.6928 23.1467 68.9484 27.3947 76.5099 34.9561C84.0713 42.5176 88.3193 52.7731 88.3193 63.4667C88.3193 74.1602 84.0713 84.4157 76.5099 91.9772C68.9484 99.5387 58.6928 103.787 47.9993 103.787C37.3058 103.787 27.0502 99.5387 19.4888 91.9772C11.9273 84.4157 7.67932 74.1602 7.67932 63.4667ZM47.9993 63.4667V30.6133C42.5963 30.6127 37.2764 31.9446 32.5111 34.4911C27.7458 37.0376 23.6821 40.7201 20.68 45.2124C17.6779 49.7047 15.8301 54.868 15.3003 60.245C14.7705 65.622 15.575 71.0467 17.6425 76.0385C19.7101 81.0303 22.9769 85.4352 27.1536 88.8628C31.3302 92.2904 36.2878 94.635 41.587 95.6889C46.8863 96.7429 52.3637 96.4735 57.534 94.9048C62.7043 93.336 67.4079 90.5163 71.2281 86.6955L47.9993 63.4667Z" fill="#003D00"/>
</svg>
