<svg width="231" height="202" viewBox="0 0 231 202" fill="none" xmlns="http://www.w3.org/2000/svg">
<g clip-path="url(#clip0_1516_1747)" filter="url(#filter0_d_1516_1747)">
<path d="M154.623 68.125C154.227 68.125 153.831 68.1838 153.454 68.3081C151.307 69.0152 149.048 69.4688 146.671 69.4688C144.294 69.4688 142.036 69.0152 139.887 68.3081C139.509 68.1838 139.115 68.125 138.719 68.125C128.438 68.125 120.11 76.6041 120.164 87.0416C120.188 91.4525 123.764 95 128.116 95H165.226C169.578 95 173.155 91.4525 173.178 87.0416C173.233 76.6041 164.905 68.125 154.623 68.125ZM146.671 62.75C155.455 62.75 162.575 55.5307 162.575 46.625C162.575 37.7193 155.455 30.5 146.671 30.5C137.887 30.5 130.767 37.7193 130.767 46.625C130.767 55.5307 137.887 62.75 146.671 62.75ZM218.24 9H154.623C150.238 9 146.671 12.7373 146.671 17.3296V25.125C150.551 25.125 154.143 26.2638 157.274 28.1148V19.75H215.589V68.125H204.986V57.375H183.781V68.125H171.15C174.314 70.9284 176.637 74.6304 177.726 78.875H218.24C222.625 78.875 226.192 75.1377 226.192 70.5454V17.3296C226.192 12.7373 222.625 9 218.24 9Z" fill="#003D00"/>
</g>
<g filter="url(#filter1_d_1516_1747)">
<path d="M14.7559 21.9375V29.25H94.4621V87.75H43.74V95.0625H108.954V87.75H101.708V21.9375H14.7559ZM29.2551 32.9062C25.4151 32.9197 21.736 34.4647 19.0199 37.2043C16.3039 39.9439 14.7711 43.6559 14.7559 47.5312C14.7559 55.5713 21.2918 62.1562 29.2551 62.1562C33.0933 62.1408 36.7698 60.5948 39.4831 57.8552C42.1965 55.1156 43.7266 51.4046 43.74 47.5312C43.74 39.4985 37.2113 32.9062 29.2551 32.9062ZM50.986 36.5625V43.875H69.101V36.5625H50.986ZM76.3471 36.5625V43.875H87.2161V36.5625H76.3471ZM29.2551 40.2188C33.2912 40.2188 36.4939 43.4472 36.4939 47.5312C36.4939 51.6262 33.2948 54.8438 29.2551 54.8438C25.1974 54.8438 22.0019 51.6262 22.0019 47.5312C22.0019 43.4472 25.201 40.2188 29.2551 40.2188ZM50.986 51.1875V58.5H87.2161V51.1875H50.986ZM14.7559 65.8125V95.0625H22.0019V73.125H32.8709V95.0625H40.1169V75.5308L47.5948 79.5234C49.7143 80.6569 52.2613 80.6532 54.3771 79.5234V79.5308L67.1663 72.7045L63.7861 66.233L50.9932 73.0592L39.7764 67.0849C38.2109 66.2503 36.4674 65.8135 34.6969 65.8125H14.7559Z" fill="#003D00"/>
</g>
<g filter="url(#filter2_d_1516_1747)">
<path d="M184.447 158.25H180.112V110.125C180.112 108.965 179.655 107.852 178.842 107.031C178.029 106.211 176.927 105.75 175.777 105.75H115.084C113.934 105.75 112.831 106.211 112.018 107.031C111.205 107.852 110.749 108.965 110.749 110.125V158.25H106.413C105.264 158.25 104.161 158.711 103.348 159.531C102.535 160.352 102.078 161.465 102.078 162.625C102.078 163.785 102.535 164.898 103.348 165.719C104.161 166.539 105.264 167 106.413 167H141.095V172.031L121.37 185.156C120.561 185.662 119.939 186.422 119.6 187.32C119.261 188.217 119.225 189.202 119.496 190.123C119.767 191.044 120.331 191.849 121.101 192.414C121.87 192.979 122.803 193.273 123.754 193.25C124.607 193.26 125.44 193 126.139 192.506L141.095 182.531V188.875C141.095 190.035 141.552 191.148 142.365 191.969C143.178 192.789 144.281 193.25 145.43 193.25C146.58 193.25 147.683 192.789 148.496 191.969C149.309 191.148 149.766 190.035 149.766 188.875V182.531L164.722 192.506C165.42 193 166.254 193.26 167.107 193.25C168.033 193.243 168.932 192.936 169.673 192.376C170.415 191.815 170.958 191.03 171.225 190.134C171.491 189.239 171.467 188.281 171.155 187.401C170.843 186.521 170.26 185.765 169.491 185.244L149.766 172.119V167H184.447C185.597 167 186.7 166.539 187.513 165.719C188.326 164.898 188.783 163.785 188.783 162.625C188.783 161.465 188.326 160.352 187.513 159.531C186.7 158.711 185.597 158.25 184.447 158.25ZM171.442 158.25H119.419V114.5H171.442V158.25ZM132.425 149.5C133.139 149.496 133.841 149.315 134.469 148.971C135.096 148.628 135.63 148.133 136.023 147.531L141.789 138.781L146.688 143.769C147.142 144.231 147.694 144.584 148.301 144.804C148.909 145.023 149.557 145.103 150.199 145.037C150.838 144.967 151.454 144.753 152.001 144.413C152.549 144.072 153.014 143.613 153.364 143.069L162.034 129.944C162.545 128.983 162.682 127.865 162.418 126.808C162.154 125.751 161.509 124.831 160.609 124.229C159.708 123.627 158.618 123.385 157.55 123.552C156.483 123.719 155.515 124.282 154.838 125.131L149.072 133.881L144.173 128.894C143.718 128.432 143.167 128.078 142.56 127.859C141.952 127.639 141.304 127.559 140.662 127.625C140.022 127.696 139.407 127.909 138.86 128.25C138.312 128.59 137.847 129.049 137.497 129.594L128.826 142.719C128.199 143.683 127.975 144.859 128.202 145.99C128.429 147.12 129.09 148.115 130.04 148.756C130.738 149.25 131.572 149.51 132.425 149.5Z" fill="#003D00"/>
</g>
<defs>
<filter id="filter0_d_1516_1747" x="116.164" y="9" width="114.027" height="94" filterUnits="userSpaceOnUse" color-interpolation-filters="sRGB">
<feFlood flood-opacity="0" result="BackgroundImageFix"/>
<feColorMatrix in="SourceAlpha" type="matrix" values="0 0 0 0 0 0 0 0 0 0 0 0 0 0 0 0 0 0 127 0" result="hardAlpha"/>
<feOffset dy="4"/>
<feGaussianBlur stdDeviation="2"/>
<feComposite in2="hardAlpha" operator="out"/>
<feColorMatrix type="matrix" values="0 0 0 0 0 0 0 0 0 0 0 0 0 0 0 0 0 0 0.25 0"/>
<feBlend mode="normal" in2="BackgroundImageFix" result="effect1_dropShadow_1516_1747"/>
<feBlend mode="normal" in="SourceGraphic" in2="effect1_dropShadow_1516_1747" result="shape"/>
</filter>
<filter id="filter1_d_1516_1747" x="-3.73633" y="0" width="123.936" height="125" filterUnits="userSpaceOnUse" color-interpolation-filters="sRGB">
<feFlood flood-opacity="0" result="BackgroundImageFix"/>
<feColorMatrix in="SourceAlpha" type="matrix" values="0 0 0 0 0 0 0 0 0 0 0 0 0 0 0 0 0 0 127 0" result="hardAlpha"/>
<feOffset dy="4"/>
<feGaussianBlur stdDeviation="2"/>
<feComposite in2="hardAlpha" operator="out"/>
<feColorMatrix type="matrix" values="0 0 0 0 0 0 0 0 0 0 0 0 0 0 0 0 0 0 0.25 0"/>
<feBlend mode="normal" in2="BackgroundImageFix" result="effect1_dropShadow_1516_1747"/>
<feBlend mode="normal" in="SourceGraphic" in2="effect1_dropShadow_1516_1747" result="shape"/>
</filter>
<filter id="filter2_d_1516_1747" x="89.4082" y="97" width="112.045" height="113" filterUnits="userSpaceOnUse" color-interpolation-filters="sRGB">
<feFlood flood-opacity="0" result="BackgroundImageFix"/>
<feColorMatrix in="SourceAlpha" type="matrix" values="0 0 0 0 0 0 0 0 0 0 0 0 0 0 0 0 0 0 127 0" result="hardAlpha"/>
<feOffset dy="4"/>
<feGaussianBlur stdDeviation="2"/>
<feComposite in2="hardAlpha" operator="out"/>
<feColorMatrix type="matrix" values="0 0 0 0 0 0 0 0 0 0 0 0 0 0 0 0 0 0 0.25 0"/>
<feBlend mode="normal" in2="BackgroundImageFix" result="effect1_dropShadow_1516_1747"/>
<feBlend mode="normal" in="SourceGraphic" in2="effect1_dropShadow_1516_1747" result="shape"/>
</filter>
<clipPath id="clip0_1516_1747">
<rect width="106.027" height="86" fill="white" transform="translate(120.164 9)"/>
</clipPath>
</defs>
</svg>
